G04 #@! TF.FileFunction,Legend,Top*
%FSLAX46Y46*%
G04 Gerber Fmt 4.6, Leading zero omitted, Abs format (unit mm)*
G04 Created by KiCad (PCBNEW 4.0.1-3.201512221402+6198~38~ubuntu14.04.1-stable) date Tue 03 May 2016 12:22:43 PM PDT*
%MOMM*%
G01*
G04 APERTURE LIST*
%ADD10C,0.100000*%
%ADD11C,0.152400*%
%ADD12C,0.150000*%
G04 APERTURE END LIST*
D10*
D11*
X123794762Y-117553619D02*
X123310953Y-117553619D01*
X123262572Y-118037429D01*
X123310953Y-117989048D01*
X123407715Y-117940667D01*
X123649619Y-117940667D01*
X123746381Y-117989048D01*
X123794762Y-118037429D01*
X123843143Y-118134190D01*
X123843143Y-118376095D01*
X123794762Y-118472857D01*
X123746381Y-118521238D01*
X123649619Y-118569619D01*
X123407715Y-118569619D01*
X123310953Y-118521238D01*
X123262572Y-118472857D01*
X124133429Y-117553619D02*
X124472096Y-118569619D01*
X124810762Y-117553619D01*
X123843143Y-112522000D02*
X123746381Y-112473619D01*
X123601238Y-112473619D01*
X123456096Y-112522000D01*
X123359334Y-112618762D01*
X123310953Y-112715524D01*
X123262572Y-112909048D01*
X123262572Y-113054190D01*
X123310953Y-113247714D01*
X123359334Y-113344476D01*
X123456096Y-113441238D01*
X123601238Y-113489619D01*
X123698000Y-113489619D01*
X123843143Y-113441238D01*
X123891524Y-113392857D01*
X123891524Y-113054190D01*
X123698000Y-113054190D01*
X124326953Y-113489619D02*
X124326953Y-112473619D01*
X124907524Y-113489619D01*
X124907524Y-112473619D01*
X125391334Y-113489619D02*
X125391334Y-112473619D01*
X125633239Y-112473619D01*
X125778381Y-112522000D01*
X125875143Y-112618762D01*
X125923524Y-112715524D01*
X125971905Y-112909048D01*
X125971905Y-113054190D01*
X125923524Y-113247714D01*
X125875143Y-113344476D01*
X125778381Y-113441238D01*
X125633239Y-113489619D01*
X125391334Y-113489619D01*
X123214191Y-109933619D02*
X123843143Y-109933619D01*
X123504477Y-110320667D01*
X123649619Y-110320667D01*
X123746381Y-110369048D01*
X123794762Y-110417429D01*
X123843143Y-110514190D01*
X123843143Y-110756095D01*
X123794762Y-110852857D01*
X123746381Y-110901238D01*
X123649619Y-110949619D01*
X123359334Y-110949619D01*
X123262572Y-110901238D01*
X123214191Y-110852857D01*
X124278572Y-110852857D02*
X124326953Y-110901238D01*
X124278572Y-110949619D01*
X124230191Y-110901238D01*
X124278572Y-110852857D01*
X124278572Y-110949619D01*
X124665620Y-109933619D02*
X125294572Y-109933619D01*
X124955906Y-110320667D01*
X125101048Y-110320667D01*
X125197810Y-110369048D01*
X125246191Y-110417429D01*
X125294572Y-110514190D01*
X125294572Y-110756095D01*
X125246191Y-110852857D01*
X125197810Y-110901238D01*
X125101048Y-110949619D01*
X124810763Y-110949619D01*
X124714001Y-110901238D01*
X124665620Y-110852857D01*
X125584858Y-109933619D02*
X125923525Y-110949619D01*
X126262191Y-109933619D01*
X123891524Y-108409619D02*
X123552858Y-107925810D01*
X123310953Y-108409619D02*
X123310953Y-107393619D01*
X123698000Y-107393619D01*
X123794762Y-107442000D01*
X123843143Y-107490381D01*
X123891524Y-107587143D01*
X123891524Y-107732286D01*
X123843143Y-107829048D01*
X123794762Y-107877429D01*
X123698000Y-107925810D01*
X123310953Y-107925810D01*
X124278572Y-108361238D02*
X124423715Y-108409619D01*
X124665619Y-108409619D01*
X124762381Y-108361238D01*
X124810762Y-108312857D01*
X124859143Y-108216095D01*
X124859143Y-108119333D01*
X124810762Y-108022571D01*
X124762381Y-107974190D01*
X124665619Y-107925810D01*
X124472096Y-107877429D01*
X124375334Y-107829048D01*
X124326953Y-107780667D01*
X124278572Y-107683905D01*
X124278572Y-107587143D01*
X124326953Y-107490381D01*
X124375334Y-107442000D01*
X124472096Y-107393619D01*
X124714000Y-107393619D01*
X124859143Y-107442000D01*
X125149429Y-107393619D02*
X125730000Y-107393619D01*
X125439715Y-108409619D02*
X125439715Y-107393619D01*
X123891524Y-105869619D02*
X123552858Y-105385810D01*
X123310953Y-105869619D02*
X123310953Y-104853619D01*
X123698000Y-104853619D01*
X123794762Y-104902000D01*
X123843143Y-104950381D01*
X123891524Y-105047143D01*
X123891524Y-105192286D01*
X123843143Y-105289048D01*
X123794762Y-105337429D01*
X123698000Y-105385810D01*
X123310953Y-105385810D01*
X124230191Y-104853619D02*
X124907524Y-105869619D01*
X124907524Y-104853619D02*
X124230191Y-105869619D01*
X123165810Y-102313619D02*
X123746381Y-102313619D01*
X123456096Y-103329619D02*
X123456096Y-102313619D01*
X123988286Y-102313619D02*
X124665619Y-103329619D01*
X124665619Y-102313619D02*
X123988286Y-103329619D01*
X123891524Y-100789619D02*
X123552858Y-100305810D01*
X123310953Y-100789619D02*
X123310953Y-99773619D01*
X123698000Y-99773619D01*
X123794762Y-99822000D01*
X123843143Y-99870381D01*
X123891524Y-99967143D01*
X123891524Y-100112286D01*
X123843143Y-100209048D01*
X123794762Y-100257429D01*
X123698000Y-100305810D01*
X123310953Y-100305810D01*
X124181810Y-99773619D02*
X124762381Y-99773619D01*
X124472096Y-100789619D02*
X124472096Y-99773619D01*
X125052667Y-100741238D02*
X125197810Y-100789619D01*
X125439714Y-100789619D01*
X125536476Y-100741238D01*
X125584857Y-100692857D01*
X125633238Y-100596095D01*
X125633238Y-100499333D01*
X125584857Y-100402571D01*
X125536476Y-100354190D01*
X125439714Y-100305810D01*
X125246191Y-100257429D01*
X125149429Y-100209048D01*
X125101048Y-100160667D01*
X125052667Y-100063905D01*
X125052667Y-99967143D01*
X125101048Y-99870381D01*
X125149429Y-99822000D01*
X125246191Y-99773619D01*
X125488095Y-99773619D01*
X125633238Y-99822000D01*
X123310953Y-98249619D02*
X123310953Y-97233619D01*
X123891524Y-98249619D02*
X123456096Y-97669048D01*
X123891524Y-97233619D02*
X123310953Y-97814190D01*
X124326953Y-97717429D02*
X124665619Y-97717429D01*
X124810762Y-98249619D02*
X124326953Y-98249619D01*
X124326953Y-97233619D01*
X124810762Y-97233619D01*
X125439715Y-97765810D02*
X125439715Y-98249619D01*
X125101048Y-97233619D02*
X125439715Y-97765810D01*
X125778381Y-97233619D01*
X123891524Y-95709619D02*
X123552858Y-95225810D01*
X123310953Y-95709619D02*
X123310953Y-94693619D01*
X123698000Y-94693619D01*
X123794762Y-94742000D01*
X123843143Y-94790381D01*
X123891524Y-94887143D01*
X123891524Y-95032286D01*
X123843143Y-95129048D01*
X123794762Y-95177429D01*
X123698000Y-95225810D01*
X123310953Y-95225810D01*
X124326953Y-95709619D02*
X124326953Y-94693619D01*
X123310953Y-93169619D02*
X123310953Y-92153619D01*
X123698000Y-92153619D01*
X123794762Y-92202000D01*
X123843143Y-92250381D01*
X123891524Y-92347143D01*
X123891524Y-92492286D01*
X123843143Y-92589048D01*
X123794762Y-92637429D01*
X123698000Y-92685810D01*
X123310953Y-92685810D01*
X124278572Y-93121238D02*
X124423715Y-93169619D01*
X124665619Y-93169619D01*
X124762381Y-93121238D01*
X124810762Y-93072857D01*
X124859143Y-92976095D01*
X124859143Y-92879333D01*
X124810762Y-92782571D01*
X124762381Y-92734190D01*
X124665619Y-92685810D01*
X124472096Y-92637429D01*
X124375334Y-92589048D01*
X124326953Y-92540667D01*
X124278572Y-92443905D01*
X124278572Y-92347143D01*
X124326953Y-92250381D01*
X124375334Y-92202000D01*
X124472096Y-92153619D01*
X124714000Y-92153619D01*
X124859143Y-92202000D01*
X123310953Y-90629619D02*
X123310953Y-89613619D01*
X123891524Y-90629619D01*
X123891524Y-89613619D01*
X124326953Y-90581238D02*
X124472096Y-90629619D01*
X124714000Y-90629619D01*
X124810762Y-90581238D01*
X124859143Y-90532857D01*
X124907524Y-90436095D01*
X124907524Y-90339333D01*
X124859143Y-90242571D01*
X124810762Y-90194190D01*
X124714000Y-90145810D01*
X124520477Y-90097429D01*
X124423715Y-90049048D01*
X124375334Y-90000667D01*
X124326953Y-89903905D01*
X124326953Y-89807143D01*
X124375334Y-89710381D01*
X124423715Y-89662000D01*
X124520477Y-89613619D01*
X124762381Y-89613619D01*
X124907524Y-89662000D01*
X116065905Y-94107000D02*
X115969143Y-94058619D01*
X115824000Y-94058619D01*
X115678858Y-94107000D01*
X115582096Y-94203762D01*
X115533715Y-94300524D01*
X115485334Y-94494048D01*
X115485334Y-94639190D01*
X115533715Y-94832714D01*
X115582096Y-94929476D01*
X115678858Y-95026238D01*
X115824000Y-95074619D01*
X115920762Y-95074619D01*
X116065905Y-95026238D01*
X116114286Y-94977857D01*
X116114286Y-94639190D01*
X115920762Y-94639190D01*
X116549715Y-95074619D02*
X116549715Y-94058619D01*
X117130286Y-95074619D01*
X117130286Y-94058619D01*
X117614096Y-95074619D02*
X117614096Y-94058619D01*
X117856001Y-94058619D01*
X118001143Y-94107000D01*
X118097905Y-94203762D01*
X118146286Y-94300524D01*
X118194667Y-94494048D01*
X118194667Y-94639190D01*
X118146286Y-94832714D01*
X118097905Y-94929476D01*
X118001143Y-95026238D01*
X117856001Y-95074619D01*
X117614096Y-95074619D01*
X116162667Y-102440619D02*
X115824001Y-101956810D01*
X115582096Y-102440619D02*
X115582096Y-101424619D01*
X115969143Y-101424619D01*
X116065905Y-101473000D01*
X116114286Y-101521381D01*
X116162667Y-101618143D01*
X116162667Y-101763286D01*
X116114286Y-101860048D01*
X116065905Y-101908429D01*
X115969143Y-101956810D01*
X115582096Y-101956810D01*
X116501334Y-101424619D02*
X117178667Y-102440619D01*
X117178667Y-101424619D02*
X116501334Y-102440619D01*
X115557905Y-104345619D02*
X116138476Y-104345619D01*
X115848191Y-105361619D02*
X115848191Y-104345619D01*
X116380381Y-104345619D02*
X117057714Y-105361619D01*
X117057714Y-104345619D02*
X116380381Y-105361619D01*
D12*
X137515600Y-125095000D02*
X157937200Y-125095000D01*
X157937200Y-125095000D02*
X157937200Y-122555000D01*
X157937200Y-122555000D02*
X137515600Y-122555000D01*
X137515600Y-125095000D02*
X137515600Y-122555000D01*
X175742600Y-122580400D02*
X160401000Y-122580400D01*
X175742600Y-125120400D02*
X175742600Y-122580400D01*
X160401000Y-125120400D02*
X175742600Y-125120400D01*
X160401000Y-125120400D02*
X160401000Y-122580400D01*
X175742600Y-76835000D02*
X175742600Y-74295000D01*
X175742600Y-74295000D02*
X155321000Y-74295000D01*
X155321000Y-76835000D02*
X155321000Y-74295000D01*
X155321000Y-76835000D02*
X175742600Y-76835000D01*
X153898600Y-74295000D02*
X128422400Y-74295000D01*
X128422400Y-76835000D02*
X153898600Y-76835000D01*
X153898600Y-76835000D02*
X153898600Y-74295000D01*
X128397000Y-76835000D02*
X128397000Y-74295000D01*
X127254000Y-123825000D02*
G75*
G03X127254000Y-123825000I-2286000J0D01*
G01*
X179324000Y-118745000D02*
G75*
G03X179324000Y-118745000I-2286000J0D01*
G01*
X128524000Y-75565000D02*
G75*
G03X128524000Y-75565000I-2286000J0D01*
G01*
X179324000Y-90805000D02*
G75*
G03X179324000Y-90805000I-2286000J0D01*
G01*
X150418800Y-89914600D02*
X150418800Y-89414600D01*
X150418800Y-92414600D02*
X150418800Y-91914600D01*
X150418800Y-99914600D02*
X150418800Y-99414600D01*
X150418800Y-102414600D02*
X150418800Y-101914600D01*
X150418800Y-104814600D02*
X150418800Y-104414600D01*
X150418800Y-109914600D02*
X150418800Y-108514600D01*
X171018800Y-111814600D02*
X150418800Y-111814600D01*
X169818800Y-82914600D02*
X150418800Y-82914600D01*
X150418800Y-82914600D02*
X150418800Y-87414600D01*
X180218800Y-82914600D02*
X180218800Y-111814600D01*
X180218800Y-111814600D02*
X174218800Y-111814600D01*
X180218800Y-82914600D02*
X173018800Y-82914600D01*
X122047000Y-116763800D02*
X122047000Y-78663800D01*
X122047000Y-78663800D02*
X119507000Y-78663800D01*
X119507000Y-78663800D02*
X119507000Y-116763800D01*
X119227000Y-119583800D02*
X119227000Y-118033800D01*
X119507000Y-116763800D02*
X122047000Y-116763800D01*
X122327000Y-118033800D02*
X122327000Y-119583800D01*
X122327000Y-119583800D02*
X119227000Y-119583800D01*
X112242600Y-105943400D02*
X112242600Y-93243400D01*
X112242600Y-93243400D02*
X114782600Y-93243400D01*
X114782600Y-93243400D02*
X114782600Y-105943400D01*
X111962600Y-108763400D02*
X111962600Y-107213400D01*
X112242600Y-105943400D02*
X114782600Y-105943400D01*
X115062600Y-107213400D02*
X115062600Y-108763400D01*
X115062600Y-108763400D02*
X111962600Y-108763400D01*
D11*
X139282714Y-121644228D02*
X138520714Y-121644228D01*
X139282714Y-121208800D01*
X138520714Y-121208800D01*
X139210143Y-120410514D02*
X139246429Y-120446800D01*
X139282714Y-120555657D01*
X139282714Y-120628228D01*
X139246429Y-120737085D01*
X139173857Y-120809657D01*
X139101286Y-120845942D01*
X138956143Y-120882228D01*
X138847286Y-120882228D01*
X138702143Y-120845942D01*
X138629571Y-120809657D01*
X138557000Y-120737085D01*
X138520714Y-120628228D01*
X138520714Y-120555657D01*
X138557000Y-120446800D01*
X138593286Y-120410514D01*
X141771914Y-121644228D02*
X141009914Y-121644228D01*
X141009914Y-121136229D02*
X141009914Y-120991086D01*
X141046200Y-120918514D01*
X141118771Y-120845943D01*
X141263914Y-120809657D01*
X141517914Y-120809657D01*
X141663057Y-120845943D01*
X141735629Y-120918514D01*
X141771914Y-120991086D01*
X141771914Y-121136229D01*
X141735629Y-121208800D01*
X141663057Y-121281371D01*
X141517914Y-121317657D01*
X141263914Y-121317657D01*
X141118771Y-121281371D01*
X141046200Y-121208800D01*
X141009914Y-121136229D01*
X141771914Y-120047657D02*
X141409057Y-120301657D01*
X141771914Y-120483085D02*
X141009914Y-120483085D01*
X141009914Y-120192800D01*
X141046200Y-120120228D01*
X141082486Y-120083943D01*
X141155057Y-120047657D01*
X141263914Y-120047657D01*
X141336486Y-120083943D01*
X141372771Y-120120228D01*
X141409057Y-120192800D01*
X141409057Y-120483085D01*
X141372771Y-119721085D02*
X141372771Y-119467085D01*
X141771914Y-119358228D02*
X141771914Y-119721085D01*
X141009914Y-119721085D01*
X141009914Y-119358228D01*
X141372771Y-118777656D02*
X141372771Y-119031656D01*
X141771914Y-119031656D02*
X141009914Y-119031656D01*
X141009914Y-118668799D01*
X144311914Y-121208800D02*
X143949057Y-121462800D01*
X144311914Y-121644228D02*
X143549914Y-121644228D01*
X143549914Y-121353943D01*
X143586200Y-121281371D01*
X143622486Y-121245086D01*
X143695057Y-121208800D01*
X143803914Y-121208800D01*
X143876486Y-121245086D01*
X143912771Y-121281371D01*
X143949057Y-121353943D01*
X143949057Y-121644228D01*
X144275629Y-120918514D02*
X144311914Y-120809657D01*
X144311914Y-120628228D01*
X144275629Y-120555657D01*
X144239343Y-120519371D01*
X144166771Y-120483086D01*
X144094200Y-120483086D01*
X144021629Y-120519371D01*
X143985343Y-120555657D01*
X143949057Y-120628228D01*
X143912771Y-120773371D01*
X143876486Y-120845943D01*
X143840200Y-120882228D01*
X143767629Y-120918514D01*
X143695057Y-120918514D01*
X143622486Y-120882228D01*
X143586200Y-120845943D01*
X143549914Y-120773371D01*
X143549914Y-120591943D01*
X143586200Y-120483086D01*
X143549914Y-120265372D02*
X143549914Y-119829943D01*
X144311914Y-120047657D02*
X143549914Y-120047657D01*
X146089914Y-121716800D02*
X146089914Y-121245086D01*
X146380200Y-121499086D01*
X146380200Y-121390228D01*
X146416486Y-121317657D01*
X146452771Y-121281371D01*
X146525343Y-121245086D01*
X146706771Y-121245086D01*
X146779343Y-121281371D01*
X146815629Y-121317657D01*
X146851914Y-121390228D01*
X146851914Y-121607943D01*
X146815629Y-121680514D01*
X146779343Y-121716800D01*
X146779343Y-120918514D02*
X146815629Y-120882229D01*
X146851914Y-120918514D01*
X146815629Y-120954800D01*
X146779343Y-120918514D01*
X146851914Y-120918514D01*
X146089914Y-120628229D02*
X146089914Y-120156515D01*
X146380200Y-120410515D01*
X146380200Y-120301657D01*
X146416486Y-120229086D01*
X146452771Y-120192800D01*
X146525343Y-120156515D01*
X146706771Y-120156515D01*
X146779343Y-120192800D01*
X146815629Y-120229086D01*
X146851914Y-120301657D01*
X146851914Y-120519372D01*
X146815629Y-120591943D01*
X146779343Y-120628229D01*
X146089914Y-119938801D02*
X146851914Y-119684801D01*
X146089914Y-119430801D01*
X148629914Y-121281371D02*
X148629914Y-121644228D01*
X148992771Y-121680514D01*
X148956486Y-121644228D01*
X148920200Y-121571657D01*
X148920200Y-121390228D01*
X148956486Y-121317657D01*
X148992771Y-121281371D01*
X149065343Y-121245086D01*
X149246771Y-121245086D01*
X149319343Y-121281371D01*
X149355629Y-121317657D01*
X149391914Y-121390228D01*
X149391914Y-121571657D01*
X149355629Y-121644228D01*
X149319343Y-121680514D01*
X148629914Y-121027372D02*
X149391914Y-120773372D01*
X148629914Y-120519372D01*
X151206200Y-121245086D02*
X151169914Y-121317657D01*
X151169914Y-121426514D01*
X151206200Y-121535371D01*
X151278771Y-121607943D01*
X151351343Y-121644228D01*
X151496486Y-121680514D01*
X151605343Y-121680514D01*
X151750486Y-121644228D01*
X151823057Y-121607943D01*
X151895629Y-121535371D01*
X151931914Y-121426514D01*
X151931914Y-121353943D01*
X151895629Y-121245086D01*
X151859343Y-121208800D01*
X151605343Y-121208800D01*
X151605343Y-121353943D01*
X151931914Y-120882228D02*
X151169914Y-120882228D01*
X151931914Y-120446800D01*
X151169914Y-120446800D01*
X151931914Y-120083942D02*
X151169914Y-120083942D01*
X151169914Y-119902514D01*
X151206200Y-119793657D01*
X151278771Y-119721085D01*
X151351343Y-119684800D01*
X151496486Y-119648514D01*
X151605343Y-119648514D01*
X151750486Y-119684800D01*
X151823057Y-119721085D01*
X151895629Y-119793657D01*
X151931914Y-119902514D01*
X151931914Y-120083942D01*
X153746200Y-121245086D02*
X153709914Y-121317657D01*
X153709914Y-121426514D01*
X153746200Y-121535371D01*
X153818771Y-121607943D01*
X153891343Y-121644228D01*
X154036486Y-121680514D01*
X154145343Y-121680514D01*
X154290486Y-121644228D01*
X154363057Y-121607943D01*
X154435629Y-121535371D01*
X154471914Y-121426514D01*
X154471914Y-121353943D01*
X154435629Y-121245086D01*
X154399343Y-121208800D01*
X154145343Y-121208800D01*
X154145343Y-121353943D01*
X154471914Y-120882228D02*
X153709914Y-120882228D01*
X154471914Y-120446800D01*
X153709914Y-120446800D01*
X154471914Y-120083942D02*
X153709914Y-120083942D01*
X153709914Y-119902514D01*
X153746200Y-119793657D01*
X153818771Y-119721085D01*
X153891343Y-119684800D01*
X154036486Y-119648514D01*
X154145343Y-119648514D01*
X154290486Y-119684800D01*
X154363057Y-119721085D01*
X154435629Y-119793657D01*
X154471914Y-119902514D01*
X154471914Y-120083942D01*
X156249914Y-121753086D02*
X157011914Y-121499086D01*
X156249914Y-121245086D01*
X157011914Y-120991085D02*
X156249914Y-120991085D01*
X157011914Y-120628228D02*
X156249914Y-120628228D01*
X157011914Y-120192800D01*
X156249914Y-120192800D01*
X172059600Y-121680514D02*
X172059600Y-121317657D01*
X172277314Y-121753086D02*
X171515314Y-121499086D01*
X172277314Y-121245086D01*
X171769314Y-120664514D02*
X172277314Y-120664514D01*
X171479029Y-120845943D02*
X172023314Y-121027371D01*
X172023314Y-120555657D01*
X169519600Y-121680514D02*
X169519600Y-121317657D01*
X169737314Y-121753086D02*
X168975314Y-121499086D01*
X169737314Y-121245086D01*
X168975314Y-121063657D02*
X168975314Y-120591943D01*
X169265600Y-120845943D01*
X169265600Y-120737085D01*
X169301886Y-120664514D01*
X169338171Y-120628228D01*
X169410743Y-120591943D01*
X169592171Y-120591943D01*
X169664743Y-120628228D01*
X169701029Y-120664514D01*
X169737314Y-120737085D01*
X169737314Y-120954800D01*
X169701029Y-121027371D01*
X169664743Y-121063657D01*
X174599600Y-121680514D02*
X174599600Y-121317657D01*
X174817314Y-121753086D02*
X174055314Y-121499086D01*
X174817314Y-121245086D01*
X174055314Y-120628228D02*
X174055314Y-120991085D01*
X174418171Y-121027371D01*
X174381886Y-120991085D01*
X174345600Y-120918514D01*
X174345600Y-120737085D01*
X174381886Y-120664514D01*
X174418171Y-120628228D01*
X174490743Y-120591943D01*
X174672171Y-120591943D01*
X174744743Y-120628228D01*
X174781029Y-120664514D01*
X174817314Y-120737085D01*
X174817314Y-120918514D01*
X174781029Y-120991085D01*
X174744743Y-121027371D01*
X161899600Y-121680514D02*
X161899600Y-121317657D01*
X162117314Y-121753086D02*
X161355314Y-121499086D01*
X162117314Y-121245086D01*
X161355314Y-120845943D02*
X161355314Y-120773371D01*
X161391600Y-120700800D01*
X161427886Y-120664514D01*
X161500457Y-120628228D01*
X161645600Y-120591943D01*
X161827029Y-120591943D01*
X161972171Y-120628228D01*
X162044743Y-120664514D01*
X162081029Y-120700800D01*
X162117314Y-120773371D01*
X162117314Y-120845943D01*
X162081029Y-120918514D01*
X162044743Y-120954800D01*
X161972171Y-120991085D01*
X161827029Y-121027371D01*
X161645600Y-121027371D01*
X161500457Y-120991085D01*
X161427886Y-120954800D01*
X161391600Y-120918514D01*
X161355314Y-120845943D01*
X164439600Y-121680514D02*
X164439600Y-121317657D01*
X164657314Y-121753086D02*
X163895314Y-121499086D01*
X164657314Y-121245086D01*
X164657314Y-120591943D02*
X164657314Y-121027371D01*
X164657314Y-120809657D02*
X163895314Y-120809657D01*
X164004171Y-120882228D01*
X164076743Y-120954800D01*
X164113029Y-121027371D01*
X166979600Y-121680514D02*
X166979600Y-121317657D01*
X167197314Y-121753086D02*
X166435314Y-121499086D01*
X167197314Y-121245086D01*
X166507886Y-121027371D02*
X166471600Y-120991085D01*
X166435314Y-120918514D01*
X166435314Y-120737085D01*
X166471600Y-120664514D01*
X166507886Y-120628228D01*
X166580457Y-120591943D01*
X166653029Y-120591943D01*
X166761886Y-120628228D01*
X167197314Y-121063657D01*
X167197314Y-120591943D01*
X169737314Y-79037542D02*
X168975314Y-79037542D01*
X168975314Y-78856114D01*
X169011600Y-78747257D01*
X169084171Y-78674685D01*
X169156743Y-78638400D01*
X169301886Y-78602114D01*
X169410743Y-78602114D01*
X169555886Y-78638400D01*
X169628457Y-78674685D01*
X169701029Y-78747257D01*
X169737314Y-78856114D01*
X169737314Y-79037542D01*
X169047886Y-78311828D02*
X169011600Y-78275542D01*
X168975314Y-78202971D01*
X168975314Y-78021542D01*
X169011600Y-77948971D01*
X169047886Y-77912685D01*
X169120457Y-77876400D01*
X169193029Y-77876400D01*
X169301886Y-77912685D01*
X169737314Y-78348114D01*
X169737314Y-77876400D01*
X174817314Y-79037542D02*
X174055314Y-79037542D01*
X174055314Y-78856114D01*
X174091600Y-78747257D01*
X174164171Y-78674685D01*
X174236743Y-78638400D01*
X174381886Y-78602114D01*
X174490743Y-78602114D01*
X174635886Y-78638400D01*
X174708457Y-78674685D01*
X174781029Y-78747257D01*
X174817314Y-78856114D01*
X174817314Y-79037542D01*
X174055314Y-78130400D02*
X174055314Y-78057828D01*
X174091600Y-77985257D01*
X174127886Y-77948971D01*
X174200457Y-77912685D01*
X174345600Y-77876400D01*
X174527029Y-77876400D01*
X174672171Y-77912685D01*
X174744743Y-77948971D01*
X174781029Y-77985257D01*
X174817314Y-78057828D01*
X174817314Y-78130400D01*
X174781029Y-78202971D01*
X174744743Y-78239257D01*
X174672171Y-78275542D01*
X174527029Y-78311828D01*
X174345600Y-78311828D01*
X174200457Y-78275542D01*
X174127886Y-78239257D01*
X174091600Y-78202971D01*
X174055314Y-78130400D01*
X172277314Y-79037542D02*
X171515314Y-79037542D01*
X171515314Y-78856114D01*
X171551600Y-78747257D01*
X171624171Y-78674685D01*
X171696743Y-78638400D01*
X171841886Y-78602114D01*
X171950743Y-78602114D01*
X172095886Y-78638400D01*
X172168457Y-78674685D01*
X172241029Y-78747257D01*
X172277314Y-78856114D01*
X172277314Y-79037542D01*
X172277314Y-77876400D02*
X172277314Y-78311828D01*
X172277314Y-78094114D02*
X171515314Y-78094114D01*
X171624171Y-78166685D01*
X171696743Y-78239257D01*
X171733029Y-78311828D01*
X164657314Y-79037542D02*
X163895314Y-79037542D01*
X163895314Y-78856114D01*
X163931600Y-78747257D01*
X164004171Y-78674685D01*
X164076743Y-78638400D01*
X164221886Y-78602114D01*
X164330743Y-78602114D01*
X164475886Y-78638400D01*
X164548457Y-78674685D01*
X164621029Y-78747257D01*
X164657314Y-78856114D01*
X164657314Y-79037542D01*
X164149314Y-77948971D02*
X164657314Y-77948971D01*
X163859029Y-78130400D02*
X164403314Y-78311828D01*
X164403314Y-77840114D01*
X162117314Y-79037542D02*
X161355314Y-79037542D01*
X161355314Y-78856114D01*
X161391600Y-78747257D01*
X161464171Y-78674685D01*
X161536743Y-78638400D01*
X161681886Y-78602114D01*
X161790743Y-78602114D01*
X161935886Y-78638400D01*
X162008457Y-78674685D01*
X162081029Y-78747257D01*
X162117314Y-78856114D01*
X162117314Y-79037542D01*
X161355314Y-77912685D02*
X161355314Y-78275542D01*
X161718171Y-78311828D01*
X161681886Y-78275542D01*
X161645600Y-78202971D01*
X161645600Y-78021542D01*
X161681886Y-77948971D01*
X161718171Y-77912685D01*
X161790743Y-77876400D01*
X161972171Y-77876400D01*
X162044743Y-77912685D01*
X162081029Y-77948971D01*
X162117314Y-78021542D01*
X162117314Y-78202971D01*
X162081029Y-78275542D01*
X162044743Y-78311828D01*
X159577314Y-79037542D02*
X158815314Y-79037542D01*
X158815314Y-78856114D01*
X158851600Y-78747257D01*
X158924171Y-78674685D01*
X158996743Y-78638400D01*
X159141886Y-78602114D01*
X159250743Y-78602114D01*
X159395886Y-78638400D01*
X159468457Y-78674685D01*
X159541029Y-78747257D01*
X159577314Y-78856114D01*
X159577314Y-79037542D01*
X158815314Y-77948971D02*
X158815314Y-78094114D01*
X158851600Y-78166685D01*
X158887886Y-78202971D01*
X158996743Y-78275542D01*
X159141886Y-78311828D01*
X159432171Y-78311828D01*
X159504743Y-78275542D01*
X159541029Y-78239257D01*
X159577314Y-78166685D01*
X159577314Y-78021542D01*
X159541029Y-77948971D01*
X159504743Y-77912685D01*
X159432171Y-77876400D01*
X159250743Y-77876400D01*
X159178171Y-77912685D01*
X159141886Y-77948971D01*
X159105600Y-78021542D01*
X159105600Y-78166685D01*
X159141886Y-78239257D01*
X159178171Y-78275542D01*
X159250743Y-78311828D01*
X157088114Y-79037542D02*
X156326114Y-79037542D01*
X156326114Y-78856114D01*
X156362400Y-78747257D01*
X156434971Y-78674685D01*
X156507543Y-78638400D01*
X156652686Y-78602114D01*
X156761543Y-78602114D01*
X156906686Y-78638400D01*
X156979257Y-78674685D01*
X157051829Y-78747257D01*
X157088114Y-78856114D01*
X157088114Y-79037542D01*
X156326114Y-78348114D02*
X156326114Y-77840114D01*
X157088114Y-78166685D01*
X167197314Y-79037542D02*
X166435314Y-79037542D01*
X166435314Y-78856114D01*
X166471600Y-78747257D01*
X166544171Y-78674685D01*
X166616743Y-78638400D01*
X166761886Y-78602114D01*
X166870743Y-78602114D01*
X167015886Y-78638400D01*
X167088457Y-78674685D01*
X167161029Y-78747257D01*
X167197314Y-78856114D01*
X167197314Y-79037542D01*
X166435314Y-78348114D02*
X166435314Y-77876400D01*
X166725600Y-78130400D01*
X166725600Y-78021542D01*
X166761886Y-77948971D01*
X166798171Y-77912685D01*
X166870743Y-77876400D01*
X167052171Y-77876400D01*
X167124743Y-77912685D01*
X167161029Y-77948971D01*
X167197314Y-78021542D01*
X167197314Y-78239257D01*
X167161029Y-78311828D01*
X167124743Y-78348114D01*
X147893314Y-79763256D02*
X147131314Y-79763256D01*
X147131314Y-79581828D01*
X147167600Y-79472971D01*
X147240171Y-79400399D01*
X147312743Y-79364114D01*
X147457886Y-79327828D01*
X147566743Y-79327828D01*
X147711886Y-79364114D01*
X147784457Y-79400399D01*
X147857029Y-79472971D01*
X147893314Y-79581828D01*
X147893314Y-79763256D01*
X147893314Y-78602114D02*
X147893314Y-79037542D01*
X147893314Y-78819828D02*
X147131314Y-78819828D01*
X147240171Y-78892399D01*
X147312743Y-78964971D01*
X147349029Y-79037542D01*
X147131314Y-78130400D02*
X147131314Y-78057828D01*
X147167600Y-77985257D01*
X147203886Y-77948971D01*
X147276457Y-77912685D01*
X147421600Y-77876400D01*
X147603029Y-77876400D01*
X147748171Y-77912685D01*
X147820743Y-77948971D01*
X147857029Y-77985257D01*
X147893314Y-78057828D01*
X147893314Y-78130400D01*
X147857029Y-78202971D01*
X147820743Y-78239257D01*
X147748171Y-78275542D01*
X147603029Y-78311828D01*
X147421600Y-78311828D01*
X147276457Y-78275542D01*
X147203886Y-78239257D01*
X147167600Y-78202971D01*
X147131314Y-78130400D01*
X142813314Y-79763256D02*
X142051314Y-79763256D01*
X142051314Y-79581828D01*
X142087600Y-79472971D01*
X142160171Y-79400399D01*
X142232743Y-79364114D01*
X142377886Y-79327828D01*
X142486743Y-79327828D01*
X142631886Y-79364114D01*
X142704457Y-79400399D01*
X142777029Y-79472971D01*
X142813314Y-79581828D01*
X142813314Y-79763256D01*
X142813314Y-78602114D02*
X142813314Y-79037542D01*
X142813314Y-78819828D02*
X142051314Y-78819828D01*
X142160171Y-78892399D01*
X142232743Y-78964971D01*
X142269029Y-79037542D01*
X142123886Y-78311828D02*
X142087600Y-78275542D01*
X142051314Y-78202971D01*
X142051314Y-78021542D01*
X142087600Y-77948971D01*
X142123886Y-77912685D01*
X142196457Y-77876400D01*
X142269029Y-77876400D01*
X142377886Y-77912685D01*
X142813314Y-78348114D01*
X142813314Y-77876400D01*
X150433314Y-79037542D02*
X149671314Y-79037542D01*
X149671314Y-78856114D01*
X149707600Y-78747257D01*
X149780171Y-78674685D01*
X149852743Y-78638400D01*
X149997886Y-78602114D01*
X150106743Y-78602114D01*
X150251886Y-78638400D01*
X150324457Y-78674685D01*
X150397029Y-78747257D01*
X150433314Y-78856114D01*
X150433314Y-79037542D01*
X150433314Y-78239257D02*
X150433314Y-78094114D01*
X150397029Y-78021542D01*
X150360743Y-77985257D01*
X150251886Y-77912685D01*
X150106743Y-77876400D01*
X149816457Y-77876400D01*
X149743886Y-77912685D01*
X149707600Y-77948971D01*
X149671314Y-78021542D01*
X149671314Y-78166685D01*
X149707600Y-78239257D01*
X149743886Y-78275542D01*
X149816457Y-78311828D01*
X149997886Y-78311828D01*
X150070457Y-78275542D01*
X150106743Y-78239257D01*
X150143029Y-78166685D01*
X150143029Y-78021542D01*
X150106743Y-77948971D01*
X150070457Y-77912685D01*
X149997886Y-77876400D01*
X152973314Y-79037542D02*
X152211314Y-79037542D01*
X152211314Y-78856114D01*
X152247600Y-78747257D01*
X152320171Y-78674685D01*
X152392743Y-78638400D01*
X152537886Y-78602114D01*
X152646743Y-78602114D01*
X152791886Y-78638400D01*
X152864457Y-78674685D01*
X152937029Y-78747257D01*
X152973314Y-78856114D01*
X152973314Y-79037542D01*
X152537886Y-78166685D02*
X152501600Y-78239257D01*
X152465314Y-78275542D01*
X152392743Y-78311828D01*
X152356457Y-78311828D01*
X152283886Y-78275542D01*
X152247600Y-78239257D01*
X152211314Y-78166685D01*
X152211314Y-78021542D01*
X152247600Y-77948971D01*
X152283886Y-77912685D01*
X152356457Y-77876400D01*
X152392743Y-77876400D01*
X152465314Y-77912685D01*
X152501600Y-77948971D01*
X152537886Y-78021542D01*
X152537886Y-78166685D01*
X152574171Y-78239257D01*
X152610457Y-78275542D01*
X152683029Y-78311828D01*
X152828171Y-78311828D01*
X152900743Y-78275542D01*
X152937029Y-78239257D01*
X152973314Y-78166685D01*
X152973314Y-78021542D01*
X152937029Y-77948971D01*
X152900743Y-77912685D01*
X152828171Y-77876400D01*
X152683029Y-77876400D01*
X152610457Y-77912685D01*
X152574171Y-77948971D01*
X152537886Y-78021542D01*
X145353314Y-79763256D02*
X144591314Y-79763256D01*
X144591314Y-79581828D01*
X144627600Y-79472971D01*
X144700171Y-79400399D01*
X144772743Y-79364114D01*
X144917886Y-79327828D01*
X145026743Y-79327828D01*
X145171886Y-79364114D01*
X145244457Y-79400399D01*
X145317029Y-79472971D01*
X145353314Y-79581828D01*
X145353314Y-79763256D01*
X145353314Y-78602114D02*
X145353314Y-79037542D01*
X145353314Y-78819828D02*
X144591314Y-78819828D01*
X144700171Y-78892399D01*
X144772743Y-78964971D01*
X144809029Y-79037542D01*
X145353314Y-77876400D02*
X145353314Y-78311828D01*
X145353314Y-78094114D02*
X144591314Y-78094114D01*
X144700171Y-78166685D01*
X144772743Y-78239257D01*
X144809029Y-78311828D01*
X140324114Y-79763256D02*
X139562114Y-79763256D01*
X139562114Y-79581828D01*
X139598400Y-79472971D01*
X139670971Y-79400399D01*
X139743543Y-79364114D01*
X139888686Y-79327828D01*
X139997543Y-79327828D01*
X140142686Y-79364114D01*
X140215257Y-79400399D01*
X140287829Y-79472971D01*
X140324114Y-79581828D01*
X140324114Y-79763256D01*
X140324114Y-78602114D02*
X140324114Y-79037542D01*
X140324114Y-78819828D02*
X139562114Y-78819828D01*
X139670971Y-78892399D01*
X139743543Y-78964971D01*
X139779829Y-79037542D01*
X139562114Y-78348114D02*
X139562114Y-77876400D01*
X139852400Y-78130400D01*
X139852400Y-78021542D01*
X139888686Y-77948971D01*
X139924971Y-77912685D01*
X139997543Y-77876400D01*
X140178971Y-77876400D01*
X140251543Y-77912685D01*
X140287829Y-77948971D01*
X140324114Y-78021542D01*
X140324114Y-78239257D01*
X140287829Y-78311828D01*
X140251543Y-78348114D01*
X137007600Y-79472972D02*
X136971314Y-79545543D01*
X136971314Y-79654400D01*
X137007600Y-79763257D01*
X137080171Y-79835829D01*
X137152743Y-79872114D01*
X137297886Y-79908400D01*
X137406743Y-79908400D01*
X137551886Y-79872114D01*
X137624457Y-79835829D01*
X137697029Y-79763257D01*
X137733314Y-79654400D01*
X137733314Y-79581829D01*
X137697029Y-79472972D01*
X137660743Y-79436686D01*
X137406743Y-79436686D01*
X137406743Y-79581829D01*
X137733314Y-79110114D02*
X136971314Y-79110114D01*
X137733314Y-78674686D01*
X136971314Y-78674686D01*
X137733314Y-78311828D02*
X136971314Y-78311828D01*
X136971314Y-78130400D01*
X137007600Y-78021543D01*
X137080171Y-77948971D01*
X137152743Y-77912686D01*
X137297886Y-77876400D01*
X137406743Y-77876400D01*
X137551886Y-77912686D01*
X137624457Y-77948971D01*
X137697029Y-78021543D01*
X137733314Y-78130400D01*
X137733314Y-78311828D01*
X132617029Y-79726971D02*
X132653314Y-79618114D01*
X132653314Y-79436685D01*
X132617029Y-79364114D01*
X132580743Y-79327828D01*
X132508171Y-79291543D01*
X132435600Y-79291543D01*
X132363029Y-79327828D01*
X132326743Y-79364114D01*
X132290457Y-79436685D01*
X132254171Y-79581828D01*
X132217886Y-79654400D01*
X132181600Y-79690685D01*
X132109029Y-79726971D01*
X132036457Y-79726971D01*
X131963886Y-79690685D01*
X131927600Y-79654400D01*
X131891314Y-79581828D01*
X131891314Y-79400400D01*
X131927600Y-79291543D01*
X132653314Y-78964971D02*
X131891314Y-78964971D01*
X131891314Y-78783543D01*
X131927600Y-78674686D01*
X132000171Y-78602114D01*
X132072743Y-78565829D01*
X132217886Y-78529543D01*
X132326743Y-78529543D01*
X132471886Y-78565829D01*
X132544457Y-78602114D01*
X132617029Y-78674686D01*
X132653314Y-78783543D01*
X132653314Y-78964971D01*
X132435600Y-78239257D02*
X132435600Y-77876400D01*
X132653314Y-78311829D02*
X131891314Y-78057829D01*
X132653314Y-77803829D01*
X134975600Y-80343829D02*
X134975600Y-79980972D01*
X135193314Y-80416401D02*
X134431314Y-80162401D01*
X135193314Y-79908401D01*
X135193314Y-79218972D02*
X134830457Y-79472972D01*
X135193314Y-79654400D02*
X134431314Y-79654400D01*
X134431314Y-79364115D01*
X134467600Y-79291543D01*
X134503886Y-79255258D01*
X134576457Y-79218972D01*
X134685314Y-79218972D01*
X134757886Y-79255258D01*
X134794171Y-79291543D01*
X134830457Y-79364115D01*
X134830457Y-79654400D01*
X134794171Y-78892400D02*
X134794171Y-78638400D01*
X135193314Y-78529543D02*
X135193314Y-78892400D01*
X134431314Y-78892400D01*
X134431314Y-78529543D01*
X134794171Y-77948971D02*
X134794171Y-78202971D01*
X135193314Y-78202971D02*
X134431314Y-78202971D01*
X134431314Y-77840114D01*
X130127829Y-79690685D02*
X130164114Y-79581828D01*
X130164114Y-79400399D01*
X130127829Y-79327828D01*
X130091543Y-79291542D01*
X130018971Y-79255257D01*
X129946400Y-79255257D01*
X129873829Y-79291542D01*
X129837543Y-79327828D01*
X129801257Y-79400399D01*
X129764971Y-79545542D01*
X129728686Y-79618114D01*
X129692400Y-79654399D01*
X129619829Y-79690685D01*
X129547257Y-79690685D01*
X129474686Y-79654399D01*
X129438400Y-79618114D01*
X129402114Y-79545542D01*
X129402114Y-79364114D01*
X129438400Y-79255257D01*
X130091543Y-78493257D02*
X130127829Y-78529543D01*
X130164114Y-78638400D01*
X130164114Y-78710971D01*
X130127829Y-78819828D01*
X130055257Y-78892400D01*
X129982686Y-78928685D01*
X129837543Y-78964971D01*
X129728686Y-78964971D01*
X129583543Y-78928685D01*
X129510971Y-78892400D01*
X129438400Y-78819828D01*
X129402114Y-78710971D01*
X129402114Y-78638400D01*
X129438400Y-78529543D01*
X129474686Y-78493257D01*
X130164114Y-77803828D02*
X130164114Y-78166685D01*
X129402114Y-78166685D01*
D12*
X169802381Y-88184073D02*
X170516667Y-88184073D01*
X170659524Y-88231693D01*
X170754762Y-88326931D01*
X170802381Y-88469788D01*
X170802381Y-88565026D01*
X170802381Y-87184073D02*
X170802381Y-87755502D01*
X170802381Y-87469788D02*
X169802381Y-87469788D01*
X169945238Y-87565026D01*
X170040476Y-87660264D01*
X170088095Y-87755502D01*
X120443667Y-122586181D02*
X120443667Y-123300467D01*
X120396047Y-123443324D01*
X120300809Y-123538562D01*
X120157952Y-123586181D01*
X120062714Y-123586181D01*
X120872238Y-122681419D02*
X120919857Y-122633800D01*
X121015095Y-122586181D01*
X121253191Y-122586181D01*
X121348429Y-122633800D01*
X121396048Y-122681419D01*
X121443667Y-122776657D01*
X121443667Y-122871895D01*
X121396048Y-123014752D01*
X120824619Y-123586181D01*
X121443667Y-123586181D01*
X113179267Y-111765781D02*
X113179267Y-112480067D01*
X113131647Y-112622924D01*
X113036409Y-112718162D01*
X112893552Y-112765781D01*
X112798314Y-112765781D01*
X113560219Y-111765781D02*
X114179267Y-111765781D01*
X113845933Y-112146733D01*
X113988791Y-112146733D01*
X114084029Y-112194352D01*
X114131648Y-112241971D01*
X114179267Y-112337210D01*
X114179267Y-112575305D01*
X114131648Y-112670543D01*
X114084029Y-112718162D01*
X113988791Y-112765781D01*
X113703076Y-112765781D01*
X113607838Y-112718162D01*
X113560219Y-112670543D01*
M02*
