G04 #@! TF.FileFunction,Copper,L1,Top,Signal*
%FSLAX46Y46*%
G04 Gerber Fmt 4.6, Leading zero omitted, Abs format (unit mm)*
G04 Created by KiCad (PCBNEW 4.0.1-3.201512221402+6198~38~ubuntu14.04.1-stable) date Tue 03 May 2016 12:22:43 PM PDT*
%MOMM*%
G01*
G04 APERTURE LIST*
%ADD10C,0.100000*%
%ADD11O,1.727200X2.032000*%
%ADD12C,1.727200*%
%ADD13C,4.064000*%
%ADD14R,1.500000X1.000000*%
%ADD15R,2.200000X1.200000*%
%ADD16R,2.032000X1.727200*%
%ADD17O,2.032000X1.727200*%
%ADD18C,2.235200*%
%ADD19C,0.685800*%
%ADD20C,0.508000*%
%ADD21C,0.254000*%
G04 APERTURE END LIST*
D10*
D11*
X138887200Y-123825000D03*
X141427200Y-123825000D03*
X143967200Y-123825000D03*
X146507200Y-123825000D03*
X149047200Y-123825000D03*
X151587200Y-123825000D03*
X154127200Y-123825000D03*
X156667200Y-123825000D03*
X161772600Y-123825000D03*
X164312600Y-123825000D03*
X166852600Y-123825000D03*
X174472600Y-123825000D03*
X171932600Y-123825000D03*
X169392600Y-123825000D03*
X171932600Y-75565000D03*
X174472600Y-75565000D03*
X161772600Y-75565000D03*
X164312600Y-75565000D03*
X159232600Y-75565000D03*
X156692600Y-75565000D03*
X166852600Y-75565000D03*
X169392600Y-75565000D03*
X139928600Y-75565000D03*
X142468600Y-75565000D03*
X145008600Y-75565000D03*
X152628600Y-75565000D03*
X150088600Y-75565000D03*
X147548600Y-75565000D03*
X134848600Y-75565000D03*
X137388600Y-75565000D03*
X129768600Y-75565000D03*
X132308600Y-75565000D03*
D12*
X126187200Y-75615800D03*
D13*
X124968000Y-123825000D03*
X177038000Y-118745000D03*
X126238000Y-75565000D03*
X177038000Y-90805000D03*
D14*
X150418800Y-90939600D03*
X150418800Y-93439600D03*
X150418800Y-96739600D03*
X150418800Y-98439600D03*
X150418800Y-100939600D03*
X150418800Y-103439600D03*
X150418800Y-105864600D03*
X150418800Y-107564600D03*
X150418800Y-88439600D03*
X150418800Y-95089600D03*
X150418800Y-110914600D03*
D15*
X171418800Y-83414600D03*
X172618800Y-111414600D03*
D16*
X120777000Y-118033800D03*
D17*
X120777000Y-115493800D03*
X120777000Y-112953800D03*
X120777000Y-110413800D03*
X120777000Y-107873800D03*
X120777000Y-105333800D03*
X120777000Y-102793800D03*
X120777000Y-100253800D03*
X120777000Y-97713800D03*
X120777000Y-95173800D03*
X120777000Y-92633800D03*
X120777000Y-90093800D03*
X120777000Y-87553800D03*
X120777000Y-85013800D03*
X120777000Y-82473800D03*
X120777000Y-79933800D03*
D16*
X113512600Y-107213400D03*
D17*
X113512600Y-104673400D03*
X113512600Y-102133400D03*
X113512600Y-99593400D03*
X113512600Y-97053400D03*
X113512600Y-94513400D03*
D18*
X174498000Y-78867000D03*
X161798000Y-118745000D03*
X171958000Y-78867000D03*
X132334000Y-78867000D03*
X164338000Y-78867000D03*
X129794000Y-78867000D03*
D19*
X134874000Y-119380000D03*
X134874000Y-110490000D03*
X135128000Y-98552000D03*
X148082000Y-90932000D03*
X145034000Y-92964000D03*
X140970000Y-100838000D03*
X142494000Y-105156000D03*
X162052000Y-82042000D03*
X131826000Y-82042000D03*
X130733800Y-107873800D03*
X166624000Y-116840000D03*
X152654000Y-86868000D03*
X124460000Y-115824000D03*
X150368000Y-85598000D03*
X156718000Y-84074000D03*
X159258000Y-82804000D03*
D20*
X146507200Y-123825000D02*
X146507200Y-122301000D01*
X146507200Y-122301000D02*
X143586200Y-119380000D01*
X143586200Y-119380000D02*
X143256000Y-119380000D01*
X146507200Y-123672600D02*
X146507200Y-123825000D01*
X134874000Y-119380000D02*
X143256000Y-119380000D01*
X122377200Y-110490000D02*
X134874000Y-110490000D01*
X120777000Y-110413800D02*
X122301000Y-110413800D01*
X122301000Y-110413800D02*
X122377200Y-110490000D01*
D21*
X135128000Y-98552000D02*
X150306400Y-98552000D01*
X150306400Y-98552000D02*
X150418800Y-98439600D01*
X132334000Y-78867000D02*
X132334000Y-75590400D01*
X132334000Y-75590400D02*
X132308600Y-75565000D01*
X129794000Y-78867000D02*
X129794000Y-75590400D01*
X129794000Y-75590400D02*
X129768600Y-75565000D01*
X149407200Y-90932000D02*
X148082000Y-90932000D01*
X150418800Y-90939600D02*
X149414800Y-90939600D01*
X149414800Y-90939600D02*
X149407200Y-90932000D01*
X145034000Y-92964000D02*
X145509600Y-93439600D01*
X145509600Y-93439600D02*
X150418800Y-93439600D01*
X141122400Y-100939600D02*
X141020800Y-100838000D01*
X141020800Y-100838000D02*
X140970000Y-100838000D01*
X150418800Y-100939600D02*
X141122400Y-100939600D01*
X143202600Y-105864600D02*
X142494000Y-105156000D01*
X150418800Y-105864600D02*
X143202600Y-105864600D01*
D20*
X120777000Y-118033800D02*
X145465800Y-118033800D01*
X145465800Y-118033800D02*
X149047200Y-121615200D01*
X149047200Y-121615200D02*
X149047200Y-123825000D01*
D21*
X131826000Y-82042000D02*
X162052000Y-82042000D01*
X120777000Y-107873800D02*
X130733800Y-107873800D01*
X169392600Y-123825000D02*
X169392600Y-122555000D01*
X169392600Y-122555000D02*
X160375600Y-113538000D01*
X160375600Y-113538000D02*
X143256000Y-113538000D01*
X143256000Y-113538000D02*
X135178810Y-105460810D01*
X122174010Y-105460810D02*
X122047000Y-105333800D01*
X135178810Y-105460810D02*
X122174010Y-105460810D01*
X122047000Y-105333800D02*
X120777000Y-105333800D01*
X162306000Y-112522000D02*
X166624000Y-116840000D01*
X161544000Y-112522000D02*
X162306000Y-112522000D01*
X144272000Y-112522000D02*
X161544000Y-112522000D01*
X143764000Y-112014000D02*
X144272000Y-112522000D01*
X134543800Y-102793800D02*
X143764000Y-112014000D01*
X120777000Y-102793800D02*
X134543800Y-102793800D01*
X134315200Y-86868000D02*
X152654000Y-86868000D01*
X120777000Y-100253800D02*
X120929400Y-100253800D01*
X120929400Y-100253800D02*
X134315200Y-86868000D01*
X164312600Y-123825000D02*
X164312600Y-119761000D01*
X164312600Y-119761000D02*
X164312600Y-119608600D01*
X124460000Y-115824000D02*
X161290000Y-115824000D01*
X161290000Y-115824000D02*
X164312600Y-118846600D01*
X164312600Y-118846600D02*
X164312600Y-119761000D01*
X132080000Y-85598000D02*
X150368000Y-85598000D01*
X122504200Y-95173800D02*
X132080000Y-85598000D01*
X120777000Y-95173800D02*
X122504200Y-95173800D01*
X130606800Y-84074000D02*
X156718000Y-84074000D01*
X120777000Y-92633800D02*
X122047000Y-92633800D01*
X122047000Y-92633800D02*
X130606800Y-84074000D01*
X128219200Y-82804000D02*
X159258000Y-82804000D01*
X120777000Y-90093800D02*
X120929400Y-90093800D01*
X120929400Y-90093800D02*
X128219200Y-82804000D01*
X113512600Y-104673400D02*
X114782600Y-104673400D01*
X114782600Y-104673400D02*
X117094000Y-102362000D01*
X124714000Y-79756000D02*
X125984000Y-79756000D01*
X117094000Y-102362000D02*
X117094000Y-78740000D01*
X125984000Y-79756000D02*
X127508000Y-81280000D01*
X117094000Y-78740000D02*
X118618000Y-77216000D01*
X166370000Y-81280000D02*
X169392600Y-78257400D01*
X118618000Y-77216000D02*
X122174000Y-77216000D01*
X122174000Y-77216000D02*
X124714000Y-79756000D01*
X169392600Y-78257400D02*
X169392600Y-75565000D01*
X127508000Y-81280000D02*
X166370000Y-81280000D01*
X113512600Y-102133400D02*
X114782600Y-102133400D01*
X122174000Y-76200000D02*
X124968000Y-78994000D01*
X114782600Y-102133400D02*
X116078000Y-100838000D01*
X116078000Y-78232000D02*
X118110000Y-76200000D01*
X116078000Y-100838000D02*
X116078000Y-78232000D01*
X118110000Y-76200000D02*
X122174000Y-76200000D01*
X124968000Y-78994000D02*
X126746000Y-78994000D01*
X126746000Y-78994000D02*
X128117601Y-80365601D01*
X128117601Y-80365601D02*
X165057329Y-80365601D01*
X166852600Y-78570330D02*
X166852600Y-76835000D01*
X165057329Y-80365601D02*
X166852600Y-78570330D01*
X166852600Y-76835000D02*
X166852600Y-75565000D01*
X161798000Y-121031000D02*
X161798000Y-123799600D01*
X161798000Y-121031000D02*
X161798000Y-118745000D01*
X161798000Y-120777000D02*
X161798000Y-121031000D01*
X161798000Y-123799600D02*
X161772600Y-123825000D01*
X171958000Y-78867000D02*
X171958000Y-75590400D01*
X171958000Y-75590400D02*
X171932600Y-75565000D01*
X174498000Y-78867000D02*
X174498000Y-75590400D01*
X174498000Y-75590400D02*
X174472600Y-75565000D01*
X164338000Y-78867000D02*
X164338000Y-75590400D01*
X164338000Y-75590400D02*
X164312600Y-75565000D01*
G36*
X176328000Y-74907606D02*
X176328000Y-85979000D01*
X176382046Y-86250705D01*
X176403000Y-86282065D01*
X176403000Y-86360000D01*
X176413006Y-86409410D01*
X176440197Y-86449803D01*
X178525110Y-88534716D01*
X177570827Y-88138464D01*
X176509828Y-88137538D01*
X175529239Y-88542709D01*
X174778345Y-89292293D01*
X174371464Y-90272173D01*
X174370538Y-91333172D01*
X174775709Y-92313761D01*
X175525293Y-93064655D01*
X176505173Y-93471536D01*
X177566172Y-93472462D01*
X178546761Y-93067291D01*
X178868000Y-92746612D01*
X178868000Y-116803193D01*
X178550707Y-116485345D01*
X177570827Y-116078464D01*
X176509828Y-116077538D01*
X175529239Y-116482709D01*
X174778345Y-117232293D01*
X174371464Y-118212173D01*
X174370538Y-119273172D01*
X174775709Y-120253761D01*
X175525293Y-121004655D01*
X176505173Y-121411536D01*
X177566172Y-121412462D01*
X178546761Y-121007291D01*
X178868000Y-120686612D01*
X178868000Y-120990909D01*
X176535954Y-123322954D01*
X176382046Y-123553295D01*
X176328000Y-123825000D01*
X176328000Y-125603000D01*
X126961898Y-125603000D01*
X127227655Y-125337707D01*
X127634536Y-124357827D01*
X127635462Y-123296828D01*
X127230291Y-122316239D01*
X126480707Y-121565345D01*
X125500827Y-121158464D01*
X124439828Y-121157538D01*
X123459239Y-121562709D01*
X122708345Y-122312293D01*
X122301464Y-123292173D01*
X122300538Y-124353172D01*
X122705709Y-125333761D01*
X122974479Y-125603000D01*
X111887000Y-125603000D01*
X111887000Y-115493800D01*
X119093655Y-115493800D01*
X119207729Y-116067289D01*
X119532585Y-116553470D01*
X119546913Y-116563043D01*
X119525683Y-116567038D01*
X119309559Y-116706110D01*
X119164569Y-116918310D01*
X119113560Y-117170200D01*
X119113560Y-118897400D01*
X119157838Y-119132717D01*
X119296910Y-119348841D01*
X119509110Y-119493831D01*
X119761000Y-119544840D01*
X121793000Y-119544840D01*
X122028317Y-119500562D01*
X122244441Y-119361490D01*
X122389431Y-119149290D01*
X122435296Y-118922800D01*
X134004991Y-118922800D01*
X133896270Y-119184630D01*
X133895931Y-119573663D01*
X134044493Y-119933212D01*
X134319341Y-120208540D01*
X134678630Y-120357730D01*
X135067663Y-120358069D01*
X135283227Y-120269000D01*
X143217964Y-120269000D01*
X145496697Y-122547733D01*
X145447530Y-122580585D01*
X145237200Y-122895366D01*
X145026870Y-122580585D01*
X144540689Y-122255729D01*
X143967200Y-122141655D01*
X143393711Y-122255729D01*
X142907530Y-122580585D01*
X142697200Y-122895366D01*
X142486870Y-122580585D01*
X142000689Y-122255729D01*
X141427200Y-122141655D01*
X140853711Y-122255729D01*
X140367530Y-122580585D01*
X140157200Y-122895366D01*
X139946870Y-122580585D01*
X139460689Y-122255729D01*
X138887200Y-122141655D01*
X138313711Y-122255729D01*
X137827530Y-122580585D01*
X137502674Y-123066766D01*
X137388600Y-123640255D01*
X137388600Y-124009745D01*
X137502674Y-124583234D01*
X137827530Y-125069415D01*
X138313711Y-125394271D01*
X138887200Y-125508345D01*
X139460689Y-125394271D01*
X139946870Y-125069415D01*
X140157200Y-124754634D01*
X140367530Y-125069415D01*
X140853711Y-125394271D01*
X141427200Y-125508345D01*
X142000689Y-125394271D01*
X142486870Y-125069415D01*
X142697200Y-124754634D01*
X142907530Y-125069415D01*
X143393711Y-125394271D01*
X143967200Y-125508345D01*
X144540689Y-125394271D01*
X145026870Y-125069415D01*
X145237200Y-124754634D01*
X145447530Y-125069415D01*
X145933711Y-125394271D01*
X146507200Y-125508345D01*
X147080689Y-125394271D01*
X147566870Y-125069415D01*
X147777200Y-124754634D01*
X147987530Y-125069415D01*
X148473711Y-125394271D01*
X149047200Y-125508345D01*
X149620689Y-125394271D01*
X150106870Y-125069415D01*
X150313661Y-124759931D01*
X150685164Y-125175732D01*
X151212409Y-125429709D01*
X151228174Y-125432358D01*
X151460200Y-125311217D01*
X151460200Y-123952000D01*
X151714200Y-123952000D01*
X151714200Y-125311217D01*
X151946226Y-125432358D01*
X151961991Y-125429709D01*
X152489236Y-125175732D01*
X152857200Y-124763892D01*
X153225164Y-125175732D01*
X153752409Y-125429709D01*
X153768174Y-125432358D01*
X154000200Y-125311217D01*
X154000200Y-123952000D01*
X151714200Y-123952000D01*
X151460200Y-123952000D01*
X151440200Y-123952000D01*
X151440200Y-123698000D01*
X151460200Y-123698000D01*
X151460200Y-122338783D01*
X151714200Y-122338783D01*
X151714200Y-123698000D01*
X154000200Y-123698000D01*
X154000200Y-122338783D01*
X154254200Y-122338783D01*
X154254200Y-123698000D01*
X154274200Y-123698000D01*
X154274200Y-123952000D01*
X154254200Y-123952000D01*
X154254200Y-125311217D01*
X154486226Y-125432358D01*
X154501991Y-125429709D01*
X155029236Y-125175732D01*
X155400739Y-124759931D01*
X155607530Y-125069415D01*
X156093711Y-125394271D01*
X156667200Y-125508345D01*
X157240689Y-125394271D01*
X157726870Y-125069415D01*
X158051726Y-124583234D01*
X158165800Y-124009745D01*
X158165800Y-123640255D01*
X158051726Y-123066766D01*
X157726870Y-122580585D01*
X157240689Y-122255729D01*
X156667200Y-122141655D01*
X156093711Y-122255729D01*
X155607530Y-122580585D01*
X155400739Y-122890069D01*
X155029236Y-122474268D01*
X154501991Y-122220291D01*
X154486226Y-122217642D01*
X154254200Y-122338783D01*
X154000200Y-122338783D01*
X153768174Y-122217642D01*
X153752409Y-122220291D01*
X153225164Y-122474268D01*
X152857200Y-122886108D01*
X152489236Y-122474268D01*
X151961991Y-122220291D01*
X151946226Y-122217642D01*
X151714200Y-122338783D01*
X151460200Y-122338783D01*
X151228174Y-122217642D01*
X151212409Y-122220291D01*
X150685164Y-122474268D01*
X150313661Y-122890069D01*
X150106870Y-122580585D01*
X149936200Y-122466547D01*
X149936200Y-121615200D01*
X149868529Y-121274994D01*
X149675818Y-120986582D01*
X146094418Y-117405182D01*
X145877265Y-117260085D01*
X145806006Y-117212471D01*
X145465800Y-117144800D01*
X122435661Y-117144800D01*
X122396162Y-116934883D01*
X122257090Y-116718759D01*
X122044890Y-116573769D01*
X122003561Y-116565400D01*
X122021415Y-116553470D01*
X122346271Y-116067289D01*
X122460345Y-115493800D01*
X122346271Y-114920311D01*
X122021415Y-114434130D01*
X121711931Y-114227339D01*
X122127732Y-113855836D01*
X122381709Y-113328591D01*
X122384358Y-113312826D01*
X122263217Y-113080800D01*
X120904000Y-113080800D01*
X120904000Y-113100800D01*
X120650000Y-113100800D01*
X120650000Y-113080800D01*
X119290783Y-113080800D01*
X119169642Y-113312826D01*
X119172291Y-113328591D01*
X119426268Y-113855836D01*
X119842069Y-114227339D01*
X119532585Y-114434130D01*
X119207729Y-114920311D01*
X119093655Y-115493800D01*
X111887000Y-115493800D01*
X111887000Y-108278102D01*
X111893438Y-108312317D01*
X112032510Y-108528441D01*
X112244710Y-108673431D01*
X112496600Y-108724440D01*
X114528600Y-108724440D01*
X114763917Y-108680162D01*
X114980041Y-108541090D01*
X115125031Y-108328890D01*
X115176040Y-108077000D01*
X115176040Y-106349800D01*
X115131762Y-106114483D01*
X114992690Y-105898359D01*
X114780490Y-105753369D01*
X114739161Y-105745000D01*
X114757015Y-105733070D01*
X114982477Y-105395642D01*
X115074205Y-105377396D01*
X115321415Y-105212215D01*
X117632815Y-102900816D01*
X117797996Y-102653605D01*
X117843467Y-102425005D01*
X117856000Y-102362000D01*
X117856000Y-79055630D01*
X118933631Y-77978000D01*
X121858370Y-77978000D01*
X124175184Y-80294815D01*
X124281123Y-80365601D01*
X124422395Y-80459996D01*
X124714000Y-80518000D01*
X125668370Y-80518000D01*
X126969184Y-81818815D01*
X127202173Y-81974493D01*
X127216395Y-81983996D01*
X127508000Y-82042000D01*
X128219200Y-82042000D01*
X127927595Y-82100004D01*
X127760823Y-82211438D01*
X127680385Y-82265185D01*
X122448968Y-87496602D01*
X122346271Y-86980311D01*
X122021415Y-86494130D01*
X121706634Y-86283800D01*
X122021415Y-86073470D01*
X122346271Y-85587289D01*
X122460345Y-85013800D01*
X122346271Y-84440311D01*
X122021415Y-83954130D01*
X121706634Y-83743800D01*
X122021415Y-83533470D01*
X122346271Y-83047289D01*
X122460345Y-82473800D01*
X122346271Y-81900311D01*
X122021415Y-81414130D01*
X121706634Y-81203800D01*
X122021415Y-80993470D01*
X122346271Y-80507289D01*
X122460345Y-79933800D01*
X122346271Y-79360311D01*
X122021415Y-78874130D01*
X121535234Y-78549274D01*
X120961745Y-78435200D01*
X120592255Y-78435200D01*
X120018766Y-78549274D01*
X119532585Y-78874130D01*
X119207729Y-79360311D01*
X119093655Y-79933800D01*
X119207729Y-80507289D01*
X119532585Y-80993470D01*
X119847366Y-81203800D01*
X119532585Y-81414130D01*
X119207729Y-81900311D01*
X119093655Y-82473800D01*
X119207729Y-83047289D01*
X119532585Y-83533470D01*
X119847366Y-83743800D01*
X119532585Y-83954130D01*
X119207729Y-84440311D01*
X119093655Y-85013800D01*
X119207729Y-85587289D01*
X119532585Y-86073470D01*
X119847366Y-86283800D01*
X119532585Y-86494130D01*
X119207729Y-86980311D01*
X119093655Y-87553800D01*
X119207729Y-88127289D01*
X119532585Y-88613470D01*
X119847366Y-88823800D01*
X119532585Y-89034130D01*
X119207729Y-89520311D01*
X119093655Y-90093800D01*
X119207729Y-90667289D01*
X119532585Y-91153470D01*
X119847366Y-91363800D01*
X119532585Y-91574130D01*
X119207729Y-92060311D01*
X119093655Y-92633800D01*
X119207729Y-93207289D01*
X119532585Y-93693470D01*
X119847366Y-93903800D01*
X119532585Y-94114130D01*
X119207729Y-94600311D01*
X119093655Y-95173800D01*
X119207729Y-95747289D01*
X119532585Y-96233470D01*
X119847366Y-96443800D01*
X119532585Y-96654130D01*
X119207729Y-97140311D01*
X119093655Y-97713800D01*
X119207729Y-98287289D01*
X119532585Y-98773470D01*
X119847366Y-98983800D01*
X119532585Y-99194130D01*
X119207729Y-99680311D01*
X119093655Y-100253800D01*
X119207729Y-100827289D01*
X119532585Y-101313470D01*
X119847366Y-101523800D01*
X119532585Y-101734130D01*
X119207729Y-102220311D01*
X119093655Y-102793800D01*
X119207729Y-103367289D01*
X119532585Y-103853470D01*
X119847366Y-104063800D01*
X119532585Y-104274130D01*
X119207729Y-104760311D01*
X119093655Y-105333800D01*
X119207729Y-105907289D01*
X119532585Y-106393470D01*
X119847366Y-106603800D01*
X119532585Y-106814130D01*
X119207729Y-107300311D01*
X119093655Y-107873800D01*
X119207729Y-108447289D01*
X119532585Y-108933470D01*
X119847366Y-109143800D01*
X119532585Y-109354130D01*
X119207729Y-109840311D01*
X119093655Y-110413800D01*
X119207729Y-110987289D01*
X119532585Y-111473470D01*
X119842069Y-111680261D01*
X119426268Y-112051764D01*
X119172291Y-112579009D01*
X119169642Y-112594774D01*
X119290783Y-112826800D01*
X120650000Y-112826800D01*
X120650000Y-112806800D01*
X120904000Y-112806800D01*
X120904000Y-112826800D01*
X122263217Y-112826800D01*
X122384358Y-112594774D01*
X122381709Y-112579009D01*
X122127732Y-112051764D01*
X121711931Y-111680261D01*
X122021415Y-111473470D01*
X122118872Y-111327615D01*
X122377200Y-111379000D01*
X134464945Y-111379000D01*
X134678630Y-111467730D01*
X135067663Y-111468069D01*
X135427212Y-111319507D01*
X135702540Y-111044659D01*
X135851730Y-110685370D01*
X135852069Y-110296337D01*
X135703507Y-109936788D01*
X135428659Y-109661460D01*
X135069370Y-109512270D01*
X134680337Y-109511931D01*
X134464773Y-109601000D01*
X122653971Y-109601000D01*
X122641206Y-109592471D01*
X122301000Y-109524800D01*
X122135453Y-109524800D01*
X122021415Y-109354130D01*
X121706634Y-109143800D01*
X122021415Y-108933470D01*
X122220312Y-108635800D01*
X130112717Y-108635800D01*
X130179141Y-108702340D01*
X130538430Y-108851530D01*
X130927463Y-108851869D01*
X131287012Y-108703307D01*
X131562340Y-108428459D01*
X131711530Y-108069170D01*
X131711869Y-107680137D01*
X131563307Y-107320588D01*
X131288459Y-107045260D01*
X130929170Y-106896070D01*
X130540137Y-106895731D01*
X130180588Y-107044293D01*
X130112963Y-107111800D01*
X122220312Y-107111800D01*
X122021415Y-106814130D01*
X121706634Y-106603800D01*
X122021415Y-106393470D01*
X122139971Y-106216039D01*
X122174010Y-106222810D01*
X134863180Y-106222810D01*
X142717185Y-114076816D01*
X142865377Y-114175834D01*
X142964395Y-114241996D01*
X143256000Y-114300000D01*
X160059970Y-114300000D01*
X160821970Y-115062000D01*
X125081083Y-115062000D01*
X125014659Y-114995460D01*
X124655370Y-114846270D01*
X124266337Y-114845931D01*
X123906788Y-114994493D01*
X123631460Y-115269341D01*
X123482270Y-115628630D01*
X123481931Y-116017663D01*
X123630493Y-116377212D01*
X123905341Y-116652540D01*
X124264630Y-116801730D01*
X124653663Y-116802069D01*
X125013212Y-116653507D01*
X125080837Y-116586000D01*
X160974370Y-116586000D01*
X161401065Y-117012695D01*
X160806529Y-117258352D01*
X160313085Y-117750936D01*
X160045705Y-118394857D01*
X160045097Y-119092084D01*
X160311352Y-119736471D01*
X160803936Y-120229915D01*
X161036000Y-120326277D01*
X161036000Y-122364716D01*
X160712930Y-122580585D01*
X160388074Y-123066766D01*
X160274000Y-123640255D01*
X160274000Y-124009745D01*
X160388074Y-124583234D01*
X160712930Y-125069415D01*
X161199111Y-125394271D01*
X161772600Y-125508345D01*
X162346089Y-125394271D01*
X162832270Y-125069415D01*
X163042600Y-124754634D01*
X163252930Y-125069415D01*
X163739111Y-125394271D01*
X164312600Y-125508345D01*
X164886089Y-125394271D01*
X165372270Y-125069415D01*
X165582600Y-124754634D01*
X165792930Y-125069415D01*
X166279111Y-125394271D01*
X166852600Y-125508345D01*
X167426089Y-125394271D01*
X167912270Y-125069415D01*
X168122600Y-124754634D01*
X168332930Y-125069415D01*
X168819111Y-125394271D01*
X169392600Y-125508345D01*
X169966089Y-125394271D01*
X170452270Y-125069415D01*
X170662600Y-124754634D01*
X170872930Y-125069415D01*
X171359111Y-125394271D01*
X171932600Y-125508345D01*
X172506089Y-125394271D01*
X172992270Y-125069415D01*
X173202600Y-124754634D01*
X173412930Y-125069415D01*
X173899111Y-125394271D01*
X174472600Y-125508345D01*
X175046089Y-125394271D01*
X175532270Y-125069415D01*
X175857126Y-124583234D01*
X175971200Y-124009745D01*
X175971200Y-123640255D01*
X175857126Y-123066766D01*
X175532270Y-122580585D01*
X175046089Y-122255729D01*
X174472600Y-122141655D01*
X173899111Y-122255729D01*
X173412930Y-122580585D01*
X173202600Y-122895366D01*
X172992270Y-122580585D01*
X172506089Y-122255729D01*
X171932600Y-122141655D01*
X171359111Y-122255729D01*
X170872930Y-122580585D01*
X170662600Y-122895366D01*
X170452270Y-122580585D01*
X170114842Y-122355123D01*
X170096596Y-122263395D01*
X170015252Y-122141655D01*
X169931416Y-122016185D01*
X161199230Y-113284000D01*
X161990370Y-113284000D01*
X165646013Y-116939643D01*
X165645931Y-117033663D01*
X165794493Y-117393212D01*
X166069341Y-117668540D01*
X166428630Y-117817730D01*
X166817663Y-117818069D01*
X167177212Y-117669507D01*
X167452540Y-117394659D01*
X167601730Y-117035370D01*
X167602069Y-116646337D01*
X167453507Y-116286788D01*
X167178659Y-116011460D01*
X166819370Y-115862270D01*
X166723817Y-115862187D01*
X162844815Y-111983185D01*
X162738878Y-111912400D01*
X162597605Y-111818004D01*
X162306000Y-111760000D01*
X151701338Y-111760000D01*
X151742095Y-111700350D01*
X170883800Y-111700350D01*
X170883800Y-112140909D01*
X170980473Y-112374298D01*
X171159101Y-112552927D01*
X171392490Y-112649600D01*
X172333050Y-112649600D01*
X172491800Y-112490850D01*
X172491800Y-111541600D01*
X172745800Y-111541600D01*
X172745800Y-112490850D01*
X172904550Y-112649600D01*
X173845110Y-112649600D01*
X174078499Y-112552927D01*
X174257127Y-112374298D01*
X174353800Y-112140909D01*
X174353800Y-111700350D01*
X174195050Y-111541600D01*
X172745800Y-111541600D01*
X172491800Y-111541600D01*
X171042550Y-111541600D01*
X170883800Y-111700350D01*
X151742095Y-111700350D01*
X151765231Y-111666490D01*
X151816240Y-111414600D01*
X151816240Y-110688291D01*
X170883800Y-110688291D01*
X170883800Y-111128850D01*
X171042550Y-111287600D01*
X172491800Y-111287600D01*
X172491800Y-110338350D01*
X172745800Y-110338350D01*
X172745800Y-111287600D01*
X174195050Y-111287600D01*
X174259226Y-111223424D01*
X174442098Y-111299359D01*
X174993085Y-111299840D01*
X175502315Y-111089431D01*
X175892261Y-110700164D01*
X176103559Y-110191302D01*
X176104040Y-109640315D01*
X175893631Y-109131085D01*
X175504364Y-108741139D01*
X174995502Y-108529841D01*
X174444515Y-108529360D01*
X173935285Y-108739769D01*
X173545339Y-109129036D01*
X173334041Y-109637898D01*
X173333568Y-110179600D01*
X172904550Y-110179600D01*
X172745800Y-110338350D01*
X172491800Y-110338350D01*
X172333050Y-110179600D01*
X171392490Y-110179600D01*
X171159101Y-110276273D01*
X170980473Y-110454902D01*
X170883800Y-110688291D01*
X151816240Y-110688291D01*
X151816240Y-110414600D01*
X151771962Y-110179283D01*
X151632890Y-109963159D01*
X151420690Y-109818169D01*
X151168800Y-109767160D01*
X149668800Y-109767160D01*
X149433483Y-109811438D01*
X149217359Y-109950510D01*
X149072369Y-110162710D01*
X149021360Y-110414600D01*
X149021360Y-111414600D01*
X149065638Y-111649917D01*
X149136474Y-111760000D01*
X144587631Y-111760000D01*
X144302815Y-111475185D01*
X138177293Y-105349663D01*
X141515931Y-105349663D01*
X141664493Y-105709212D01*
X141939341Y-105984540D01*
X142298630Y-106133730D01*
X142394183Y-106133813D01*
X142663785Y-106403416D01*
X142811977Y-106502434D01*
X142910995Y-106568596D01*
X143202600Y-106626600D01*
X149082808Y-106626600D01*
X149139420Y-106714578D01*
X149072369Y-106812710D01*
X149021360Y-107064600D01*
X149021360Y-108064600D01*
X149065638Y-108299917D01*
X149204710Y-108516041D01*
X149416910Y-108661031D01*
X149668800Y-108712040D01*
X151168800Y-108712040D01*
X151404117Y-108667762D01*
X151620241Y-108528690D01*
X151765231Y-108316490D01*
X151816240Y-108064600D01*
X151816240Y-107064600D01*
X151771962Y-106829283D01*
X151698180Y-106714622D01*
X151765231Y-106616490D01*
X151816240Y-106364600D01*
X151816240Y-105364600D01*
X151771962Y-105129283D01*
X151632890Y-104913159D01*
X151420690Y-104768169D01*
X151168800Y-104717160D01*
X149668800Y-104717160D01*
X149433483Y-104761438D01*
X149217359Y-104900510D01*
X149079277Y-105102600D01*
X143518231Y-105102600D01*
X143471987Y-105056356D01*
X143472069Y-104962337D01*
X143323507Y-104602788D01*
X143048659Y-104327460D01*
X142689370Y-104178270D01*
X142300337Y-104177931D01*
X141940788Y-104326493D01*
X141665460Y-104601341D01*
X141516270Y-104960630D01*
X141515931Y-105349663D01*
X138177293Y-105349663D01*
X136552980Y-103725350D01*
X149033800Y-103725350D01*
X149033800Y-104065909D01*
X149130473Y-104299298D01*
X149309101Y-104477927D01*
X149542490Y-104574600D01*
X150133050Y-104574600D01*
X150291800Y-104415850D01*
X150291800Y-103566600D01*
X150545800Y-103566600D01*
X150545800Y-104415850D01*
X150704550Y-104574600D01*
X151295110Y-104574600D01*
X151528499Y-104477927D01*
X151707127Y-104299298D01*
X151803800Y-104065909D01*
X151803800Y-103725350D01*
X151645050Y-103566600D01*
X150545800Y-103566600D01*
X150291800Y-103566600D01*
X149192550Y-103566600D01*
X149033800Y-103725350D01*
X136552980Y-103725350D01*
X135640921Y-102813291D01*
X149033800Y-102813291D01*
X149033800Y-103153850D01*
X149192550Y-103312600D01*
X150291800Y-103312600D01*
X150291800Y-102463350D01*
X150545800Y-102463350D01*
X150545800Y-103312600D01*
X151645050Y-103312600D01*
X151803800Y-103153850D01*
X151803800Y-102813291D01*
X151707127Y-102579902D01*
X151528499Y-102401273D01*
X151295110Y-102304600D01*
X150704550Y-102304600D01*
X150545800Y-102463350D01*
X150291800Y-102463350D01*
X150133050Y-102304600D01*
X149542490Y-102304600D01*
X149309101Y-102401273D01*
X149130473Y-102579902D01*
X149033800Y-102813291D01*
X135640921Y-102813291D01*
X135082615Y-102254985D01*
X135030722Y-102220311D01*
X134835405Y-102089804D01*
X134543800Y-102031800D01*
X122220312Y-102031800D01*
X122021415Y-101734130D01*
X121706634Y-101523800D01*
X122021415Y-101313470D01*
X122209712Y-101031663D01*
X139991931Y-101031663D01*
X140140493Y-101391212D01*
X140415341Y-101666540D01*
X140774630Y-101815730D01*
X141163663Y-101816069D01*
X141440700Y-101701600D01*
X149082808Y-101701600D01*
X149204710Y-101891041D01*
X149416910Y-102036031D01*
X149668800Y-102087040D01*
X151168800Y-102087040D01*
X151404117Y-102042762D01*
X151620241Y-101903690D01*
X151765231Y-101691490D01*
X151816240Y-101439600D01*
X151816240Y-100439600D01*
X151771962Y-100204283D01*
X151632890Y-99988159D01*
X151420690Y-99843169D01*
X151168800Y-99792160D01*
X149668800Y-99792160D01*
X149433483Y-99836438D01*
X149217359Y-99975510D01*
X149079277Y-100177600D01*
X141692506Y-100177600D01*
X141524659Y-100009460D01*
X141165370Y-99860270D01*
X140776337Y-99859931D01*
X140416788Y-100008493D01*
X140141460Y-100283341D01*
X139992270Y-100642630D01*
X139991931Y-101031663D01*
X122209712Y-101031663D01*
X122346271Y-100827289D01*
X122460345Y-100253800D01*
X122385135Y-99875695D01*
X123515167Y-98745663D01*
X134149931Y-98745663D01*
X134298493Y-99105212D01*
X134573341Y-99380540D01*
X134932630Y-99529730D01*
X135321663Y-99530069D01*
X135681212Y-99381507D01*
X135748837Y-99314000D01*
X149155135Y-99314000D01*
X149204710Y-99391041D01*
X149416910Y-99536031D01*
X149668800Y-99587040D01*
X151168800Y-99587040D01*
X151404117Y-99542762D01*
X151620241Y-99403690D01*
X151765231Y-99191490D01*
X151816240Y-98939600D01*
X151816240Y-97939600D01*
X151771962Y-97704283D01*
X151705471Y-97600954D01*
X151707127Y-97599298D01*
X151803800Y-97365909D01*
X151803800Y-97025350D01*
X151645050Y-96866600D01*
X150545800Y-96866600D01*
X150545800Y-96886600D01*
X150291800Y-96886600D01*
X150291800Y-96866600D01*
X149192550Y-96866600D01*
X149033800Y-97025350D01*
X149033800Y-97365909D01*
X149130473Y-97599298D01*
X149131843Y-97600668D01*
X149072369Y-97687710D01*
X149051655Y-97790000D01*
X135749083Y-97790000D01*
X135682659Y-97723460D01*
X135323370Y-97574270D01*
X134934337Y-97573931D01*
X134574788Y-97722493D01*
X134299460Y-97997341D01*
X134150270Y-98356630D01*
X134149931Y-98745663D01*
X123515167Y-98745663D01*
X129103167Y-93157663D01*
X144055931Y-93157663D01*
X144204493Y-93517212D01*
X144479341Y-93792540D01*
X144838630Y-93941730D01*
X144934183Y-93941813D01*
X144970785Y-93978415D01*
X145217995Y-94143596D01*
X145509600Y-94201600D01*
X149082808Y-94201600D01*
X149122851Y-94263828D01*
X149072369Y-94337710D01*
X149021360Y-94589600D01*
X149021360Y-95589600D01*
X149065638Y-95824917D01*
X149118939Y-95907748D01*
X149033800Y-96113291D01*
X149033800Y-96453850D01*
X149192550Y-96612600D01*
X150291800Y-96612600D01*
X150291800Y-96592600D01*
X150545800Y-96592600D01*
X150545800Y-96612600D01*
X151645050Y-96612600D01*
X151803800Y-96453850D01*
X151803800Y-96113291D01*
X151719151Y-95908930D01*
X151765231Y-95841490D01*
X151816240Y-95589600D01*
X151816240Y-94589600D01*
X151771962Y-94354283D01*
X151714749Y-94265372D01*
X151765231Y-94191490D01*
X151816240Y-93939600D01*
X151816240Y-92939600D01*
X151771962Y-92704283D01*
X151632890Y-92488159D01*
X151420690Y-92343169D01*
X151168800Y-92292160D01*
X149668800Y-92292160D01*
X149433483Y-92336438D01*
X149217359Y-92475510D01*
X149079277Y-92677600D01*
X145973751Y-92677600D01*
X145863507Y-92410788D01*
X145588659Y-92135460D01*
X145229370Y-91986270D01*
X144840337Y-91985931D01*
X144480788Y-92134493D01*
X144205460Y-92409341D01*
X144056270Y-92768630D01*
X144055931Y-93157663D01*
X129103167Y-93157663D01*
X131135167Y-91125663D01*
X147103931Y-91125663D01*
X147252493Y-91485212D01*
X147527341Y-91760540D01*
X147886630Y-91909730D01*
X148275663Y-91910069D01*
X148635212Y-91761507D01*
X148702837Y-91694000D01*
X149077918Y-91694000D01*
X149204710Y-91891041D01*
X149416910Y-92036031D01*
X149668800Y-92087040D01*
X151168800Y-92087040D01*
X151404117Y-92042762D01*
X151620241Y-91903690D01*
X151765231Y-91691490D01*
X151816240Y-91439600D01*
X151816240Y-90439600D01*
X151771962Y-90204283D01*
X151632890Y-89988159D01*
X151420690Y-89843169D01*
X151168800Y-89792160D01*
X149668800Y-89792160D01*
X149433483Y-89836438D01*
X149217359Y-89975510D01*
X149084470Y-90170000D01*
X148703083Y-90170000D01*
X148636659Y-90103460D01*
X148277370Y-89954270D01*
X147888337Y-89953931D01*
X147528788Y-90102493D01*
X147253460Y-90377341D01*
X147104270Y-90736630D01*
X147103931Y-91125663D01*
X131135167Y-91125663D01*
X134630830Y-87630000D01*
X149111801Y-87630000D01*
X149072369Y-87687710D01*
X149021360Y-87939600D01*
X149021360Y-88939600D01*
X149065638Y-89174917D01*
X149204710Y-89391041D01*
X149416910Y-89536031D01*
X149668800Y-89587040D01*
X151168800Y-89587040D01*
X151404117Y-89542762D01*
X151620241Y-89403690D01*
X151765231Y-89191490D01*
X151816240Y-88939600D01*
X151816240Y-87939600D01*
X151771962Y-87704283D01*
X151724162Y-87630000D01*
X152032917Y-87630000D01*
X152099341Y-87696540D01*
X152458630Y-87845730D01*
X152847663Y-87846069D01*
X153207212Y-87697507D01*
X153482540Y-87422659D01*
X153631730Y-87063370D01*
X153632069Y-86674337D01*
X153483507Y-86314788D01*
X153208659Y-86039460D01*
X153086862Y-85988885D01*
X173333560Y-85988885D01*
X173543969Y-86498115D01*
X173933236Y-86888061D01*
X174442098Y-87099359D01*
X174993085Y-87099840D01*
X175502315Y-86889431D01*
X175892261Y-86500164D01*
X176103559Y-85991302D01*
X176104040Y-85440315D01*
X175893631Y-84931085D01*
X175504364Y-84541139D01*
X174995502Y-84329841D01*
X174444515Y-84329360D01*
X173935285Y-84539769D01*
X173545339Y-84929036D01*
X173334041Y-85437898D01*
X173333560Y-85988885D01*
X153086862Y-85988885D01*
X152849370Y-85890270D01*
X152460337Y-85889931D01*
X152100788Y-86038493D01*
X152033163Y-86106000D01*
X151215915Y-86106000D01*
X151345730Y-85793370D01*
X151346069Y-85404337D01*
X151197507Y-85044788D01*
X150989083Y-84836000D01*
X156096917Y-84836000D01*
X156163341Y-84902540D01*
X156522630Y-85051730D01*
X156911663Y-85052069D01*
X157271212Y-84903507D01*
X157546540Y-84628659D01*
X157695730Y-84269370D01*
X157696069Y-83880337D01*
X157566188Y-83566000D01*
X158636917Y-83566000D01*
X158703341Y-83632540D01*
X159062630Y-83781730D01*
X159451663Y-83782069D01*
X159811212Y-83633507D01*
X160086540Y-83358659D01*
X160235730Y-82999370D01*
X160235900Y-82804000D01*
X161430917Y-82804000D01*
X161497341Y-82870540D01*
X161856630Y-83019730D01*
X162245663Y-83020069D01*
X162605212Y-82871507D01*
X162662218Y-82814600D01*
X169671360Y-82814600D01*
X169671360Y-84014600D01*
X169715638Y-84249917D01*
X169854710Y-84466041D01*
X170066910Y-84611031D01*
X170318800Y-84662040D01*
X172518800Y-84662040D01*
X172754117Y-84617762D01*
X172970241Y-84478690D01*
X173115231Y-84266490D01*
X173166240Y-84014600D01*
X173166240Y-82814600D01*
X173121962Y-82579283D01*
X172982890Y-82363159D01*
X172770690Y-82218169D01*
X172518800Y-82167160D01*
X170318800Y-82167160D01*
X170083483Y-82211438D01*
X169867359Y-82350510D01*
X169722369Y-82562710D01*
X169671360Y-82814600D01*
X162662218Y-82814600D01*
X162880540Y-82596659D01*
X163029730Y-82237370D01*
X163029900Y-82042000D01*
X166370000Y-82042000D01*
X166661605Y-81983996D01*
X166908815Y-81818815D01*
X169931415Y-78796215D01*
X169994103Y-78702396D01*
X170096596Y-78549005D01*
X170154600Y-78257400D01*
X170154600Y-77008312D01*
X170452270Y-76809415D01*
X170662600Y-76494634D01*
X170872930Y-76809415D01*
X171196000Y-77025284D01*
X171196000Y-77285537D01*
X170966529Y-77380352D01*
X170473085Y-77872936D01*
X170205705Y-78516857D01*
X170205097Y-79214084D01*
X170471352Y-79858471D01*
X170963936Y-80351915D01*
X171607857Y-80619295D01*
X172305084Y-80619903D01*
X172949471Y-80353648D01*
X173228054Y-80075551D01*
X173503936Y-80351915D01*
X174147857Y-80619295D01*
X174845084Y-80619903D01*
X175489471Y-80353648D01*
X175982915Y-79861064D01*
X176250295Y-79217143D01*
X176250903Y-78519916D01*
X175984648Y-77875529D01*
X175492064Y-77382085D01*
X175260000Y-77285723D01*
X175260000Y-76991340D01*
X175532270Y-76809415D01*
X175857126Y-76323234D01*
X175971200Y-75749745D01*
X175971200Y-75380255D01*
X175857126Y-74806766D01*
X175532270Y-74320585D01*
X175046089Y-73995729D01*
X174472600Y-73881655D01*
X173899111Y-73995729D01*
X173412930Y-74320585D01*
X173202600Y-74635366D01*
X172992270Y-74320585D01*
X172506089Y-73995729D01*
X171932600Y-73881655D01*
X171359111Y-73995729D01*
X170872930Y-74320585D01*
X170662600Y-74635366D01*
X170452270Y-74320585D01*
X169966089Y-73995729D01*
X169392600Y-73881655D01*
X168819111Y-73995729D01*
X168332930Y-74320585D01*
X168122600Y-74635366D01*
X167912270Y-74320585D01*
X167426089Y-73995729D01*
X166852600Y-73881655D01*
X166279111Y-73995729D01*
X165792930Y-74320585D01*
X165582600Y-74635366D01*
X165372270Y-74320585D01*
X164886089Y-73995729D01*
X164312600Y-73881655D01*
X163739111Y-73995729D01*
X163252930Y-74320585D01*
X163042600Y-74635366D01*
X162832270Y-74320585D01*
X162346089Y-73995729D01*
X161772600Y-73881655D01*
X161199111Y-73995729D01*
X160712930Y-74320585D01*
X160502600Y-74635366D01*
X160292270Y-74320585D01*
X159806089Y-73995729D01*
X159232600Y-73881655D01*
X158659111Y-73995729D01*
X158172930Y-74320585D01*
X157962600Y-74635366D01*
X157752270Y-74320585D01*
X157266089Y-73995729D01*
X156692600Y-73881655D01*
X156119111Y-73995729D01*
X155632930Y-74320585D01*
X155308074Y-74806766D01*
X155194000Y-75380255D01*
X155194000Y-75749745D01*
X155308074Y-76323234D01*
X155632930Y-76809415D01*
X156119111Y-77134271D01*
X156692600Y-77248345D01*
X157266089Y-77134271D01*
X157752270Y-76809415D01*
X157962600Y-76494634D01*
X158172930Y-76809415D01*
X158659111Y-77134271D01*
X159232600Y-77248345D01*
X159806089Y-77134271D01*
X160292270Y-76809415D01*
X160502600Y-76494634D01*
X160712930Y-76809415D01*
X161199111Y-77134271D01*
X161772600Y-77248345D01*
X162346089Y-77134271D01*
X162832270Y-76809415D01*
X163042600Y-76494634D01*
X163252930Y-76809415D01*
X163576000Y-77025284D01*
X163576000Y-77285537D01*
X163346529Y-77380352D01*
X162853085Y-77872936D01*
X162585705Y-78516857D01*
X162585097Y-79214084D01*
X162746042Y-79603601D01*
X133925823Y-79603601D01*
X134086295Y-79217143D01*
X134086903Y-78519916D01*
X133820648Y-77875529D01*
X133328064Y-77382085D01*
X133096000Y-77285723D01*
X133096000Y-76991340D01*
X133368270Y-76809415D01*
X133578600Y-76494634D01*
X133788930Y-76809415D01*
X134275111Y-77134271D01*
X134848600Y-77248345D01*
X135422089Y-77134271D01*
X135908270Y-76809415D01*
X136115061Y-76499931D01*
X136486564Y-76915732D01*
X137013809Y-77169709D01*
X137029574Y-77172358D01*
X137261600Y-77051217D01*
X137261600Y-75692000D01*
X137241600Y-75692000D01*
X137241600Y-75438000D01*
X137261600Y-75438000D01*
X137261600Y-74078783D01*
X137515600Y-74078783D01*
X137515600Y-75438000D01*
X137535600Y-75438000D01*
X137535600Y-75692000D01*
X137515600Y-75692000D01*
X137515600Y-77051217D01*
X137747626Y-77172358D01*
X137763391Y-77169709D01*
X138290636Y-76915732D01*
X138662139Y-76499931D01*
X138868930Y-76809415D01*
X139355111Y-77134271D01*
X139928600Y-77248345D01*
X140502089Y-77134271D01*
X140988270Y-76809415D01*
X141198600Y-76494634D01*
X141408930Y-76809415D01*
X141895111Y-77134271D01*
X142468600Y-77248345D01*
X143042089Y-77134271D01*
X143528270Y-76809415D01*
X143738600Y-76494634D01*
X143948930Y-76809415D01*
X144435111Y-77134271D01*
X145008600Y-77248345D01*
X145582089Y-77134271D01*
X146068270Y-76809415D01*
X146278600Y-76494634D01*
X146488930Y-76809415D01*
X146975111Y-77134271D01*
X147548600Y-77248345D01*
X148122089Y-77134271D01*
X148608270Y-76809415D01*
X148818600Y-76494634D01*
X149028930Y-76809415D01*
X149515111Y-77134271D01*
X150088600Y-77248345D01*
X150662089Y-77134271D01*
X151148270Y-76809415D01*
X151358600Y-76494634D01*
X151568930Y-76809415D01*
X152055111Y-77134271D01*
X152628600Y-77248345D01*
X153202089Y-77134271D01*
X153688270Y-76809415D01*
X154013126Y-76323234D01*
X154127200Y-75749745D01*
X154127200Y-75380255D01*
X154013126Y-74806766D01*
X153688270Y-74320585D01*
X153202089Y-73995729D01*
X152628600Y-73881655D01*
X152055111Y-73995729D01*
X151568930Y-74320585D01*
X151358600Y-74635366D01*
X151148270Y-74320585D01*
X150662089Y-73995729D01*
X150088600Y-73881655D01*
X149515111Y-73995729D01*
X149028930Y-74320585D01*
X148818600Y-74635366D01*
X148608270Y-74320585D01*
X148122089Y-73995729D01*
X147548600Y-73881655D01*
X146975111Y-73995729D01*
X146488930Y-74320585D01*
X146278600Y-74635366D01*
X146068270Y-74320585D01*
X145582089Y-73995729D01*
X145008600Y-73881655D01*
X144435111Y-73995729D01*
X143948930Y-74320585D01*
X143738600Y-74635366D01*
X143528270Y-74320585D01*
X143042089Y-73995729D01*
X142468600Y-73881655D01*
X141895111Y-73995729D01*
X141408930Y-74320585D01*
X141198600Y-74635366D01*
X140988270Y-74320585D01*
X140502089Y-73995729D01*
X139928600Y-73881655D01*
X139355111Y-73995729D01*
X138868930Y-74320585D01*
X138662139Y-74630069D01*
X138290636Y-74214268D01*
X137763391Y-73960291D01*
X137747626Y-73957642D01*
X137515600Y-74078783D01*
X137261600Y-74078783D01*
X137029574Y-73957642D01*
X137013809Y-73960291D01*
X136486564Y-74214268D01*
X136115061Y-74630069D01*
X135908270Y-74320585D01*
X135422089Y-73995729D01*
X134848600Y-73881655D01*
X134275111Y-73995729D01*
X133788930Y-74320585D01*
X133578600Y-74635366D01*
X133368270Y-74320585D01*
X132882089Y-73995729D01*
X132308600Y-73881655D01*
X131735111Y-73995729D01*
X131248930Y-74320585D01*
X131038600Y-74635366D01*
X130828270Y-74320585D01*
X130342089Y-73995729D01*
X129768600Y-73881655D01*
X129195111Y-73995729D01*
X128708930Y-74320585D01*
X128647502Y-74412518D01*
X128500291Y-74056239D01*
X128231521Y-73787000D01*
X175207394Y-73787000D01*
X176328000Y-74907606D01*
X176328000Y-74907606D01*
G37*
X176328000Y-74907606D02*
X176328000Y-85979000D01*
X176382046Y-86250705D01*
X176403000Y-86282065D01*
X176403000Y-86360000D01*
X176413006Y-86409410D01*
X176440197Y-86449803D01*
X178525110Y-88534716D01*
X177570827Y-88138464D01*
X176509828Y-88137538D01*
X175529239Y-88542709D01*
X174778345Y-89292293D01*
X174371464Y-90272173D01*
X174370538Y-91333172D01*
X174775709Y-92313761D01*
X175525293Y-93064655D01*
X176505173Y-93471536D01*
X177566172Y-93472462D01*
X178546761Y-93067291D01*
X178868000Y-92746612D01*
X178868000Y-116803193D01*
X178550707Y-116485345D01*
X177570827Y-116078464D01*
X176509828Y-116077538D01*
X175529239Y-116482709D01*
X174778345Y-117232293D01*
X174371464Y-118212173D01*
X174370538Y-119273172D01*
X174775709Y-120253761D01*
X175525293Y-121004655D01*
X176505173Y-121411536D01*
X177566172Y-121412462D01*
X178546761Y-121007291D01*
X178868000Y-120686612D01*
X178868000Y-120990909D01*
X176535954Y-123322954D01*
X176382046Y-123553295D01*
X176328000Y-123825000D01*
X176328000Y-125603000D01*
X126961898Y-125603000D01*
X127227655Y-125337707D01*
X127634536Y-124357827D01*
X127635462Y-123296828D01*
X127230291Y-122316239D01*
X126480707Y-121565345D01*
X125500827Y-121158464D01*
X124439828Y-121157538D01*
X123459239Y-121562709D01*
X122708345Y-122312293D01*
X122301464Y-123292173D01*
X122300538Y-124353172D01*
X122705709Y-125333761D01*
X122974479Y-125603000D01*
X111887000Y-125603000D01*
X111887000Y-115493800D01*
X119093655Y-115493800D01*
X119207729Y-116067289D01*
X119532585Y-116553470D01*
X119546913Y-116563043D01*
X119525683Y-116567038D01*
X119309559Y-116706110D01*
X119164569Y-116918310D01*
X119113560Y-117170200D01*
X119113560Y-118897400D01*
X119157838Y-119132717D01*
X119296910Y-119348841D01*
X119509110Y-119493831D01*
X119761000Y-119544840D01*
X121793000Y-119544840D01*
X122028317Y-119500562D01*
X122244441Y-119361490D01*
X122389431Y-119149290D01*
X122435296Y-118922800D01*
X134004991Y-118922800D01*
X133896270Y-119184630D01*
X133895931Y-119573663D01*
X134044493Y-119933212D01*
X134319341Y-120208540D01*
X134678630Y-120357730D01*
X135067663Y-120358069D01*
X135283227Y-120269000D01*
X143217964Y-120269000D01*
X145496697Y-122547733D01*
X145447530Y-122580585D01*
X145237200Y-122895366D01*
X145026870Y-122580585D01*
X144540689Y-122255729D01*
X143967200Y-122141655D01*
X143393711Y-122255729D01*
X142907530Y-122580585D01*
X142697200Y-122895366D01*
X142486870Y-122580585D01*
X142000689Y-122255729D01*
X141427200Y-122141655D01*
X140853711Y-122255729D01*
X140367530Y-122580585D01*
X140157200Y-122895366D01*
X139946870Y-122580585D01*
X139460689Y-122255729D01*
X138887200Y-122141655D01*
X138313711Y-122255729D01*
X137827530Y-122580585D01*
X137502674Y-123066766D01*
X137388600Y-123640255D01*
X137388600Y-124009745D01*
X137502674Y-124583234D01*
X137827530Y-125069415D01*
X138313711Y-125394271D01*
X138887200Y-125508345D01*
X139460689Y-125394271D01*
X139946870Y-125069415D01*
X140157200Y-124754634D01*
X140367530Y-125069415D01*
X140853711Y-125394271D01*
X141427200Y-125508345D01*
X142000689Y-125394271D01*
X142486870Y-125069415D01*
X142697200Y-124754634D01*
X142907530Y-125069415D01*
X143393711Y-125394271D01*
X143967200Y-125508345D01*
X144540689Y-125394271D01*
X145026870Y-125069415D01*
X145237200Y-124754634D01*
X145447530Y-125069415D01*
X145933711Y-125394271D01*
X146507200Y-125508345D01*
X147080689Y-125394271D01*
X147566870Y-125069415D01*
X147777200Y-124754634D01*
X147987530Y-125069415D01*
X148473711Y-125394271D01*
X149047200Y-125508345D01*
X149620689Y-125394271D01*
X150106870Y-125069415D01*
X150313661Y-124759931D01*
X150685164Y-125175732D01*
X151212409Y-125429709D01*
X151228174Y-125432358D01*
X151460200Y-125311217D01*
X151460200Y-123952000D01*
X151714200Y-123952000D01*
X151714200Y-125311217D01*
X151946226Y-125432358D01*
X151961991Y-125429709D01*
X152489236Y-125175732D01*
X152857200Y-124763892D01*
X153225164Y-125175732D01*
X153752409Y-125429709D01*
X153768174Y-125432358D01*
X154000200Y-125311217D01*
X154000200Y-123952000D01*
X151714200Y-123952000D01*
X151460200Y-123952000D01*
X151440200Y-123952000D01*
X151440200Y-123698000D01*
X151460200Y-123698000D01*
X151460200Y-122338783D01*
X151714200Y-122338783D01*
X151714200Y-123698000D01*
X154000200Y-123698000D01*
X154000200Y-122338783D01*
X154254200Y-122338783D01*
X154254200Y-123698000D01*
X154274200Y-123698000D01*
X154274200Y-123952000D01*
X154254200Y-123952000D01*
X154254200Y-125311217D01*
X154486226Y-125432358D01*
X154501991Y-125429709D01*
X155029236Y-125175732D01*
X155400739Y-124759931D01*
X155607530Y-125069415D01*
X156093711Y-125394271D01*
X156667200Y-125508345D01*
X157240689Y-125394271D01*
X157726870Y-125069415D01*
X158051726Y-124583234D01*
X158165800Y-124009745D01*
X158165800Y-123640255D01*
X158051726Y-123066766D01*
X157726870Y-122580585D01*
X157240689Y-122255729D01*
X156667200Y-122141655D01*
X156093711Y-122255729D01*
X155607530Y-122580585D01*
X155400739Y-122890069D01*
X155029236Y-122474268D01*
X154501991Y-122220291D01*
X154486226Y-122217642D01*
X154254200Y-122338783D01*
X154000200Y-122338783D01*
X153768174Y-122217642D01*
X153752409Y-122220291D01*
X153225164Y-122474268D01*
X152857200Y-122886108D01*
X152489236Y-122474268D01*
X151961991Y-122220291D01*
X151946226Y-122217642D01*
X151714200Y-122338783D01*
X151460200Y-122338783D01*
X151228174Y-122217642D01*
X151212409Y-122220291D01*
X150685164Y-122474268D01*
X150313661Y-122890069D01*
X150106870Y-122580585D01*
X149936200Y-122466547D01*
X149936200Y-121615200D01*
X149868529Y-121274994D01*
X149675818Y-120986582D01*
X146094418Y-117405182D01*
X145877265Y-117260085D01*
X145806006Y-117212471D01*
X145465800Y-117144800D01*
X122435661Y-117144800D01*
X122396162Y-116934883D01*
X122257090Y-116718759D01*
X122044890Y-116573769D01*
X122003561Y-116565400D01*
X122021415Y-116553470D01*
X122346271Y-116067289D01*
X122460345Y-115493800D01*
X122346271Y-114920311D01*
X122021415Y-114434130D01*
X121711931Y-114227339D01*
X122127732Y-113855836D01*
X122381709Y-113328591D01*
X122384358Y-113312826D01*
X122263217Y-113080800D01*
X120904000Y-113080800D01*
X120904000Y-113100800D01*
X120650000Y-113100800D01*
X120650000Y-113080800D01*
X119290783Y-113080800D01*
X119169642Y-113312826D01*
X119172291Y-113328591D01*
X119426268Y-113855836D01*
X119842069Y-114227339D01*
X119532585Y-114434130D01*
X119207729Y-114920311D01*
X119093655Y-115493800D01*
X111887000Y-115493800D01*
X111887000Y-108278102D01*
X111893438Y-108312317D01*
X112032510Y-108528441D01*
X112244710Y-108673431D01*
X112496600Y-108724440D01*
X114528600Y-108724440D01*
X114763917Y-108680162D01*
X114980041Y-108541090D01*
X115125031Y-108328890D01*
X115176040Y-108077000D01*
X115176040Y-106349800D01*
X115131762Y-106114483D01*
X114992690Y-105898359D01*
X114780490Y-105753369D01*
X114739161Y-105745000D01*
X114757015Y-105733070D01*
X114982477Y-105395642D01*
X115074205Y-105377396D01*
X115321415Y-105212215D01*
X117632815Y-102900816D01*
X117797996Y-102653605D01*
X117843467Y-102425005D01*
X117856000Y-102362000D01*
X117856000Y-79055630D01*
X118933631Y-77978000D01*
X121858370Y-77978000D01*
X124175184Y-80294815D01*
X124281123Y-80365601D01*
X124422395Y-80459996D01*
X124714000Y-80518000D01*
X125668370Y-80518000D01*
X126969184Y-81818815D01*
X127202173Y-81974493D01*
X127216395Y-81983996D01*
X127508000Y-82042000D01*
X128219200Y-82042000D01*
X127927595Y-82100004D01*
X127760823Y-82211438D01*
X127680385Y-82265185D01*
X122448968Y-87496602D01*
X122346271Y-86980311D01*
X122021415Y-86494130D01*
X121706634Y-86283800D01*
X122021415Y-86073470D01*
X122346271Y-85587289D01*
X122460345Y-85013800D01*
X122346271Y-84440311D01*
X122021415Y-83954130D01*
X121706634Y-83743800D01*
X122021415Y-83533470D01*
X122346271Y-83047289D01*
X122460345Y-82473800D01*
X122346271Y-81900311D01*
X122021415Y-81414130D01*
X121706634Y-81203800D01*
X122021415Y-80993470D01*
X122346271Y-80507289D01*
X122460345Y-79933800D01*
X122346271Y-79360311D01*
X122021415Y-78874130D01*
X121535234Y-78549274D01*
X120961745Y-78435200D01*
X120592255Y-78435200D01*
X120018766Y-78549274D01*
X119532585Y-78874130D01*
X119207729Y-79360311D01*
X119093655Y-79933800D01*
X119207729Y-80507289D01*
X119532585Y-80993470D01*
X119847366Y-81203800D01*
X119532585Y-81414130D01*
X119207729Y-81900311D01*
X119093655Y-82473800D01*
X119207729Y-83047289D01*
X119532585Y-83533470D01*
X119847366Y-83743800D01*
X119532585Y-83954130D01*
X119207729Y-84440311D01*
X119093655Y-85013800D01*
X119207729Y-85587289D01*
X119532585Y-86073470D01*
X119847366Y-86283800D01*
X119532585Y-86494130D01*
X119207729Y-86980311D01*
X119093655Y-87553800D01*
X119207729Y-88127289D01*
X119532585Y-88613470D01*
X119847366Y-88823800D01*
X119532585Y-89034130D01*
X119207729Y-89520311D01*
X119093655Y-90093800D01*
X119207729Y-90667289D01*
X119532585Y-91153470D01*
X119847366Y-91363800D01*
X119532585Y-91574130D01*
X119207729Y-92060311D01*
X119093655Y-92633800D01*
X119207729Y-93207289D01*
X119532585Y-93693470D01*
X119847366Y-93903800D01*
X119532585Y-94114130D01*
X119207729Y-94600311D01*
X119093655Y-95173800D01*
X119207729Y-95747289D01*
X119532585Y-96233470D01*
X119847366Y-96443800D01*
X119532585Y-96654130D01*
X119207729Y-97140311D01*
X119093655Y-97713800D01*
X119207729Y-98287289D01*
X119532585Y-98773470D01*
X119847366Y-98983800D01*
X119532585Y-99194130D01*
X119207729Y-99680311D01*
X119093655Y-100253800D01*
X119207729Y-100827289D01*
X119532585Y-101313470D01*
X119847366Y-101523800D01*
X119532585Y-101734130D01*
X119207729Y-102220311D01*
X119093655Y-102793800D01*
X119207729Y-103367289D01*
X119532585Y-103853470D01*
X119847366Y-104063800D01*
X119532585Y-104274130D01*
X119207729Y-104760311D01*
X119093655Y-105333800D01*
X119207729Y-105907289D01*
X119532585Y-106393470D01*
X119847366Y-106603800D01*
X119532585Y-106814130D01*
X119207729Y-107300311D01*
X119093655Y-107873800D01*
X119207729Y-108447289D01*
X119532585Y-108933470D01*
X119847366Y-109143800D01*
X119532585Y-109354130D01*
X119207729Y-109840311D01*
X119093655Y-110413800D01*
X119207729Y-110987289D01*
X119532585Y-111473470D01*
X119842069Y-111680261D01*
X119426268Y-112051764D01*
X119172291Y-112579009D01*
X119169642Y-112594774D01*
X119290783Y-112826800D01*
X120650000Y-112826800D01*
X120650000Y-112806800D01*
X120904000Y-112806800D01*
X120904000Y-112826800D01*
X122263217Y-112826800D01*
X122384358Y-112594774D01*
X122381709Y-112579009D01*
X122127732Y-112051764D01*
X121711931Y-111680261D01*
X122021415Y-111473470D01*
X122118872Y-111327615D01*
X122377200Y-111379000D01*
X134464945Y-111379000D01*
X134678630Y-111467730D01*
X135067663Y-111468069D01*
X135427212Y-111319507D01*
X135702540Y-111044659D01*
X135851730Y-110685370D01*
X135852069Y-110296337D01*
X135703507Y-109936788D01*
X135428659Y-109661460D01*
X135069370Y-109512270D01*
X134680337Y-109511931D01*
X134464773Y-109601000D01*
X122653971Y-109601000D01*
X122641206Y-109592471D01*
X122301000Y-109524800D01*
X122135453Y-109524800D01*
X122021415Y-109354130D01*
X121706634Y-109143800D01*
X122021415Y-108933470D01*
X122220312Y-108635800D01*
X130112717Y-108635800D01*
X130179141Y-108702340D01*
X130538430Y-108851530D01*
X130927463Y-108851869D01*
X131287012Y-108703307D01*
X131562340Y-108428459D01*
X131711530Y-108069170D01*
X131711869Y-107680137D01*
X131563307Y-107320588D01*
X131288459Y-107045260D01*
X130929170Y-106896070D01*
X130540137Y-106895731D01*
X130180588Y-107044293D01*
X130112963Y-107111800D01*
X122220312Y-107111800D01*
X122021415Y-106814130D01*
X121706634Y-106603800D01*
X122021415Y-106393470D01*
X122139971Y-106216039D01*
X122174010Y-106222810D01*
X134863180Y-106222810D01*
X142717185Y-114076816D01*
X142865377Y-114175834D01*
X142964395Y-114241996D01*
X143256000Y-114300000D01*
X160059970Y-114300000D01*
X160821970Y-115062000D01*
X125081083Y-115062000D01*
X125014659Y-114995460D01*
X124655370Y-114846270D01*
X124266337Y-114845931D01*
X123906788Y-114994493D01*
X123631460Y-115269341D01*
X123482270Y-115628630D01*
X123481931Y-116017663D01*
X123630493Y-116377212D01*
X123905341Y-116652540D01*
X124264630Y-116801730D01*
X124653663Y-116802069D01*
X125013212Y-116653507D01*
X125080837Y-116586000D01*
X160974370Y-116586000D01*
X161401065Y-117012695D01*
X160806529Y-117258352D01*
X160313085Y-117750936D01*
X160045705Y-118394857D01*
X160045097Y-119092084D01*
X160311352Y-119736471D01*
X160803936Y-120229915D01*
X161036000Y-120326277D01*
X161036000Y-122364716D01*
X160712930Y-122580585D01*
X160388074Y-123066766D01*
X160274000Y-123640255D01*
X160274000Y-124009745D01*
X160388074Y-124583234D01*
X160712930Y-125069415D01*
X161199111Y-125394271D01*
X161772600Y-125508345D01*
X162346089Y-125394271D01*
X162832270Y-125069415D01*
X163042600Y-124754634D01*
X163252930Y-125069415D01*
X163739111Y-125394271D01*
X164312600Y-125508345D01*
X164886089Y-125394271D01*
X165372270Y-125069415D01*
X165582600Y-124754634D01*
X165792930Y-125069415D01*
X166279111Y-125394271D01*
X166852600Y-125508345D01*
X167426089Y-125394271D01*
X167912270Y-125069415D01*
X168122600Y-124754634D01*
X168332930Y-125069415D01*
X168819111Y-125394271D01*
X169392600Y-125508345D01*
X169966089Y-125394271D01*
X170452270Y-125069415D01*
X170662600Y-124754634D01*
X170872930Y-125069415D01*
X171359111Y-125394271D01*
X171932600Y-125508345D01*
X172506089Y-125394271D01*
X172992270Y-125069415D01*
X173202600Y-124754634D01*
X173412930Y-125069415D01*
X173899111Y-125394271D01*
X174472600Y-125508345D01*
X175046089Y-125394271D01*
X175532270Y-125069415D01*
X175857126Y-124583234D01*
X175971200Y-124009745D01*
X175971200Y-123640255D01*
X175857126Y-123066766D01*
X175532270Y-122580585D01*
X175046089Y-122255729D01*
X174472600Y-122141655D01*
X173899111Y-122255729D01*
X173412930Y-122580585D01*
X173202600Y-122895366D01*
X172992270Y-122580585D01*
X172506089Y-122255729D01*
X171932600Y-122141655D01*
X171359111Y-122255729D01*
X170872930Y-122580585D01*
X170662600Y-122895366D01*
X170452270Y-122580585D01*
X170114842Y-122355123D01*
X170096596Y-122263395D01*
X170015252Y-122141655D01*
X169931416Y-122016185D01*
X161199230Y-113284000D01*
X161990370Y-113284000D01*
X165646013Y-116939643D01*
X165645931Y-117033663D01*
X165794493Y-117393212D01*
X166069341Y-117668540D01*
X166428630Y-117817730D01*
X166817663Y-117818069D01*
X167177212Y-117669507D01*
X167452540Y-117394659D01*
X167601730Y-117035370D01*
X167602069Y-116646337D01*
X167453507Y-116286788D01*
X167178659Y-116011460D01*
X166819370Y-115862270D01*
X166723817Y-115862187D01*
X162844815Y-111983185D01*
X162738878Y-111912400D01*
X162597605Y-111818004D01*
X162306000Y-111760000D01*
X151701338Y-111760000D01*
X151742095Y-111700350D01*
X170883800Y-111700350D01*
X170883800Y-112140909D01*
X170980473Y-112374298D01*
X171159101Y-112552927D01*
X171392490Y-112649600D01*
X172333050Y-112649600D01*
X172491800Y-112490850D01*
X172491800Y-111541600D01*
X172745800Y-111541600D01*
X172745800Y-112490850D01*
X172904550Y-112649600D01*
X173845110Y-112649600D01*
X174078499Y-112552927D01*
X174257127Y-112374298D01*
X174353800Y-112140909D01*
X174353800Y-111700350D01*
X174195050Y-111541600D01*
X172745800Y-111541600D01*
X172491800Y-111541600D01*
X171042550Y-111541600D01*
X170883800Y-111700350D01*
X151742095Y-111700350D01*
X151765231Y-111666490D01*
X151816240Y-111414600D01*
X151816240Y-110688291D01*
X170883800Y-110688291D01*
X170883800Y-111128850D01*
X171042550Y-111287600D01*
X172491800Y-111287600D01*
X172491800Y-110338350D01*
X172745800Y-110338350D01*
X172745800Y-111287600D01*
X174195050Y-111287600D01*
X174259226Y-111223424D01*
X174442098Y-111299359D01*
X174993085Y-111299840D01*
X175502315Y-111089431D01*
X175892261Y-110700164D01*
X176103559Y-110191302D01*
X176104040Y-109640315D01*
X175893631Y-109131085D01*
X175504364Y-108741139D01*
X174995502Y-108529841D01*
X174444515Y-108529360D01*
X173935285Y-108739769D01*
X173545339Y-109129036D01*
X173334041Y-109637898D01*
X173333568Y-110179600D01*
X172904550Y-110179600D01*
X172745800Y-110338350D01*
X172491800Y-110338350D01*
X172333050Y-110179600D01*
X171392490Y-110179600D01*
X171159101Y-110276273D01*
X170980473Y-110454902D01*
X170883800Y-110688291D01*
X151816240Y-110688291D01*
X151816240Y-110414600D01*
X151771962Y-110179283D01*
X151632890Y-109963159D01*
X151420690Y-109818169D01*
X151168800Y-109767160D01*
X149668800Y-109767160D01*
X149433483Y-109811438D01*
X149217359Y-109950510D01*
X149072369Y-110162710D01*
X149021360Y-110414600D01*
X149021360Y-111414600D01*
X149065638Y-111649917D01*
X149136474Y-111760000D01*
X144587631Y-111760000D01*
X144302815Y-111475185D01*
X138177293Y-105349663D01*
X141515931Y-105349663D01*
X141664493Y-105709212D01*
X141939341Y-105984540D01*
X142298630Y-106133730D01*
X142394183Y-106133813D01*
X142663785Y-106403416D01*
X142811977Y-106502434D01*
X142910995Y-106568596D01*
X143202600Y-106626600D01*
X149082808Y-106626600D01*
X149139420Y-106714578D01*
X149072369Y-106812710D01*
X149021360Y-107064600D01*
X149021360Y-108064600D01*
X149065638Y-108299917D01*
X149204710Y-108516041D01*
X149416910Y-108661031D01*
X149668800Y-108712040D01*
X151168800Y-108712040D01*
X151404117Y-108667762D01*
X151620241Y-108528690D01*
X151765231Y-108316490D01*
X151816240Y-108064600D01*
X151816240Y-107064600D01*
X151771962Y-106829283D01*
X151698180Y-106714622D01*
X151765231Y-106616490D01*
X151816240Y-106364600D01*
X151816240Y-105364600D01*
X151771962Y-105129283D01*
X151632890Y-104913159D01*
X151420690Y-104768169D01*
X151168800Y-104717160D01*
X149668800Y-104717160D01*
X149433483Y-104761438D01*
X149217359Y-104900510D01*
X149079277Y-105102600D01*
X143518231Y-105102600D01*
X143471987Y-105056356D01*
X143472069Y-104962337D01*
X143323507Y-104602788D01*
X143048659Y-104327460D01*
X142689370Y-104178270D01*
X142300337Y-104177931D01*
X141940788Y-104326493D01*
X141665460Y-104601341D01*
X141516270Y-104960630D01*
X141515931Y-105349663D01*
X138177293Y-105349663D01*
X136552980Y-103725350D01*
X149033800Y-103725350D01*
X149033800Y-104065909D01*
X149130473Y-104299298D01*
X149309101Y-104477927D01*
X149542490Y-104574600D01*
X150133050Y-104574600D01*
X150291800Y-104415850D01*
X150291800Y-103566600D01*
X150545800Y-103566600D01*
X150545800Y-104415850D01*
X150704550Y-104574600D01*
X151295110Y-104574600D01*
X151528499Y-104477927D01*
X151707127Y-104299298D01*
X151803800Y-104065909D01*
X151803800Y-103725350D01*
X151645050Y-103566600D01*
X150545800Y-103566600D01*
X150291800Y-103566600D01*
X149192550Y-103566600D01*
X149033800Y-103725350D01*
X136552980Y-103725350D01*
X135640921Y-102813291D01*
X149033800Y-102813291D01*
X149033800Y-103153850D01*
X149192550Y-103312600D01*
X150291800Y-103312600D01*
X150291800Y-102463350D01*
X150545800Y-102463350D01*
X150545800Y-103312600D01*
X151645050Y-103312600D01*
X151803800Y-103153850D01*
X151803800Y-102813291D01*
X151707127Y-102579902D01*
X151528499Y-102401273D01*
X151295110Y-102304600D01*
X150704550Y-102304600D01*
X150545800Y-102463350D01*
X150291800Y-102463350D01*
X150133050Y-102304600D01*
X149542490Y-102304600D01*
X149309101Y-102401273D01*
X149130473Y-102579902D01*
X149033800Y-102813291D01*
X135640921Y-102813291D01*
X135082615Y-102254985D01*
X135030722Y-102220311D01*
X134835405Y-102089804D01*
X134543800Y-102031800D01*
X122220312Y-102031800D01*
X122021415Y-101734130D01*
X121706634Y-101523800D01*
X122021415Y-101313470D01*
X122209712Y-101031663D01*
X139991931Y-101031663D01*
X140140493Y-101391212D01*
X140415341Y-101666540D01*
X140774630Y-101815730D01*
X141163663Y-101816069D01*
X141440700Y-101701600D01*
X149082808Y-101701600D01*
X149204710Y-101891041D01*
X149416910Y-102036031D01*
X149668800Y-102087040D01*
X151168800Y-102087040D01*
X151404117Y-102042762D01*
X151620241Y-101903690D01*
X151765231Y-101691490D01*
X151816240Y-101439600D01*
X151816240Y-100439600D01*
X151771962Y-100204283D01*
X151632890Y-99988159D01*
X151420690Y-99843169D01*
X151168800Y-99792160D01*
X149668800Y-99792160D01*
X149433483Y-99836438D01*
X149217359Y-99975510D01*
X149079277Y-100177600D01*
X141692506Y-100177600D01*
X141524659Y-100009460D01*
X141165370Y-99860270D01*
X140776337Y-99859931D01*
X140416788Y-100008493D01*
X140141460Y-100283341D01*
X139992270Y-100642630D01*
X139991931Y-101031663D01*
X122209712Y-101031663D01*
X122346271Y-100827289D01*
X122460345Y-100253800D01*
X122385135Y-99875695D01*
X123515167Y-98745663D01*
X134149931Y-98745663D01*
X134298493Y-99105212D01*
X134573341Y-99380540D01*
X134932630Y-99529730D01*
X135321663Y-99530069D01*
X135681212Y-99381507D01*
X135748837Y-99314000D01*
X149155135Y-99314000D01*
X149204710Y-99391041D01*
X149416910Y-99536031D01*
X149668800Y-99587040D01*
X151168800Y-99587040D01*
X151404117Y-99542762D01*
X151620241Y-99403690D01*
X151765231Y-99191490D01*
X151816240Y-98939600D01*
X151816240Y-97939600D01*
X151771962Y-97704283D01*
X151705471Y-97600954D01*
X151707127Y-97599298D01*
X151803800Y-97365909D01*
X151803800Y-97025350D01*
X151645050Y-96866600D01*
X150545800Y-96866600D01*
X150545800Y-96886600D01*
X150291800Y-96886600D01*
X150291800Y-96866600D01*
X149192550Y-96866600D01*
X149033800Y-97025350D01*
X149033800Y-97365909D01*
X149130473Y-97599298D01*
X149131843Y-97600668D01*
X149072369Y-97687710D01*
X149051655Y-97790000D01*
X135749083Y-97790000D01*
X135682659Y-97723460D01*
X135323370Y-97574270D01*
X134934337Y-97573931D01*
X134574788Y-97722493D01*
X134299460Y-97997341D01*
X134150270Y-98356630D01*
X134149931Y-98745663D01*
X123515167Y-98745663D01*
X129103167Y-93157663D01*
X144055931Y-93157663D01*
X144204493Y-93517212D01*
X144479341Y-93792540D01*
X144838630Y-93941730D01*
X144934183Y-93941813D01*
X144970785Y-93978415D01*
X145217995Y-94143596D01*
X145509600Y-94201600D01*
X149082808Y-94201600D01*
X149122851Y-94263828D01*
X149072369Y-94337710D01*
X149021360Y-94589600D01*
X149021360Y-95589600D01*
X149065638Y-95824917D01*
X149118939Y-95907748D01*
X149033800Y-96113291D01*
X149033800Y-96453850D01*
X149192550Y-96612600D01*
X150291800Y-96612600D01*
X150291800Y-96592600D01*
X150545800Y-96592600D01*
X150545800Y-96612600D01*
X151645050Y-96612600D01*
X151803800Y-96453850D01*
X151803800Y-96113291D01*
X151719151Y-95908930D01*
X151765231Y-95841490D01*
X151816240Y-95589600D01*
X151816240Y-94589600D01*
X151771962Y-94354283D01*
X151714749Y-94265372D01*
X151765231Y-94191490D01*
X151816240Y-93939600D01*
X151816240Y-92939600D01*
X151771962Y-92704283D01*
X151632890Y-92488159D01*
X151420690Y-92343169D01*
X151168800Y-92292160D01*
X149668800Y-92292160D01*
X149433483Y-92336438D01*
X149217359Y-92475510D01*
X149079277Y-92677600D01*
X145973751Y-92677600D01*
X145863507Y-92410788D01*
X145588659Y-92135460D01*
X145229370Y-91986270D01*
X144840337Y-91985931D01*
X144480788Y-92134493D01*
X144205460Y-92409341D01*
X144056270Y-92768630D01*
X144055931Y-93157663D01*
X129103167Y-93157663D01*
X131135167Y-91125663D01*
X147103931Y-91125663D01*
X147252493Y-91485212D01*
X147527341Y-91760540D01*
X147886630Y-91909730D01*
X148275663Y-91910069D01*
X148635212Y-91761507D01*
X148702837Y-91694000D01*
X149077918Y-91694000D01*
X149204710Y-91891041D01*
X149416910Y-92036031D01*
X149668800Y-92087040D01*
X151168800Y-92087040D01*
X151404117Y-92042762D01*
X151620241Y-91903690D01*
X151765231Y-91691490D01*
X151816240Y-91439600D01*
X151816240Y-90439600D01*
X151771962Y-90204283D01*
X151632890Y-89988159D01*
X151420690Y-89843169D01*
X151168800Y-89792160D01*
X149668800Y-89792160D01*
X149433483Y-89836438D01*
X149217359Y-89975510D01*
X149084470Y-90170000D01*
X148703083Y-90170000D01*
X148636659Y-90103460D01*
X148277370Y-89954270D01*
X147888337Y-89953931D01*
X147528788Y-90102493D01*
X147253460Y-90377341D01*
X147104270Y-90736630D01*
X147103931Y-91125663D01*
X131135167Y-91125663D01*
X134630830Y-87630000D01*
X149111801Y-87630000D01*
X149072369Y-87687710D01*
X149021360Y-87939600D01*
X149021360Y-88939600D01*
X149065638Y-89174917D01*
X149204710Y-89391041D01*
X149416910Y-89536031D01*
X149668800Y-89587040D01*
X151168800Y-89587040D01*
X151404117Y-89542762D01*
X151620241Y-89403690D01*
X151765231Y-89191490D01*
X151816240Y-88939600D01*
X151816240Y-87939600D01*
X151771962Y-87704283D01*
X151724162Y-87630000D01*
X152032917Y-87630000D01*
X152099341Y-87696540D01*
X152458630Y-87845730D01*
X152847663Y-87846069D01*
X153207212Y-87697507D01*
X153482540Y-87422659D01*
X153631730Y-87063370D01*
X153632069Y-86674337D01*
X153483507Y-86314788D01*
X153208659Y-86039460D01*
X153086862Y-85988885D01*
X173333560Y-85988885D01*
X173543969Y-86498115D01*
X173933236Y-86888061D01*
X174442098Y-87099359D01*
X174993085Y-87099840D01*
X175502315Y-86889431D01*
X175892261Y-86500164D01*
X176103559Y-85991302D01*
X176104040Y-85440315D01*
X175893631Y-84931085D01*
X175504364Y-84541139D01*
X174995502Y-84329841D01*
X174444515Y-84329360D01*
X173935285Y-84539769D01*
X173545339Y-84929036D01*
X173334041Y-85437898D01*
X173333560Y-85988885D01*
X153086862Y-85988885D01*
X152849370Y-85890270D01*
X152460337Y-85889931D01*
X152100788Y-86038493D01*
X152033163Y-86106000D01*
X151215915Y-86106000D01*
X151345730Y-85793370D01*
X151346069Y-85404337D01*
X151197507Y-85044788D01*
X150989083Y-84836000D01*
X156096917Y-84836000D01*
X156163341Y-84902540D01*
X156522630Y-85051730D01*
X156911663Y-85052069D01*
X157271212Y-84903507D01*
X157546540Y-84628659D01*
X157695730Y-84269370D01*
X157696069Y-83880337D01*
X157566188Y-83566000D01*
X158636917Y-83566000D01*
X158703341Y-83632540D01*
X159062630Y-83781730D01*
X159451663Y-83782069D01*
X159811212Y-83633507D01*
X160086540Y-83358659D01*
X160235730Y-82999370D01*
X160235900Y-82804000D01*
X161430917Y-82804000D01*
X161497341Y-82870540D01*
X161856630Y-83019730D01*
X162245663Y-83020069D01*
X162605212Y-82871507D01*
X162662218Y-82814600D01*
X169671360Y-82814600D01*
X169671360Y-84014600D01*
X169715638Y-84249917D01*
X169854710Y-84466041D01*
X170066910Y-84611031D01*
X170318800Y-84662040D01*
X172518800Y-84662040D01*
X172754117Y-84617762D01*
X172970241Y-84478690D01*
X173115231Y-84266490D01*
X173166240Y-84014600D01*
X173166240Y-82814600D01*
X173121962Y-82579283D01*
X172982890Y-82363159D01*
X172770690Y-82218169D01*
X172518800Y-82167160D01*
X170318800Y-82167160D01*
X170083483Y-82211438D01*
X169867359Y-82350510D01*
X169722369Y-82562710D01*
X169671360Y-82814600D01*
X162662218Y-82814600D01*
X162880540Y-82596659D01*
X163029730Y-82237370D01*
X163029900Y-82042000D01*
X166370000Y-82042000D01*
X166661605Y-81983996D01*
X166908815Y-81818815D01*
X169931415Y-78796215D01*
X169994103Y-78702396D01*
X170096596Y-78549005D01*
X170154600Y-78257400D01*
X170154600Y-77008312D01*
X170452270Y-76809415D01*
X170662600Y-76494634D01*
X170872930Y-76809415D01*
X171196000Y-77025284D01*
X171196000Y-77285537D01*
X170966529Y-77380352D01*
X170473085Y-77872936D01*
X170205705Y-78516857D01*
X170205097Y-79214084D01*
X170471352Y-79858471D01*
X170963936Y-80351915D01*
X171607857Y-80619295D01*
X172305084Y-80619903D01*
X172949471Y-80353648D01*
X173228054Y-80075551D01*
X173503936Y-80351915D01*
X174147857Y-80619295D01*
X174845084Y-80619903D01*
X175489471Y-80353648D01*
X175982915Y-79861064D01*
X176250295Y-79217143D01*
X176250903Y-78519916D01*
X175984648Y-77875529D01*
X175492064Y-77382085D01*
X175260000Y-77285723D01*
X175260000Y-76991340D01*
X175532270Y-76809415D01*
X175857126Y-76323234D01*
X175971200Y-75749745D01*
X175971200Y-75380255D01*
X175857126Y-74806766D01*
X175532270Y-74320585D01*
X175046089Y-73995729D01*
X174472600Y-73881655D01*
X173899111Y-73995729D01*
X173412930Y-74320585D01*
X173202600Y-74635366D01*
X172992270Y-74320585D01*
X172506089Y-73995729D01*
X171932600Y-73881655D01*
X171359111Y-73995729D01*
X170872930Y-74320585D01*
X170662600Y-74635366D01*
X170452270Y-74320585D01*
X169966089Y-73995729D01*
X169392600Y-73881655D01*
X168819111Y-73995729D01*
X168332930Y-74320585D01*
X168122600Y-74635366D01*
X167912270Y-74320585D01*
X167426089Y-73995729D01*
X166852600Y-73881655D01*
X166279111Y-73995729D01*
X165792930Y-74320585D01*
X165582600Y-74635366D01*
X165372270Y-74320585D01*
X164886089Y-73995729D01*
X164312600Y-73881655D01*
X163739111Y-73995729D01*
X163252930Y-74320585D01*
X163042600Y-74635366D01*
X162832270Y-74320585D01*
X162346089Y-73995729D01*
X161772600Y-73881655D01*
X161199111Y-73995729D01*
X160712930Y-74320585D01*
X160502600Y-74635366D01*
X160292270Y-74320585D01*
X159806089Y-73995729D01*
X159232600Y-73881655D01*
X158659111Y-73995729D01*
X158172930Y-74320585D01*
X157962600Y-74635366D01*
X157752270Y-74320585D01*
X157266089Y-73995729D01*
X156692600Y-73881655D01*
X156119111Y-73995729D01*
X155632930Y-74320585D01*
X155308074Y-74806766D01*
X155194000Y-75380255D01*
X155194000Y-75749745D01*
X155308074Y-76323234D01*
X155632930Y-76809415D01*
X156119111Y-77134271D01*
X156692600Y-77248345D01*
X157266089Y-77134271D01*
X157752270Y-76809415D01*
X157962600Y-76494634D01*
X158172930Y-76809415D01*
X158659111Y-77134271D01*
X159232600Y-77248345D01*
X159806089Y-77134271D01*
X160292270Y-76809415D01*
X160502600Y-76494634D01*
X160712930Y-76809415D01*
X161199111Y-77134271D01*
X161772600Y-77248345D01*
X162346089Y-77134271D01*
X162832270Y-76809415D01*
X163042600Y-76494634D01*
X163252930Y-76809415D01*
X163576000Y-77025284D01*
X163576000Y-77285537D01*
X163346529Y-77380352D01*
X162853085Y-77872936D01*
X162585705Y-78516857D01*
X162585097Y-79214084D01*
X162746042Y-79603601D01*
X133925823Y-79603601D01*
X134086295Y-79217143D01*
X134086903Y-78519916D01*
X133820648Y-77875529D01*
X133328064Y-77382085D01*
X133096000Y-77285723D01*
X133096000Y-76991340D01*
X133368270Y-76809415D01*
X133578600Y-76494634D01*
X133788930Y-76809415D01*
X134275111Y-77134271D01*
X134848600Y-77248345D01*
X135422089Y-77134271D01*
X135908270Y-76809415D01*
X136115061Y-76499931D01*
X136486564Y-76915732D01*
X137013809Y-77169709D01*
X137029574Y-77172358D01*
X137261600Y-77051217D01*
X137261600Y-75692000D01*
X137241600Y-75692000D01*
X137241600Y-75438000D01*
X137261600Y-75438000D01*
X137261600Y-74078783D01*
X137515600Y-74078783D01*
X137515600Y-75438000D01*
X137535600Y-75438000D01*
X137535600Y-75692000D01*
X137515600Y-75692000D01*
X137515600Y-77051217D01*
X137747626Y-77172358D01*
X137763391Y-77169709D01*
X138290636Y-76915732D01*
X138662139Y-76499931D01*
X138868930Y-76809415D01*
X139355111Y-77134271D01*
X139928600Y-77248345D01*
X140502089Y-77134271D01*
X140988270Y-76809415D01*
X141198600Y-76494634D01*
X141408930Y-76809415D01*
X141895111Y-77134271D01*
X142468600Y-77248345D01*
X143042089Y-77134271D01*
X143528270Y-76809415D01*
X143738600Y-76494634D01*
X143948930Y-76809415D01*
X144435111Y-77134271D01*
X145008600Y-77248345D01*
X145582089Y-77134271D01*
X146068270Y-76809415D01*
X146278600Y-76494634D01*
X146488930Y-76809415D01*
X146975111Y-77134271D01*
X147548600Y-77248345D01*
X148122089Y-77134271D01*
X148608270Y-76809415D01*
X148818600Y-76494634D01*
X149028930Y-76809415D01*
X149515111Y-77134271D01*
X150088600Y-77248345D01*
X150662089Y-77134271D01*
X151148270Y-76809415D01*
X151358600Y-76494634D01*
X151568930Y-76809415D01*
X152055111Y-77134271D01*
X152628600Y-77248345D01*
X153202089Y-77134271D01*
X153688270Y-76809415D01*
X154013126Y-76323234D01*
X154127200Y-75749745D01*
X154127200Y-75380255D01*
X154013126Y-74806766D01*
X153688270Y-74320585D01*
X153202089Y-73995729D01*
X152628600Y-73881655D01*
X152055111Y-73995729D01*
X151568930Y-74320585D01*
X151358600Y-74635366D01*
X151148270Y-74320585D01*
X150662089Y-73995729D01*
X150088600Y-73881655D01*
X149515111Y-73995729D01*
X149028930Y-74320585D01*
X148818600Y-74635366D01*
X148608270Y-74320585D01*
X148122089Y-73995729D01*
X147548600Y-73881655D01*
X146975111Y-73995729D01*
X146488930Y-74320585D01*
X146278600Y-74635366D01*
X146068270Y-74320585D01*
X145582089Y-73995729D01*
X145008600Y-73881655D01*
X144435111Y-73995729D01*
X143948930Y-74320585D01*
X143738600Y-74635366D01*
X143528270Y-74320585D01*
X143042089Y-73995729D01*
X142468600Y-73881655D01*
X141895111Y-73995729D01*
X141408930Y-74320585D01*
X141198600Y-74635366D01*
X140988270Y-74320585D01*
X140502089Y-73995729D01*
X139928600Y-73881655D01*
X139355111Y-73995729D01*
X138868930Y-74320585D01*
X138662139Y-74630069D01*
X138290636Y-74214268D01*
X137763391Y-73960291D01*
X137747626Y-73957642D01*
X137515600Y-74078783D01*
X137261600Y-74078783D01*
X137029574Y-73957642D01*
X137013809Y-73960291D01*
X136486564Y-74214268D01*
X136115061Y-74630069D01*
X135908270Y-74320585D01*
X135422089Y-73995729D01*
X134848600Y-73881655D01*
X134275111Y-73995729D01*
X133788930Y-74320585D01*
X133578600Y-74635366D01*
X133368270Y-74320585D01*
X132882089Y-73995729D01*
X132308600Y-73881655D01*
X131735111Y-73995729D01*
X131248930Y-74320585D01*
X131038600Y-74635366D01*
X130828270Y-74320585D01*
X130342089Y-73995729D01*
X129768600Y-73881655D01*
X129195111Y-73995729D01*
X128708930Y-74320585D01*
X128647502Y-74412518D01*
X128500291Y-74056239D01*
X128231521Y-73787000D01*
X175207394Y-73787000D01*
X176328000Y-74907606D01*
G36*
X123978345Y-74052293D02*
X123571464Y-75032173D01*
X123570538Y-76093172D01*
X123870313Y-76818682D01*
X122712815Y-75661185D01*
X122568864Y-75565000D01*
X122465605Y-75496004D01*
X122174000Y-75438000D01*
X118110000Y-75438000D01*
X117818395Y-75496004D01*
X117715136Y-75565000D01*
X117571185Y-75661185D01*
X115539185Y-77693185D01*
X115374004Y-77940395D01*
X115316000Y-78232000D01*
X115316000Y-100522369D01*
X114760069Y-101078301D01*
X114757015Y-101073730D01*
X114442234Y-100863400D01*
X114757015Y-100653070D01*
X115081871Y-100166889D01*
X115195945Y-99593400D01*
X115081871Y-99019911D01*
X114757015Y-98533730D01*
X114442234Y-98323400D01*
X114757015Y-98113070D01*
X115081871Y-97626889D01*
X115195945Y-97053400D01*
X115081871Y-96479911D01*
X114757015Y-95993730D01*
X114447531Y-95786939D01*
X114863332Y-95415436D01*
X115117309Y-94888191D01*
X115119958Y-94872426D01*
X114998817Y-94640400D01*
X113639600Y-94640400D01*
X113639600Y-94660400D01*
X113385600Y-94660400D01*
X113385600Y-94640400D01*
X113365600Y-94640400D01*
X113365600Y-94386400D01*
X113385600Y-94386400D01*
X113385600Y-93172476D01*
X113639600Y-93172476D01*
X113639600Y-94386400D01*
X114998817Y-94386400D01*
X115119958Y-94154374D01*
X115117309Y-94138609D01*
X114863332Y-93611364D01*
X114426920Y-93221446D01*
X113874513Y-93028216D01*
X113639600Y-93172476D01*
X113385600Y-93172476D01*
X113150687Y-93028216D01*
X112598280Y-93221446D01*
X112161868Y-93611364D01*
X111907891Y-94138609D01*
X111905242Y-94154374D01*
X112026382Y-94386398D01*
X111887000Y-94386398D01*
X111887000Y-73787000D01*
X124244102Y-73787000D01*
X123978345Y-74052293D01*
X123978345Y-74052293D01*
G37*
X123978345Y-74052293D02*
X123571464Y-75032173D01*
X123570538Y-76093172D01*
X123870313Y-76818682D01*
X122712815Y-75661185D01*
X122568864Y-75565000D01*
X122465605Y-75496004D01*
X122174000Y-75438000D01*
X118110000Y-75438000D01*
X117818395Y-75496004D01*
X117715136Y-75565000D01*
X117571185Y-75661185D01*
X115539185Y-77693185D01*
X115374004Y-77940395D01*
X115316000Y-78232000D01*
X115316000Y-100522369D01*
X114760069Y-101078301D01*
X114757015Y-101073730D01*
X114442234Y-100863400D01*
X114757015Y-100653070D01*
X115081871Y-100166889D01*
X115195945Y-99593400D01*
X115081871Y-99019911D01*
X114757015Y-98533730D01*
X114442234Y-98323400D01*
X114757015Y-98113070D01*
X115081871Y-97626889D01*
X115195945Y-97053400D01*
X115081871Y-96479911D01*
X114757015Y-95993730D01*
X114447531Y-95786939D01*
X114863332Y-95415436D01*
X115117309Y-94888191D01*
X115119958Y-94872426D01*
X114998817Y-94640400D01*
X113639600Y-94640400D01*
X113639600Y-94660400D01*
X113385600Y-94660400D01*
X113385600Y-94640400D01*
X113365600Y-94640400D01*
X113365600Y-94386400D01*
X113385600Y-94386400D01*
X113385600Y-93172476D01*
X113639600Y-93172476D01*
X113639600Y-94386400D01*
X114998817Y-94386400D01*
X115119958Y-94154374D01*
X115117309Y-94138609D01*
X114863332Y-93611364D01*
X114426920Y-93221446D01*
X113874513Y-93028216D01*
X113639600Y-93172476D01*
X113385600Y-93172476D01*
X113150687Y-93028216D01*
X112598280Y-93221446D01*
X112161868Y-93611364D01*
X111907891Y-94138609D01*
X111905242Y-94154374D01*
X112026382Y-94386398D01*
X111887000Y-94386398D01*
X111887000Y-73787000D01*
X124244102Y-73787000D01*
X123978345Y-74052293D01*
M02*
