G04 #@! TF.FileFunction,Copper,L2,Bot,Signal*
%FSLAX46Y46*%
G04 Gerber Fmt 4.6, Leading zero omitted, Abs format (unit mm)*
G04 Created by KiCad (PCBNEW 4.0.1-3.201512221402+6198~38~ubuntu14.04.1-stable) date Tue 03 May 2016 12:22:43 PM PDT*
%MOMM*%
G01*
G04 APERTURE LIST*
%ADD10C,0.100000*%
%ADD11O,1.727200X2.032000*%
%ADD12C,1.727200*%
%ADD13C,4.064000*%
%ADD14R,2.032000X1.727200*%
%ADD15O,2.032000X1.727200*%
%ADD16C,2.235200*%
%ADD17C,0.685800*%
%ADD18C,0.508000*%
%ADD19C,0.254000*%
G04 APERTURE END LIST*
D10*
D11*
X138887200Y-123825000D03*
X141427200Y-123825000D03*
X143967200Y-123825000D03*
X146507200Y-123825000D03*
X149047200Y-123825000D03*
X151587200Y-123825000D03*
X154127200Y-123825000D03*
X156667200Y-123825000D03*
X161772600Y-123825000D03*
X164312600Y-123825000D03*
X166852600Y-123825000D03*
X174472600Y-123825000D03*
X171932600Y-123825000D03*
X169392600Y-123825000D03*
X171932600Y-75565000D03*
X174472600Y-75565000D03*
X161772600Y-75565000D03*
X164312600Y-75565000D03*
X159232600Y-75565000D03*
X156692600Y-75565000D03*
X166852600Y-75565000D03*
X169392600Y-75565000D03*
X139928600Y-75565000D03*
X142468600Y-75565000D03*
X145008600Y-75565000D03*
X152628600Y-75565000D03*
X150088600Y-75565000D03*
X147548600Y-75565000D03*
X134848600Y-75565000D03*
X137388600Y-75565000D03*
X129768600Y-75565000D03*
X132308600Y-75565000D03*
D12*
X126187200Y-75615800D03*
D13*
X124968000Y-123825000D03*
X177038000Y-118745000D03*
X126238000Y-75565000D03*
X177038000Y-90805000D03*
D14*
X120777000Y-118033800D03*
D15*
X120777000Y-115493800D03*
X120777000Y-112953800D03*
X120777000Y-110413800D03*
X120777000Y-107873800D03*
X120777000Y-105333800D03*
X120777000Y-102793800D03*
X120777000Y-100253800D03*
X120777000Y-97713800D03*
X120777000Y-95173800D03*
X120777000Y-92633800D03*
X120777000Y-90093800D03*
X120777000Y-87553800D03*
X120777000Y-85013800D03*
X120777000Y-82473800D03*
X120777000Y-79933800D03*
D14*
X113512600Y-107213400D03*
D15*
X113512600Y-104673400D03*
X113512600Y-102133400D03*
X113512600Y-99593400D03*
X113512600Y-97053400D03*
X113512600Y-94513400D03*
D16*
X174498000Y-78867000D03*
X161798000Y-118745000D03*
X171958000Y-78867000D03*
X132334000Y-78867000D03*
X164338000Y-78867000D03*
X129794000Y-78867000D03*
D17*
X134874000Y-119380000D03*
X134874000Y-110490000D03*
X135128000Y-98552000D03*
X148082000Y-90932000D03*
X145034000Y-92964000D03*
X140970000Y-100838000D03*
X142494000Y-105156000D03*
X162052000Y-82042000D03*
X131826000Y-82042000D03*
X130733800Y-107873800D03*
X166624000Y-116840000D03*
X152654000Y-86868000D03*
X124460000Y-115824000D03*
X150368000Y-85598000D03*
X156718000Y-84074000D03*
X159258000Y-82804000D03*
D18*
X134874000Y-110974933D02*
X134874000Y-119380000D01*
X134874000Y-110490000D02*
X134874000Y-110974933D01*
X134874000Y-110490000D02*
X134874000Y-98806000D01*
X134874000Y-98806000D02*
X135128000Y-98552000D01*
X134848600Y-75565000D02*
X134848600Y-98272600D01*
X134848600Y-98272600D02*
X135128000Y-98552000D01*
D19*
X148082000Y-90932000D02*
X148082000Y-76098400D01*
X148082000Y-76098400D02*
X147548600Y-75565000D01*
X145034000Y-76860400D02*
X145034000Y-92964000D01*
X145008600Y-75565000D02*
X145008600Y-76835000D01*
X145008600Y-76835000D02*
X145034000Y-76860400D01*
X140970000Y-100838000D02*
X139928600Y-99796600D01*
X139928600Y-99796600D02*
X139928600Y-75565000D01*
X142494000Y-105156000D02*
X142494000Y-75590400D01*
X142494000Y-75590400D02*
X142468600Y-75565000D01*
X161772600Y-75565000D02*
X161772600Y-81762600D01*
X161772600Y-81762600D02*
X162052000Y-82042000D01*
X130733800Y-83134200D02*
X131826000Y-82042000D01*
X130733800Y-107873800D02*
X130733800Y-83134200D01*
X166852600Y-123825000D02*
X166852600Y-117068600D01*
X166852600Y-117068600D02*
X166624000Y-116840000D01*
X152654000Y-86868000D02*
X152654000Y-75590400D01*
X152654000Y-75590400D02*
X152628600Y-75565000D01*
X124460000Y-115824000D02*
X124460000Y-101244400D01*
X124460000Y-101244400D02*
X120929400Y-97713800D01*
X120929400Y-97713800D02*
X120777000Y-97713800D01*
X150368000Y-85598000D02*
X150368000Y-75844400D01*
X150368000Y-75844400D02*
X150088600Y-75565000D01*
X156718000Y-84074000D02*
X156718000Y-75590400D01*
X156718000Y-75590400D02*
X156692600Y-75565000D01*
X159232600Y-75565000D02*
X159232600Y-82778600D01*
X159232600Y-82778600D02*
X159258000Y-82804000D01*
G36*
X123978345Y-74052293D02*
X123571464Y-75032173D01*
X123570538Y-76093172D01*
X123975709Y-77073761D01*
X124725293Y-77824655D01*
X125705173Y-78231536D01*
X126766172Y-78232462D01*
X127746761Y-77827291D01*
X128497655Y-77077707D01*
X128647336Y-76717234D01*
X128708930Y-76809415D01*
X129195111Y-77134271D01*
X129332130Y-77161526D01*
X128802529Y-77380352D01*
X128309085Y-77872936D01*
X128041705Y-78516857D01*
X128041097Y-79214084D01*
X128307352Y-79858471D01*
X128799936Y-80351915D01*
X129443857Y-80619295D01*
X130141084Y-80619903D01*
X130785471Y-80353648D01*
X131064054Y-80075551D01*
X131339936Y-80351915D01*
X131983857Y-80619295D01*
X132681084Y-80619903D01*
X133325471Y-80353648D01*
X133818915Y-79861064D01*
X133959600Y-79522258D01*
X133959600Y-98272600D01*
X134025350Y-98603147D01*
X133985000Y-98806000D01*
X133985000Y-110080945D01*
X133896270Y-110294630D01*
X133895931Y-110683663D01*
X133985000Y-110899227D01*
X133985000Y-118970945D01*
X133896270Y-119184630D01*
X133895931Y-119573663D01*
X134044493Y-119933212D01*
X134319341Y-120208540D01*
X134678630Y-120357730D01*
X135067663Y-120358069D01*
X135427212Y-120209507D01*
X135702540Y-119934659D01*
X135851730Y-119575370D01*
X135852069Y-119186337D01*
X135813125Y-119092084D01*
X160045097Y-119092084D01*
X160311352Y-119736471D01*
X160803936Y-120229915D01*
X161447857Y-120497295D01*
X162145084Y-120497903D01*
X162789471Y-120231648D01*
X163282915Y-119739064D01*
X163550295Y-119095143D01*
X163550903Y-118397916D01*
X163284648Y-117753529D01*
X162792064Y-117260085D01*
X162148143Y-116992705D01*
X161450916Y-116992097D01*
X160806529Y-117258352D01*
X160313085Y-117750936D01*
X160045705Y-118394857D01*
X160045097Y-119092084D01*
X135813125Y-119092084D01*
X135763000Y-118970773D01*
X135763000Y-110899055D01*
X135851730Y-110685370D01*
X135852069Y-110296337D01*
X135807671Y-110188885D01*
X173333560Y-110188885D01*
X173543969Y-110698115D01*
X173933236Y-111088061D01*
X174442098Y-111299359D01*
X174993085Y-111299840D01*
X175502315Y-111089431D01*
X175892261Y-110700164D01*
X176103559Y-110191302D01*
X176104040Y-109640315D01*
X175893631Y-109131085D01*
X175504364Y-108741139D01*
X174995502Y-108529841D01*
X174444515Y-108529360D01*
X173935285Y-108739769D01*
X173545339Y-109129036D01*
X173334041Y-109637898D01*
X173333560Y-110188885D01*
X135807671Y-110188885D01*
X135763000Y-110080773D01*
X135763000Y-99299862D01*
X135956540Y-99106659D01*
X136105730Y-98747370D01*
X136106069Y-98358337D01*
X135957507Y-97998788D01*
X135737600Y-97778497D01*
X135737600Y-76923453D01*
X135908270Y-76809415D01*
X136115061Y-76499931D01*
X136486564Y-76915732D01*
X137013809Y-77169709D01*
X137029574Y-77172358D01*
X137261600Y-77051217D01*
X137261600Y-75692000D01*
X137241600Y-75692000D01*
X137241600Y-75438000D01*
X137261600Y-75438000D01*
X137261600Y-74078783D01*
X137515600Y-74078783D01*
X137515600Y-75438000D01*
X137535600Y-75438000D01*
X137535600Y-75692000D01*
X137515600Y-75692000D01*
X137515600Y-77051217D01*
X137747626Y-77172358D01*
X137763391Y-77169709D01*
X138290636Y-76915732D01*
X138662139Y-76499931D01*
X138868930Y-76809415D01*
X139166600Y-77008312D01*
X139166600Y-99796600D01*
X139224604Y-100088205D01*
X139354990Y-100283341D01*
X139389785Y-100335415D01*
X139992013Y-100937643D01*
X139991931Y-101031663D01*
X140140493Y-101391212D01*
X140415341Y-101666540D01*
X140774630Y-101815730D01*
X141163663Y-101816069D01*
X141523212Y-101667507D01*
X141732000Y-101459083D01*
X141732000Y-104534917D01*
X141665460Y-104601341D01*
X141516270Y-104960630D01*
X141515931Y-105349663D01*
X141664493Y-105709212D01*
X141939341Y-105984540D01*
X142298630Y-106133730D01*
X142687663Y-106134069D01*
X143047212Y-105985507D01*
X143322540Y-105710659D01*
X143471730Y-105351370D01*
X143472069Y-104962337D01*
X143323507Y-104602788D01*
X143256000Y-104535163D01*
X143256000Y-76991340D01*
X143528270Y-76809415D01*
X143738600Y-76494634D01*
X143948930Y-76809415D01*
X144272000Y-77025284D01*
X144272000Y-92342917D01*
X144205460Y-92409341D01*
X144056270Y-92768630D01*
X144055931Y-93157663D01*
X144204493Y-93517212D01*
X144479341Y-93792540D01*
X144838630Y-93941730D01*
X145227663Y-93942069D01*
X145587212Y-93793507D01*
X145862540Y-93518659D01*
X146011730Y-93159370D01*
X146012069Y-92770337D01*
X145863507Y-92410788D01*
X145796000Y-92343163D01*
X145796000Y-76991340D01*
X146068270Y-76809415D01*
X146278600Y-76494634D01*
X146488930Y-76809415D01*
X146975111Y-77134271D01*
X147320000Y-77202874D01*
X147320000Y-90310917D01*
X147253460Y-90377341D01*
X147104270Y-90736630D01*
X147103931Y-91125663D01*
X147252493Y-91485212D01*
X147527341Y-91760540D01*
X147886630Y-91909730D01*
X148275663Y-91910069D01*
X148635212Y-91761507D01*
X148910540Y-91486659D01*
X149059730Y-91127370D01*
X149060069Y-90738337D01*
X148911507Y-90378788D01*
X148844000Y-90311163D01*
X148844000Y-76532648D01*
X149028930Y-76809415D01*
X149515111Y-77134271D01*
X149606000Y-77152350D01*
X149606000Y-84976917D01*
X149539460Y-85043341D01*
X149390270Y-85402630D01*
X149389931Y-85791663D01*
X149538493Y-86151212D01*
X149813341Y-86426540D01*
X150172630Y-86575730D01*
X150561663Y-86576069D01*
X150921212Y-86427507D01*
X151196540Y-86152659D01*
X151345730Y-85793370D01*
X151346069Y-85404337D01*
X151197507Y-85044788D01*
X151130000Y-84977163D01*
X151130000Y-76821623D01*
X151148270Y-76809415D01*
X151358600Y-76494634D01*
X151568930Y-76809415D01*
X151892000Y-77025284D01*
X151892000Y-86246917D01*
X151825460Y-86313341D01*
X151676270Y-86672630D01*
X151675931Y-87061663D01*
X151824493Y-87421212D01*
X152099341Y-87696540D01*
X152458630Y-87845730D01*
X152847663Y-87846069D01*
X153207212Y-87697507D01*
X153482540Y-87422659D01*
X153631730Y-87063370D01*
X153632069Y-86674337D01*
X153483507Y-86314788D01*
X153416000Y-86247163D01*
X153416000Y-85988885D01*
X173333560Y-85988885D01*
X173543969Y-86498115D01*
X173933236Y-86888061D01*
X174442098Y-87099359D01*
X174993085Y-87099840D01*
X175502315Y-86889431D01*
X175892261Y-86500164D01*
X176103559Y-85991302D01*
X176104040Y-85440315D01*
X175893631Y-84931085D01*
X175504364Y-84541139D01*
X174995502Y-84329841D01*
X174444515Y-84329360D01*
X173935285Y-84539769D01*
X173545339Y-84929036D01*
X173334041Y-85437898D01*
X173333560Y-85988885D01*
X153416000Y-85988885D01*
X153416000Y-76991340D01*
X153688270Y-76809415D01*
X154013126Y-76323234D01*
X154127200Y-75749745D01*
X154127200Y-75380255D01*
X155194000Y-75380255D01*
X155194000Y-75749745D01*
X155308074Y-76323234D01*
X155632930Y-76809415D01*
X155956000Y-77025284D01*
X155956000Y-83452917D01*
X155889460Y-83519341D01*
X155740270Y-83878630D01*
X155739931Y-84267663D01*
X155888493Y-84627212D01*
X156163341Y-84902540D01*
X156522630Y-85051730D01*
X156911663Y-85052069D01*
X157271212Y-84903507D01*
X157546540Y-84628659D01*
X157695730Y-84269370D01*
X157696069Y-83880337D01*
X157547507Y-83520788D01*
X157480000Y-83453163D01*
X157480000Y-76991340D01*
X157752270Y-76809415D01*
X157962600Y-76494634D01*
X158172930Y-76809415D01*
X158470600Y-77008312D01*
X158470600Y-82208273D01*
X158429460Y-82249341D01*
X158280270Y-82608630D01*
X158279931Y-82997663D01*
X158428493Y-83357212D01*
X158703341Y-83632540D01*
X159062630Y-83781730D01*
X159451663Y-83782069D01*
X159811212Y-83633507D01*
X160086540Y-83358659D01*
X160235730Y-82999370D01*
X160236069Y-82610337D01*
X160087507Y-82250788D01*
X159994600Y-82157719D01*
X159994600Y-77008312D01*
X160292270Y-76809415D01*
X160502600Y-76494634D01*
X160712930Y-76809415D01*
X161010600Y-77008312D01*
X161010600Y-81762600D01*
X161068604Y-82054205D01*
X161074082Y-82062403D01*
X161073931Y-82235663D01*
X161222493Y-82595212D01*
X161497341Y-82870540D01*
X161856630Y-83019730D01*
X162245663Y-83020069D01*
X162605212Y-82871507D01*
X162880540Y-82596659D01*
X163029730Y-82237370D01*
X163030069Y-81848337D01*
X162881507Y-81488788D01*
X162606659Y-81213460D01*
X162534600Y-81183538D01*
X162534600Y-77008312D01*
X162832270Y-76809415D01*
X163042600Y-76494634D01*
X163252930Y-76809415D01*
X163739111Y-77134271D01*
X163876130Y-77161526D01*
X163346529Y-77380352D01*
X162853085Y-77872936D01*
X162585705Y-78516857D01*
X162585097Y-79214084D01*
X162851352Y-79858471D01*
X163343936Y-80351915D01*
X163987857Y-80619295D01*
X164685084Y-80619903D01*
X165329471Y-80353648D01*
X165822915Y-79861064D01*
X166090295Y-79217143D01*
X166090903Y-78519916D01*
X165824648Y-77875529D01*
X165332064Y-77382085D01*
X164784113Y-77154555D01*
X164886089Y-77134271D01*
X165372270Y-76809415D01*
X165582600Y-76494634D01*
X165792930Y-76809415D01*
X166279111Y-77134271D01*
X166852600Y-77248345D01*
X167426089Y-77134271D01*
X167912270Y-76809415D01*
X168122600Y-76494634D01*
X168332930Y-76809415D01*
X168819111Y-77134271D01*
X169392600Y-77248345D01*
X169966089Y-77134271D01*
X170452270Y-76809415D01*
X170662600Y-76494634D01*
X170872930Y-76809415D01*
X171359111Y-77134271D01*
X171496130Y-77161526D01*
X170966529Y-77380352D01*
X170473085Y-77872936D01*
X170205705Y-78516857D01*
X170205097Y-79214084D01*
X170471352Y-79858471D01*
X170963936Y-80351915D01*
X171607857Y-80619295D01*
X172305084Y-80619903D01*
X172949471Y-80353648D01*
X173228054Y-80075551D01*
X173503936Y-80351915D01*
X174147857Y-80619295D01*
X174845084Y-80619903D01*
X175489471Y-80353648D01*
X175982915Y-79861064D01*
X176250295Y-79217143D01*
X176250903Y-78519916D01*
X175984648Y-77875529D01*
X175492064Y-77382085D01*
X174944113Y-77154555D01*
X175046089Y-77134271D01*
X175532270Y-76809415D01*
X175857126Y-76323234D01*
X175971200Y-75749745D01*
X175971200Y-75380255D01*
X175857126Y-74806766D01*
X175532270Y-74320585D01*
X175046089Y-73995729D01*
X174472600Y-73881655D01*
X173899111Y-73995729D01*
X173412930Y-74320585D01*
X173202600Y-74635366D01*
X172992270Y-74320585D01*
X172506089Y-73995729D01*
X171932600Y-73881655D01*
X171359111Y-73995729D01*
X170872930Y-74320585D01*
X170662600Y-74635366D01*
X170452270Y-74320585D01*
X169966089Y-73995729D01*
X169392600Y-73881655D01*
X168819111Y-73995729D01*
X168332930Y-74320585D01*
X168122600Y-74635366D01*
X167912270Y-74320585D01*
X167426089Y-73995729D01*
X166852600Y-73881655D01*
X166279111Y-73995729D01*
X165792930Y-74320585D01*
X165582600Y-74635366D01*
X165372270Y-74320585D01*
X164886089Y-73995729D01*
X164312600Y-73881655D01*
X163739111Y-73995729D01*
X163252930Y-74320585D01*
X163042600Y-74635366D01*
X162832270Y-74320585D01*
X162346089Y-73995729D01*
X161772600Y-73881655D01*
X161199111Y-73995729D01*
X160712930Y-74320585D01*
X160502600Y-74635366D01*
X160292270Y-74320585D01*
X159806089Y-73995729D01*
X159232600Y-73881655D01*
X158659111Y-73995729D01*
X158172930Y-74320585D01*
X157962600Y-74635366D01*
X157752270Y-74320585D01*
X157266089Y-73995729D01*
X156692600Y-73881655D01*
X156119111Y-73995729D01*
X155632930Y-74320585D01*
X155308074Y-74806766D01*
X155194000Y-75380255D01*
X154127200Y-75380255D01*
X154013126Y-74806766D01*
X153688270Y-74320585D01*
X153202089Y-73995729D01*
X152628600Y-73881655D01*
X152055111Y-73995729D01*
X151568930Y-74320585D01*
X151358600Y-74635366D01*
X151148270Y-74320585D01*
X150662089Y-73995729D01*
X150088600Y-73881655D01*
X149515111Y-73995729D01*
X149028930Y-74320585D01*
X148818600Y-74635366D01*
X148608270Y-74320585D01*
X148122089Y-73995729D01*
X147548600Y-73881655D01*
X146975111Y-73995729D01*
X146488930Y-74320585D01*
X146278600Y-74635366D01*
X146068270Y-74320585D01*
X145582089Y-73995729D01*
X145008600Y-73881655D01*
X144435111Y-73995729D01*
X143948930Y-74320585D01*
X143738600Y-74635366D01*
X143528270Y-74320585D01*
X143042089Y-73995729D01*
X142468600Y-73881655D01*
X141895111Y-73995729D01*
X141408930Y-74320585D01*
X141198600Y-74635366D01*
X140988270Y-74320585D01*
X140502089Y-73995729D01*
X139928600Y-73881655D01*
X139355111Y-73995729D01*
X138868930Y-74320585D01*
X138662139Y-74630069D01*
X138290636Y-74214268D01*
X137763391Y-73960291D01*
X137747626Y-73957642D01*
X137515600Y-74078783D01*
X137261600Y-74078783D01*
X137029574Y-73957642D01*
X137013809Y-73960291D01*
X136486564Y-74214268D01*
X136115061Y-74630069D01*
X135908270Y-74320585D01*
X135422089Y-73995729D01*
X134848600Y-73881655D01*
X134275111Y-73995729D01*
X133788930Y-74320585D01*
X133578600Y-74635366D01*
X133368270Y-74320585D01*
X132882089Y-73995729D01*
X132308600Y-73881655D01*
X131735111Y-73995729D01*
X131248930Y-74320585D01*
X131038600Y-74635366D01*
X130828270Y-74320585D01*
X130342089Y-73995729D01*
X129768600Y-73881655D01*
X129195111Y-73995729D01*
X128708930Y-74320585D01*
X128647502Y-74412518D01*
X128500291Y-74056239D01*
X128231521Y-73787000D01*
X175080394Y-73787000D01*
X176276000Y-74982606D01*
X176276000Y-86360000D01*
X176286006Y-86409410D01*
X176313197Y-86449803D01*
X178307929Y-88444535D01*
X177570827Y-88138464D01*
X176509828Y-88137538D01*
X175529239Y-88542709D01*
X174778345Y-89292293D01*
X174371464Y-90272173D01*
X174370538Y-91333172D01*
X174775709Y-92313761D01*
X175525293Y-93064655D01*
X176505173Y-93471536D01*
X177566172Y-93472462D01*
X178546761Y-93067291D01*
X178816000Y-92798521D01*
X178816000Y-116751102D01*
X178550707Y-116485345D01*
X177570827Y-116078464D01*
X176509828Y-116077538D01*
X175529239Y-116482709D01*
X174778345Y-117232293D01*
X174371464Y-118212173D01*
X174370538Y-119273172D01*
X174775709Y-120253761D01*
X175525293Y-121004655D01*
X176505173Y-121411536D01*
X177566172Y-121412462D01*
X178546761Y-121007291D01*
X178816000Y-120738521D01*
X178816000Y-121042909D01*
X176535954Y-123322954D01*
X176382046Y-123553295D01*
X176353974Y-123694420D01*
X176313197Y-123735197D01*
X176285334Y-123777211D01*
X176276000Y-123825000D01*
X176276000Y-125603000D01*
X126961898Y-125603000D01*
X127227655Y-125337707D01*
X127634536Y-124357827D01*
X127635162Y-123640255D01*
X137388600Y-123640255D01*
X137388600Y-124009745D01*
X137502674Y-124583234D01*
X137827530Y-125069415D01*
X138313711Y-125394271D01*
X138887200Y-125508345D01*
X139460689Y-125394271D01*
X139946870Y-125069415D01*
X140157200Y-124754634D01*
X140367530Y-125069415D01*
X140853711Y-125394271D01*
X141427200Y-125508345D01*
X142000689Y-125394271D01*
X142486870Y-125069415D01*
X142697200Y-124754634D01*
X142907530Y-125069415D01*
X143393711Y-125394271D01*
X143967200Y-125508345D01*
X144540689Y-125394271D01*
X145026870Y-125069415D01*
X145237200Y-124754634D01*
X145447530Y-125069415D01*
X145933711Y-125394271D01*
X146507200Y-125508345D01*
X147080689Y-125394271D01*
X147566870Y-125069415D01*
X147777200Y-124754634D01*
X147987530Y-125069415D01*
X148473711Y-125394271D01*
X149047200Y-125508345D01*
X149620689Y-125394271D01*
X150106870Y-125069415D01*
X150313661Y-124759931D01*
X150685164Y-125175732D01*
X151212409Y-125429709D01*
X151228174Y-125432358D01*
X151460200Y-125311217D01*
X151460200Y-123952000D01*
X151714200Y-123952000D01*
X151714200Y-125311217D01*
X151946226Y-125432358D01*
X151961991Y-125429709D01*
X152489236Y-125175732D01*
X152857200Y-124763892D01*
X153225164Y-125175732D01*
X153752409Y-125429709D01*
X153768174Y-125432358D01*
X154000200Y-125311217D01*
X154000200Y-123952000D01*
X151714200Y-123952000D01*
X151460200Y-123952000D01*
X151440200Y-123952000D01*
X151440200Y-123698000D01*
X151460200Y-123698000D01*
X151460200Y-122338783D01*
X151714200Y-122338783D01*
X151714200Y-123698000D01*
X154000200Y-123698000D01*
X154000200Y-122338783D01*
X154254200Y-122338783D01*
X154254200Y-123698000D01*
X154274200Y-123698000D01*
X154274200Y-123952000D01*
X154254200Y-123952000D01*
X154254200Y-125311217D01*
X154486226Y-125432358D01*
X154501991Y-125429709D01*
X155029236Y-125175732D01*
X155400739Y-124759931D01*
X155607530Y-125069415D01*
X156093711Y-125394271D01*
X156667200Y-125508345D01*
X157240689Y-125394271D01*
X157726870Y-125069415D01*
X158051726Y-124583234D01*
X158165800Y-124009745D01*
X158165800Y-123640255D01*
X160274000Y-123640255D01*
X160274000Y-124009745D01*
X160388074Y-124583234D01*
X160712930Y-125069415D01*
X161199111Y-125394271D01*
X161772600Y-125508345D01*
X162346089Y-125394271D01*
X162832270Y-125069415D01*
X163042600Y-124754634D01*
X163252930Y-125069415D01*
X163739111Y-125394271D01*
X164312600Y-125508345D01*
X164886089Y-125394271D01*
X165372270Y-125069415D01*
X165582600Y-124754634D01*
X165792930Y-125069415D01*
X166279111Y-125394271D01*
X166852600Y-125508345D01*
X167426089Y-125394271D01*
X167912270Y-125069415D01*
X168122600Y-124754634D01*
X168332930Y-125069415D01*
X168819111Y-125394271D01*
X169392600Y-125508345D01*
X169966089Y-125394271D01*
X170452270Y-125069415D01*
X170662600Y-124754634D01*
X170872930Y-125069415D01*
X171359111Y-125394271D01*
X171932600Y-125508345D01*
X172506089Y-125394271D01*
X172992270Y-125069415D01*
X173202600Y-124754634D01*
X173412930Y-125069415D01*
X173899111Y-125394271D01*
X174472600Y-125508345D01*
X175046089Y-125394271D01*
X175532270Y-125069415D01*
X175857126Y-124583234D01*
X175971200Y-124009745D01*
X175971200Y-123640255D01*
X175857126Y-123066766D01*
X175532270Y-122580585D01*
X175046089Y-122255729D01*
X174472600Y-122141655D01*
X173899111Y-122255729D01*
X173412930Y-122580585D01*
X173202600Y-122895366D01*
X172992270Y-122580585D01*
X172506089Y-122255729D01*
X171932600Y-122141655D01*
X171359111Y-122255729D01*
X170872930Y-122580585D01*
X170662600Y-122895366D01*
X170452270Y-122580585D01*
X169966089Y-122255729D01*
X169392600Y-122141655D01*
X168819111Y-122255729D01*
X168332930Y-122580585D01*
X168122600Y-122895366D01*
X167912270Y-122580585D01*
X167614600Y-122381688D01*
X167614600Y-117068600D01*
X167601757Y-117004036D01*
X167602069Y-116646337D01*
X167453507Y-116286788D01*
X167178659Y-116011460D01*
X166819370Y-115862270D01*
X166430337Y-115861931D01*
X166070788Y-116010493D01*
X165795460Y-116285341D01*
X165646270Y-116644630D01*
X165645931Y-117033663D01*
X165794493Y-117393212D01*
X166069341Y-117668540D01*
X166090600Y-117677368D01*
X166090600Y-122381688D01*
X165792930Y-122580585D01*
X165582600Y-122895366D01*
X165372270Y-122580585D01*
X164886089Y-122255729D01*
X164312600Y-122141655D01*
X163739111Y-122255729D01*
X163252930Y-122580585D01*
X163042600Y-122895366D01*
X162832270Y-122580585D01*
X162346089Y-122255729D01*
X161772600Y-122141655D01*
X161199111Y-122255729D01*
X160712930Y-122580585D01*
X160388074Y-123066766D01*
X160274000Y-123640255D01*
X158165800Y-123640255D01*
X158051726Y-123066766D01*
X157726870Y-122580585D01*
X157240689Y-122255729D01*
X156667200Y-122141655D01*
X156093711Y-122255729D01*
X155607530Y-122580585D01*
X155400739Y-122890069D01*
X155029236Y-122474268D01*
X154501991Y-122220291D01*
X154486226Y-122217642D01*
X154254200Y-122338783D01*
X154000200Y-122338783D01*
X153768174Y-122217642D01*
X153752409Y-122220291D01*
X153225164Y-122474268D01*
X152857200Y-122886108D01*
X152489236Y-122474268D01*
X151961991Y-122220291D01*
X151946226Y-122217642D01*
X151714200Y-122338783D01*
X151460200Y-122338783D01*
X151228174Y-122217642D01*
X151212409Y-122220291D01*
X150685164Y-122474268D01*
X150313661Y-122890069D01*
X150106870Y-122580585D01*
X149620689Y-122255729D01*
X149047200Y-122141655D01*
X148473711Y-122255729D01*
X147987530Y-122580585D01*
X147777200Y-122895366D01*
X147566870Y-122580585D01*
X147080689Y-122255729D01*
X146507200Y-122141655D01*
X145933711Y-122255729D01*
X145447530Y-122580585D01*
X145237200Y-122895366D01*
X145026870Y-122580585D01*
X144540689Y-122255729D01*
X143967200Y-122141655D01*
X143393711Y-122255729D01*
X142907530Y-122580585D01*
X142697200Y-122895366D01*
X142486870Y-122580585D01*
X142000689Y-122255729D01*
X141427200Y-122141655D01*
X140853711Y-122255729D01*
X140367530Y-122580585D01*
X140157200Y-122895366D01*
X139946870Y-122580585D01*
X139460689Y-122255729D01*
X138887200Y-122141655D01*
X138313711Y-122255729D01*
X137827530Y-122580585D01*
X137502674Y-123066766D01*
X137388600Y-123640255D01*
X127635162Y-123640255D01*
X127635462Y-123296828D01*
X127230291Y-122316239D01*
X126480707Y-121565345D01*
X125500827Y-121158464D01*
X124439828Y-121157538D01*
X123459239Y-121562709D01*
X122708345Y-122312293D01*
X122301464Y-123292173D01*
X122300538Y-124353172D01*
X122705709Y-125333761D01*
X122974479Y-125603000D01*
X111760000Y-125603000D01*
X111760000Y-115493800D01*
X119093655Y-115493800D01*
X119207729Y-116067289D01*
X119532585Y-116553470D01*
X119546913Y-116563043D01*
X119525683Y-116567038D01*
X119309559Y-116706110D01*
X119164569Y-116918310D01*
X119113560Y-117170200D01*
X119113560Y-118897400D01*
X119157838Y-119132717D01*
X119296910Y-119348841D01*
X119509110Y-119493831D01*
X119761000Y-119544840D01*
X121793000Y-119544840D01*
X122028317Y-119500562D01*
X122244441Y-119361490D01*
X122389431Y-119149290D01*
X122440440Y-118897400D01*
X122440440Y-117170200D01*
X122396162Y-116934883D01*
X122257090Y-116718759D01*
X122044890Y-116573769D01*
X122003561Y-116565400D01*
X122021415Y-116553470D01*
X122346271Y-116067289D01*
X122460345Y-115493800D01*
X122346271Y-114920311D01*
X122021415Y-114434130D01*
X121711931Y-114227339D01*
X122127732Y-113855836D01*
X122381709Y-113328591D01*
X122384358Y-113312826D01*
X122263217Y-113080800D01*
X120904000Y-113080800D01*
X120904000Y-113100800D01*
X120650000Y-113100800D01*
X120650000Y-113080800D01*
X119290783Y-113080800D01*
X119169642Y-113312826D01*
X119172291Y-113328591D01*
X119426268Y-113855836D01*
X119842069Y-114227339D01*
X119532585Y-114434130D01*
X119207729Y-114920311D01*
X119093655Y-115493800D01*
X111760000Y-115493800D01*
X111760000Y-97053400D01*
X111829255Y-97053400D01*
X111943329Y-97626889D01*
X112268185Y-98113070D01*
X112582966Y-98323400D01*
X112268185Y-98533730D01*
X111943329Y-99019911D01*
X111829255Y-99593400D01*
X111943329Y-100166889D01*
X112268185Y-100653070D01*
X112582966Y-100863400D01*
X112268185Y-101073730D01*
X111943329Y-101559911D01*
X111829255Y-102133400D01*
X111943329Y-102706889D01*
X112268185Y-103193070D01*
X112582966Y-103403400D01*
X112268185Y-103613730D01*
X111943329Y-104099911D01*
X111829255Y-104673400D01*
X111943329Y-105246889D01*
X112268185Y-105733070D01*
X112282513Y-105742643D01*
X112261283Y-105746638D01*
X112045159Y-105885710D01*
X111900169Y-106097910D01*
X111849160Y-106349800D01*
X111849160Y-108077000D01*
X111893438Y-108312317D01*
X112032510Y-108528441D01*
X112244710Y-108673431D01*
X112496600Y-108724440D01*
X114528600Y-108724440D01*
X114763917Y-108680162D01*
X114980041Y-108541090D01*
X115125031Y-108328890D01*
X115176040Y-108077000D01*
X115176040Y-106349800D01*
X115131762Y-106114483D01*
X114992690Y-105898359D01*
X114780490Y-105753369D01*
X114739161Y-105745000D01*
X114757015Y-105733070D01*
X115081871Y-105246889D01*
X115195945Y-104673400D01*
X115081871Y-104099911D01*
X114757015Y-103613730D01*
X114442234Y-103403400D01*
X114757015Y-103193070D01*
X115081871Y-102706889D01*
X115195945Y-102133400D01*
X115081871Y-101559911D01*
X114757015Y-101073730D01*
X114442234Y-100863400D01*
X114757015Y-100653070D01*
X115081871Y-100166889D01*
X115195945Y-99593400D01*
X115081871Y-99019911D01*
X114757015Y-98533730D01*
X114442234Y-98323400D01*
X114757015Y-98113070D01*
X115081871Y-97626889D01*
X115195945Y-97053400D01*
X115081871Y-96479911D01*
X114757015Y-95993730D01*
X114447531Y-95786939D01*
X114863332Y-95415436D01*
X115117309Y-94888191D01*
X115119958Y-94872426D01*
X114998817Y-94640400D01*
X113639600Y-94640400D01*
X113639600Y-94660400D01*
X113385600Y-94660400D01*
X113385600Y-94640400D01*
X112026383Y-94640400D01*
X111905242Y-94872426D01*
X111907891Y-94888191D01*
X112161868Y-95415436D01*
X112577669Y-95786939D01*
X112268185Y-95993730D01*
X111943329Y-96479911D01*
X111829255Y-97053400D01*
X111760000Y-97053400D01*
X111760000Y-94154374D01*
X111905242Y-94154374D01*
X112026383Y-94386400D01*
X113385600Y-94386400D01*
X113385600Y-93172476D01*
X113639600Y-93172476D01*
X113639600Y-94386400D01*
X114998817Y-94386400D01*
X115119958Y-94154374D01*
X115117309Y-94138609D01*
X114863332Y-93611364D01*
X114426920Y-93221446D01*
X113874513Y-93028216D01*
X113639600Y-93172476D01*
X113385600Y-93172476D01*
X113150687Y-93028216D01*
X112598280Y-93221446D01*
X112161868Y-93611364D01*
X111907891Y-94138609D01*
X111905242Y-94154374D01*
X111760000Y-94154374D01*
X111760000Y-79933800D01*
X119093655Y-79933800D01*
X119207729Y-80507289D01*
X119532585Y-80993470D01*
X119847366Y-81203800D01*
X119532585Y-81414130D01*
X119207729Y-81900311D01*
X119093655Y-82473800D01*
X119207729Y-83047289D01*
X119532585Y-83533470D01*
X119847366Y-83743800D01*
X119532585Y-83954130D01*
X119207729Y-84440311D01*
X119093655Y-85013800D01*
X119207729Y-85587289D01*
X119532585Y-86073470D01*
X119847366Y-86283800D01*
X119532585Y-86494130D01*
X119207729Y-86980311D01*
X119093655Y-87553800D01*
X119207729Y-88127289D01*
X119532585Y-88613470D01*
X119847366Y-88823800D01*
X119532585Y-89034130D01*
X119207729Y-89520311D01*
X119093655Y-90093800D01*
X119207729Y-90667289D01*
X119532585Y-91153470D01*
X119847366Y-91363800D01*
X119532585Y-91574130D01*
X119207729Y-92060311D01*
X119093655Y-92633800D01*
X119207729Y-93207289D01*
X119532585Y-93693470D01*
X119847366Y-93903800D01*
X119532585Y-94114130D01*
X119207729Y-94600311D01*
X119093655Y-95173800D01*
X119207729Y-95747289D01*
X119532585Y-96233470D01*
X119847366Y-96443800D01*
X119532585Y-96654130D01*
X119207729Y-97140311D01*
X119093655Y-97713800D01*
X119207729Y-98287289D01*
X119532585Y-98773470D01*
X119847366Y-98983800D01*
X119532585Y-99194130D01*
X119207729Y-99680311D01*
X119093655Y-100253800D01*
X119207729Y-100827289D01*
X119532585Y-101313470D01*
X119847366Y-101523800D01*
X119532585Y-101734130D01*
X119207729Y-102220311D01*
X119093655Y-102793800D01*
X119207729Y-103367289D01*
X119532585Y-103853470D01*
X119847366Y-104063800D01*
X119532585Y-104274130D01*
X119207729Y-104760311D01*
X119093655Y-105333800D01*
X119207729Y-105907289D01*
X119532585Y-106393470D01*
X119847366Y-106603800D01*
X119532585Y-106814130D01*
X119207729Y-107300311D01*
X119093655Y-107873800D01*
X119207729Y-108447289D01*
X119532585Y-108933470D01*
X119847366Y-109143800D01*
X119532585Y-109354130D01*
X119207729Y-109840311D01*
X119093655Y-110413800D01*
X119207729Y-110987289D01*
X119532585Y-111473470D01*
X119842069Y-111680261D01*
X119426268Y-112051764D01*
X119172291Y-112579009D01*
X119169642Y-112594774D01*
X119290783Y-112826800D01*
X120650000Y-112826800D01*
X120650000Y-112806800D01*
X120904000Y-112806800D01*
X120904000Y-112826800D01*
X122263217Y-112826800D01*
X122384358Y-112594774D01*
X122381709Y-112579009D01*
X122127732Y-112051764D01*
X121711931Y-111680261D01*
X122021415Y-111473470D01*
X122346271Y-110987289D01*
X122460345Y-110413800D01*
X122346271Y-109840311D01*
X122021415Y-109354130D01*
X121706634Y-109143800D01*
X122021415Y-108933470D01*
X122346271Y-108447289D01*
X122460345Y-107873800D01*
X122346271Y-107300311D01*
X122021415Y-106814130D01*
X121706634Y-106603800D01*
X122021415Y-106393470D01*
X122346271Y-105907289D01*
X122460345Y-105333800D01*
X122346271Y-104760311D01*
X122021415Y-104274130D01*
X121706634Y-104063800D01*
X122021415Y-103853470D01*
X122346271Y-103367289D01*
X122460345Y-102793800D01*
X122346271Y-102220311D01*
X122021415Y-101734130D01*
X121706634Y-101523800D01*
X122021415Y-101313470D01*
X122346271Y-100827289D01*
X122448968Y-100310998D01*
X123698000Y-101560031D01*
X123698000Y-115202917D01*
X123631460Y-115269341D01*
X123482270Y-115628630D01*
X123481931Y-116017663D01*
X123630493Y-116377212D01*
X123905341Y-116652540D01*
X124264630Y-116801730D01*
X124653663Y-116802069D01*
X125013212Y-116653507D01*
X125288540Y-116378659D01*
X125437730Y-116019370D01*
X125438069Y-115630337D01*
X125289507Y-115270788D01*
X125222000Y-115203163D01*
X125222000Y-108067463D01*
X129755731Y-108067463D01*
X129904293Y-108427012D01*
X130179141Y-108702340D01*
X130538430Y-108851530D01*
X130927463Y-108851869D01*
X131287012Y-108703307D01*
X131562340Y-108428459D01*
X131711530Y-108069170D01*
X131711869Y-107680137D01*
X131563307Y-107320588D01*
X131495800Y-107252963D01*
X131495800Y-83449830D01*
X131925643Y-83019987D01*
X132019663Y-83020069D01*
X132379212Y-82871507D01*
X132654540Y-82596659D01*
X132803730Y-82237370D01*
X132804069Y-81848337D01*
X132655507Y-81488788D01*
X132380659Y-81213460D01*
X132021370Y-81064270D01*
X131632337Y-81063931D01*
X131272788Y-81212493D01*
X130997460Y-81487341D01*
X130848270Y-81846630D01*
X130848187Y-81942183D01*
X130194985Y-82595385D01*
X130029804Y-82842595D01*
X129971800Y-83134200D01*
X129971800Y-107252717D01*
X129905260Y-107319141D01*
X129756070Y-107678430D01*
X129755731Y-108067463D01*
X125222000Y-108067463D01*
X125222000Y-101244400D01*
X125163996Y-100952795D01*
X125087292Y-100838000D01*
X124998815Y-100705584D01*
X122385135Y-98091905D01*
X122460345Y-97713800D01*
X122346271Y-97140311D01*
X122021415Y-96654130D01*
X121706634Y-96443800D01*
X122021415Y-96233470D01*
X122346271Y-95747289D01*
X122460345Y-95173800D01*
X122346271Y-94600311D01*
X122021415Y-94114130D01*
X121706634Y-93903800D01*
X122021415Y-93693470D01*
X122346271Y-93207289D01*
X122460345Y-92633800D01*
X122346271Y-92060311D01*
X122021415Y-91574130D01*
X121706634Y-91363800D01*
X122021415Y-91153470D01*
X122346271Y-90667289D01*
X122460345Y-90093800D01*
X122346271Y-89520311D01*
X122021415Y-89034130D01*
X121706634Y-88823800D01*
X122021415Y-88613470D01*
X122346271Y-88127289D01*
X122460345Y-87553800D01*
X122346271Y-86980311D01*
X122021415Y-86494130D01*
X121706634Y-86283800D01*
X122021415Y-86073470D01*
X122346271Y-85587289D01*
X122460345Y-85013800D01*
X122346271Y-84440311D01*
X122021415Y-83954130D01*
X121706634Y-83743800D01*
X122021415Y-83533470D01*
X122346271Y-83047289D01*
X122460345Y-82473800D01*
X122346271Y-81900311D01*
X122021415Y-81414130D01*
X121706634Y-81203800D01*
X122021415Y-80993470D01*
X122346271Y-80507289D01*
X122460345Y-79933800D01*
X122346271Y-79360311D01*
X122021415Y-78874130D01*
X121535234Y-78549274D01*
X120961745Y-78435200D01*
X120592255Y-78435200D01*
X120018766Y-78549274D01*
X119532585Y-78874130D01*
X119207729Y-79360311D01*
X119093655Y-79933800D01*
X111760000Y-79933800D01*
X111760000Y-73787000D01*
X124244102Y-73787000D01*
X123978345Y-74052293D01*
X123978345Y-74052293D01*
G37*
X123978345Y-74052293D02*
X123571464Y-75032173D01*
X123570538Y-76093172D01*
X123975709Y-77073761D01*
X124725293Y-77824655D01*
X125705173Y-78231536D01*
X126766172Y-78232462D01*
X127746761Y-77827291D01*
X128497655Y-77077707D01*
X128647336Y-76717234D01*
X128708930Y-76809415D01*
X129195111Y-77134271D01*
X129332130Y-77161526D01*
X128802529Y-77380352D01*
X128309085Y-77872936D01*
X128041705Y-78516857D01*
X128041097Y-79214084D01*
X128307352Y-79858471D01*
X128799936Y-80351915D01*
X129443857Y-80619295D01*
X130141084Y-80619903D01*
X130785471Y-80353648D01*
X131064054Y-80075551D01*
X131339936Y-80351915D01*
X131983857Y-80619295D01*
X132681084Y-80619903D01*
X133325471Y-80353648D01*
X133818915Y-79861064D01*
X133959600Y-79522258D01*
X133959600Y-98272600D01*
X134025350Y-98603147D01*
X133985000Y-98806000D01*
X133985000Y-110080945D01*
X133896270Y-110294630D01*
X133895931Y-110683663D01*
X133985000Y-110899227D01*
X133985000Y-118970945D01*
X133896270Y-119184630D01*
X133895931Y-119573663D01*
X134044493Y-119933212D01*
X134319341Y-120208540D01*
X134678630Y-120357730D01*
X135067663Y-120358069D01*
X135427212Y-120209507D01*
X135702540Y-119934659D01*
X135851730Y-119575370D01*
X135852069Y-119186337D01*
X135813125Y-119092084D01*
X160045097Y-119092084D01*
X160311352Y-119736471D01*
X160803936Y-120229915D01*
X161447857Y-120497295D01*
X162145084Y-120497903D01*
X162789471Y-120231648D01*
X163282915Y-119739064D01*
X163550295Y-119095143D01*
X163550903Y-118397916D01*
X163284648Y-117753529D01*
X162792064Y-117260085D01*
X162148143Y-116992705D01*
X161450916Y-116992097D01*
X160806529Y-117258352D01*
X160313085Y-117750936D01*
X160045705Y-118394857D01*
X160045097Y-119092084D01*
X135813125Y-119092084D01*
X135763000Y-118970773D01*
X135763000Y-110899055D01*
X135851730Y-110685370D01*
X135852069Y-110296337D01*
X135807671Y-110188885D01*
X173333560Y-110188885D01*
X173543969Y-110698115D01*
X173933236Y-111088061D01*
X174442098Y-111299359D01*
X174993085Y-111299840D01*
X175502315Y-111089431D01*
X175892261Y-110700164D01*
X176103559Y-110191302D01*
X176104040Y-109640315D01*
X175893631Y-109131085D01*
X175504364Y-108741139D01*
X174995502Y-108529841D01*
X174444515Y-108529360D01*
X173935285Y-108739769D01*
X173545339Y-109129036D01*
X173334041Y-109637898D01*
X173333560Y-110188885D01*
X135807671Y-110188885D01*
X135763000Y-110080773D01*
X135763000Y-99299862D01*
X135956540Y-99106659D01*
X136105730Y-98747370D01*
X136106069Y-98358337D01*
X135957507Y-97998788D01*
X135737600Y-97778497D01*
X135737600Y-76923453D01*
X135908270Y-76809415D01*
X136115061Y-76499931D01*
X136486564Y-76915732D01*
X137013809Y-77169709D01*
X137029574Y-77172358D01*
X137261600Y-77051217D01*
X137261600Y-75692000D01*
X137241600Y-75692000D01*
X137241600Y-75438000D01*
X137261600Y-75438000D01*
X137261600Y-74078783D01*
X137515600Y-74078783D01*
X137515600Y-75438000D01*
X137535600Y-75438000D01*
X137535600Y-75692000D01*
X137515600Y-75692000D01*
X137515600Y-77051217D01*
X137747626Y-77172358D01*
X137763391Y-77169709D01*
X138290636Y-76915732D01*
X138662139Y-76499931D01*
X138868930Y-76809415D01*
X139166600Y-77008312D01*
X139166600Y-99796600D01*
X139224604Y-100088205D01*
X139354990Y-100283341D01*
X139389785Y-100335415D01*
X139992013Y-100937643D01*
X139991931Y-101031663D01*
X140140493Y-101391212D01*
X140415341Y-101666540D01*
X140774630Y-101815730D01*
X141163663Y-101816069D01*
X141523212Y-101667507D01*
X141732000Y-101459083D01*
X141732000Y-104534917D01*
X141665460Y-104601341D01*
X141516270Y-104960630D01*
X141515931Y-105349663D01*
X141664493Y-105709212D01*
X141939341Y-105984540D01*
X142298630Y-106133730D01*
X142687663Y-106134069D01*
X143047212Y-105985507D01*
X143322540Y-105710659D01*
X143471730Y-105351370D01*
X143472069Y-104962337D01*
X143323507Y-104602788D01*
X143256000Y-104535163D01*
X143256000Y-76991340D01*
X143528270Y-76809415D01*
X143738600Y-76494634D01*
X143948930Y-76809415D01*
X144272000Y-77025284D01*
X144272000Y-92342917D01*
X144205460Y-92409341D01*
X144056270Y-92768630D01*
X144055931Y-93157663D01*
X144204493Y-93517212D01*
X144479341Y-93792540D01*
X144838630Y-93941730D01*
X145227663Y-93942069D01*
X145587212Y-93793507D01*
X145862540Y-93518659D01*
X146011730Y-93159370D01*
X146012069Y-92770337D01*
X145863507Y-92410788D01*
X145796000Y-92343163D01*
X145796000Y-76991340D01*
X146068270Y-76809415D01*
X146278600Y-76494634D01*
X146488930Y-76809415D01*
X146975111Y-77134271D01*
X147320000Y-77202874D01*
X147320000Y-90310917D01*
X147253460Y-90377341D01*
X147104270Y-90736630D01*
X147103931Y-91125663D01*
X147252493Y-91485212D01*
X147527341Y-91760540D01*
X147886630Y-91909730D01*
X148275663Y-91910069D01*
X148635212Y-91761507D01*
X148910540Y-91486659D01*
X149059730Y-91127370D01*
X149060069Y-90738337D01*
X148911507Y-90378788D01*
X148844000Y-90311163D01*
X148844000Y-76532648D01*
X149028930Y-76809415D01*
X149515111Y-77134271D01*
X149606000Y-77152350D01*
X149606000Y-84976917D01*
X149539460Y-85043341D01*
X149390270Y-85402630D01*
X149389931Y-85791663D01*
X149538493Y-86151212D01*
X149813341Y-86426540D01*
X150172630Y-86575730D01*
X150561663Y-86576069D01*
X150921212Y-86427507D01*
X151196540Y-86152659D01*
X151345730Y-85793370D01*
X151346069Y-85404337D01*
X151197507Y-85044788D01*
X151130000Y-84977163D01*
X151130000Y-76821623D01*
X151148270Y-76809415D01*
X151358600Y-76494634D01*
X151568930Y-76809415D01*
X151892000Y-77025284D01*
X151892000Y-86246917D01*
X151825460Y-86313341D01*
X151676270Y-86672630D01*
X151675931Y-87061663D01*
X151824493Y-87421212D01*
X152099341Y-87696540D01*
X152458630Y-87845730D01*
X152847663Y-87846069D01*
X153207212Y-87697507D01*
X153482540Y-87422659D01*
X153631730Y-87063370D01*
X153632069Y-86674337D01*
X153483507Y-86314788D01*
X153416000Y-86247163D01*
X153416000Y-85988885D01*
X173333560Y-85988885D01*
X173543969Y-86498115D01*
X173933236Y-86888061D01*
X174442098Y-87099359D01*
X174993085Y-87099840D01*
X175502315Y-86889431D01*
X175892261Y-86500164D01*
X176103559Y-85991302D01*
X176104040Y-85440315D01*
X175893631Y-84931085D01*
X175504364Y-84541139D01*
X174995502Y-84329841D01*
X174444515Y-84329360D01*
X173935285Y-84539769D01*
X173545339Y-84929036D01*
X173334041Y-85437898D01*
X173333560Y-85988885D01*
X153416000Y-85988885D01*
X153416000Y-76991340D01*
X153688270Y-76809415D01*
X154013126Y-76323234D01*
X154127200Y-75749745D01*
X154127200Y-75380255D01*
X155194000Y-75380255D01*
X155194000Y-75749745D01*
X155308074Y-76323234D01*
X155632930Y-76809415D01*
X155956000Y-77025284D01*
X155956000Y-83452917D01*
X155889460Y-83519341D01*
X155740270Y-83878630D01*
X155739931Y-84267663D01*
X155888493Y-84627212D01*
X156163341Y-84902540D01*
X156522630Y-85051730D01*
X156911663Y-85052069D01*
X157271212Y-84903507D01*
X157546540Y-84628659D01*
X157695730Y-84269370D01*
X157696069Y-83880337D01*
X157547507Y-83520788D01*
X157480000Y-83453163D01*
X157480000Y-76991340D01*
X157752270Y-76809415D01*
X157962600Y-76494634D01*
X158172930Y-76809415D01*
X158470600Y-77008312D01*
X158470600Y-82208273D01*
X158429460Y-82249341D01*
X158280270Y-82608630D01*
X158279931Y-82997663D01*
X158428493Y-83357212D01*
X158703341Y-83632540D01*
X159062630Y-83781730D01*
X159451663Y-83782069D01*
X159811212Y-83633507D01*
X160086540Y-83358659D01*
X160235730Y-82999370D01*
X160236069Y-82610337D01*
X160087507Y-82250788D01*
X159994600Y-82157719D01*
X159994600Y-77008312D01*
X160292270Y-76809415D01*
X160502600Y-76494634D01*
X160712930Y-76809415D01*
X161010600Y-77008312D01*
X161010600Y-81762600D01*
X161068604Y-82054205D01*
X161074082Y-82062403D01*
X161073931Y-82235663D01*
X161222493Y-82595212D01*
X161497341Y-82870540D01*
X161856630Y-83019730D01*
X162245663Y-83020069D01*
X162605212Y-82871507D01*
X162880540Y-82596659D01*
X163029730Y-82237370D01*
X163030069Y-81848337D01*
X162881507Y-81488788D01*
X162606659Y-81213460D01*
X162534600Y-81183538D01*
X162534600Y-77008312D01*
X162832270Y-76809415D01*
X163042600Y-76494634D01*
X163252930Y-76809415D01*
X163739111Y-77134271D01*
X163876130Y-77161526D01*
X163346529Y-77380352D01*
X162853085Y-77872936D01*
X162585705Y-78516857D01*
X162585097Y-79214084D01*
X162851352Y-79858471D01*
X163343936Y-80351915D01*
X163987857Y-80619295D01*
X164685084Y-80619903D01*
X165329471Y-80353648D01*
X165822915Y-79861064D01*
X166090295Y-79217143D01*
X166090903Y-78519916D01*
X165824648Y-77875529D01*
X165332064Y-77382085D01*
X164784113Y-77154555D01*
X164886089Y-77134271D01*
X165372270Y-76809415D01*
X165582600Y-76494634D01*
X165792930Y-76809415D01*
X166279111Y-77134271D01*
X166852600Y-77248345D01*
X167426089Y-77134271D01*
X167912270Y-76809415D01*
X168122600Y-76494634D01*
X168332930Y-76809415D01*
X168819111Y-77134271D01*
X169392600Y-77248345D01*
X169966089Y-77134271D01*
X170452270Y-76809415D01*
X170662600Y-76494634D01*
X170872930Y-76809415D01*
X171359111Y-77134271D01*
X171496130Y-77161526D01*
X170966529Y-77380352D01*
X170473085Y-77872936D01*
X170205705Y-78516857D01*
X170205097Y-79214084D01*
X170471352Y-79858471D01*
X170963936Y-80351915D01*
X171607857Y-80619295D01*
X172305084Y-80619903D01*
X172949471Y-80353648D01*
X173228054Y-80075551D01*
X173503936Y-80351915D01*
X174147857Y-80619295D01*
X174845084Y-80619903D01*
X175489471Y-80353648D01*
X175982915Y-79861064D01*
X176250295Y-79217143D01*
X176250903Y-78519916D01*
X175984648Y-77875529D01*
X175492064Y-77382085D01*
X174944113Y-77154555D01*
X175046089Y-77134271D01*
X175532270Y-76809415D01*
X175857126Y-76323234D01*
X175971200Y-75749745D01*
X175971200Y-75380255D01*
X175857126Y-74806766D01*
X175532270Y-74320585D01*
X175046089Y-73995729D01*
X174472600Y-73881655D01*
X173899111Y-73995729D01*
X173412930Y-74320585D01*
X173202600Y-74635366D01*
X172992270Y-74320585D01*
X172506089Y-73995729D01*
X171932600Y-73881655D01*
X171359111Y-73995729D01*
X170872930Y-74320585D01*
X170662600Y-74635366D01*
X170452270Y-74320585D01*
X169966089Y-73995729D01*
X169392600Y-73881655D01*
X168819111Y-73995729D01*
X168332930Y-74320585D01*
X168122600Y-74635366D01*
X167912270Y-74320585D01*
X167426089Y-73995729D01*
X166852600Y-73881655D01*
X166279111Y-73995729D01*
X165792930Y-74320585D01*
X165582600Y-74635366D01*
X165372270Y-74320585D01*
X164886089Y-73995729D01*
X164312600Y-73881655D01*
X163739111Y-73995729D01*
X163252930Y-74320585D01*
X163042600Y-74635366D01*
X162832270Y-74320585D01*
X162346089Y-73995729D01*
X161772600Y-73881655D01*
X161199111Y-73995729D01*
X160712930Y-74320585D01*
X160502600Y-74635366D01*
X160292270Y-74320585D01*
X159806089Y-73995729D01*
X159232600Y-73881655D01*
X158659111Y-73995729D01*
X158172930Y-74320585D01*
X157962600Y-74635366D01*
X157752270Y-74320585D01*
X157266089Y-73995729D01*
X156692600Y-73881655D01*
X156119111Y-73995729D01*
X155632930Y-74320585D01*
X155308074Y-74806766D01*
X155194000Y-75380255D01*
X154127200Y-75380255D01*
X154013126Y-74806766D01*
X153688270Y-74320585D01*
X153202089Y-73995729D01*
X152628600Y-73881655D01*
X152055111Y-73995729D01*
X151568930Y-74320585D01*
X151358600Y-74635366D01*
X151148270Y-74320585D01*
X150662089Y-73995729D01*
X150088600Y-73881655D01*
X149515111Y-73995729D01*
X149028930Y-74320585D01*
X148818600Y-74635366D01*
X148608270Y-74320585D01*
X148122089Y-73995729D01*
X147548600Y-73881655D01*
X146975111Y-73995729D01*
X146488930Y-74320585D01*
X146278600Y-74635366D01*
X146068270Y-74320585D01*
X145582089Y-73995729D01*
X145008600Y-73881655D01*
X144435111Y-73995729D01*
X143948930Y-74320585D01*
X143738600Y-74635366D01*
X143528270Y-74320585D01*
X143042089Y-73995729D01*
X142468600Y-73881655D01*
X141895111Y-73995729D01*
X141408930Y-74320585D01*
X141198600Y-74635366D01*
X140988270Y-74320585D01*
X140502089Y-73995729D01*
X139928600Y-73881655D01*
X139355111Y-73995729D01*
X138868930Y-74320585D01*
X138662139Y-74630069D01*
X138290636Y-74214268D01*
X137763391Y-73960291D01*
X137747626Y-73957642D01*
X137515600Y-74078783D01*
X137261600Y-74078783D01*
X137029574Y-73957642D01*
X137013809Y-73960291D01*
X136486564Y-74214268D01*
X136115061Y-74630069D01*
X135908270Y-74320585D01*
X135422089Y-73995729D01*
X134848600Y-73881655D01*
X134275111Y-73995729D01*
X133788930Y-74320585D01*
X133578600Y-74635366D01*
X133368270Y-74320585D01*
X132882089Y-73995729D01*
X132308600Y-73881655D01*
X131735111Y-73995729D01*
X131248930Y-74320585D01*
X131038600Y-74635366D01*
X130828270Y-74320585D01*
X130342089Y-73995729D01*
X129768600Y-73881655D01*
X129195111Y-73995729D01*
X128708930Y-74320585D01*
X128647502Y-74412518D01*
X128500291Y-74056239D01*
X128231521Y-73787000D01*
X175080394Y-73787000D01*
X176276000Y-74982606D01*
X176276000Y-86360000D01*
X176286006Y-86409410D01*
X176313197Y-86449803D01*
X178307929Y-88444535D01*
X177570827Y-88138464D01*
X176509828Y-88137538D01*
X175529239Y-88542709D01*
X174778345Y-89292293D01*
X174371464Y-90272173D01*
X174370538Y-91333172D01*
X174775709Y-92313761D01*
X175525293Y-93064655D01*
X176505173Y-93471536D01*
X177566172Y-93472462D01*
X178546761Y-93067291D01*
X178816000Y-92798521D01*
X178816000Y-116751102D01*
X178550707Y-116485345D01*
X177570827Y-116078464D01*
X176509828Y-116077538D01*
X175529239Y-116482709D01*
X174778345Y-117232293D01*
X174371464Y-118212173D01*
X174370538Y-119273172D01*
X174775709Y-120253761D01*
X175525293Y-121004655D01*
X176505173Y-121411536D01*
X177566172Y-121412462D01*
X178546761Y-121007291D01*
X178816000Y-120738521D01*
X178816000Y-121042909D01*
X176535954Y-123322954D01*
X176382046Y-123553295D01*
X176353974Y-123694420D01*
X176313197Y-123735197D01*
X176285334Y-123777211D01*
X176276000Y-123825000D01*
X176276000Y-125603000D01*
X126961898Y-125603000D01*
X127227655Y-125337707D01*
X127634536Y-124357827D01*
X127635162Y-123640255D01*
X137388600Y-123640255D01*
X137388600Y-124009745D01*
X137502674Y-124583234D01*
X137827530Y-125069415D01*
X138313711Y-125394271D01*
X138887200Y-125508345D01*
X139460689Y-125394271D01*
X139946870Y-125069415D01*
X140157200Y-124754634D01*
X140367530Y-125069415D01*
X140853711Y-125394271D01*
X141427200Y-125508345D01*
X142000689Y-125394271D01*
X142486870Y-125069415D01*
X142697200Y-124754634D01*
X142907530Y-125069415D01*
X143393711Y-125394271D01*
X143967200Y-125508345D01*
X144540689Y-125394271D01*
X145026870Y-125069415D01*
X145237200Y-124754634D01*
X145447530Y-125069415D01*
X145933711Y-125394271D01*
X146507200Y-125508345D01*
X147080689Y-125394271D01*
X147566870Y-125069415D01*
X147777200Y-124754634D01*
X147987530Y-125069415D01*
X148473711Y-125394271D01*
X149047200Y-125508345D01*
X149620689Y-125394271D01*
X150106870Y-125069415D01*
X150313661Y-124759931D01*
X150685164Y-125175732D01*
X151212409Y-125429709D01*
X151228174Y-125432358D01*
X151460200Y-125311217D01*
X151460200Y-123952000D01*
X151714200Y-123952000D01*
X151714200Y-125311217D01*
X151946226Y-125432358D01*
X151961991Y-125429709D01*
X152489236Y-125175732D01*
X152857200Y-124763892D01*
X153225164Y-125175732D01*
X153752409Y-125429709D01*
X153768174Y-125432358D01*
X154000200Y-125311217D01*
X154000200Y-123952000D01*
X151714200Y-123952000D01*
X151460200Y-123952000D01*
X151440200Y-123952000D01*
X151440200Y-123698000D01*
X151460200Y-123698000D01*
X151460200Y-122338783D01*
X151714200Y-122338783D01*
X151714200Y-123698000D01*
X154000200Y-123698000D01*
X154000200Y-122338783D01*
X154254200Y-122338783D01*
X154254200Y-123698000D01*
X154274200Y-123698000D01*
X154274200Y-123952000D01*
X154254200Y-123952000D01*
X154254200Y-125311217D01*
X154486226Y-125432358D01*
X154501991Y-125429709D01*
X155029236Y-125175732D01*
X155400739Y-124759931D01*
X155607530Y-125069415D01*
X156093711Y-125394271D01*
X156667200Y-125508345D01*
X157240689Y-125394271D01*
X157726870Y-125069415D01*
X158051726Y-124583234D01*
X158165800Y-124009745D01*
X158165800Y-123640255D01*
X160274000Y-123640255D01*
X160274000Y-124009745D01*
X160388074Y-124583234D01*
X160712930Y-125069415D01*
X161199111Y-125394271D01*
X161772600Y-125508345D01*
X162346089Y-125394271D01*
X162832270Y-125069415D01*
X163042600Y-124754634D01*
X163252930Y-125069415D01*
X163739111Y-125394271D01*
X164312600Y-125508345D01*
X164886089Y-125394271D01*
X165372270Y-125069415D01*
X165582600Y-124754634D01*
X165792930Y-125069415D01*
X166279111Y-125394271D01*
X166852600Y-125508345D01*
X167426089Y-125394271D01*
X167912270Y-125069415D01*
X168122600Y-124754634D01*
X168332930Y-125069415D01*
X168819111Y-125394271D01*
X169392600Y-125508345D01*
X169966089Y-125394271D01*
X170452270Y-125069415D01*
X170662600Y-124754634D01*
X170872930Y-125069415D01*
X171359111Y-125394271D01*
X171932600Y-125508345D01*
X172506089Y-125394271D01*
X172992270Y-125069415D01*
X173202600Y-124754634D01*
X173412930Y-125069415D01*
X173899111Y-125394271D01*
X174472600Y-125508345D01*
X175046089Y-125394271D01*
X175532270Y-125069415D01*
X175857126Y-124583234D01*
X175971200Y-124009745D01*
X175971200Y-123640255D01*
X175857126Y-123066766D01*
X175532270Y-122580585D01*
X175046089Y-122255729D01*
X174472600Y-122141655D01*
X173899111Y-122255729D01*
X173412930Y-122580585D01*
X173202600Y-122895366D01*
X172992270Y-122580585D01*
X172506089Y-122255729D01*
X171932600Y-122141655D01*
X171359111Y-122255729D01*
X170872930Y-122580585D01*
X170662600Y-122895366D01*
X170452270Y-122580585D01*
X169966089Y-122255729D01*
X169392600Y-122141655D01*
X168819111Y-122255729D01*
X168332930Y-122580585D01*
X168122600Y-122895366D01*
X167912270Y-122580585D01*
X167614600Y-122381688D01*
X167614600Y-117068600D01*
X167601757Y-117004036D01*
X167602069Y-116646337D01*
X167453507Y-116286788D01*
X167178659Y-116011460D01*
X166819370Y-115862270D01*
X166430337Y-115861931D01*
X166070788Y-116010493D01*
X165795460Y-116285341D01*
X165646270Y-116644630D01*
X165645931Y-117033663D01*
X165794493Y-117393212D01*
X166069341Y-117668540D01*
X166090600Y-117677368D01*
X166090600Y-122381688D01*
X165792930Y-122580585D01*
X165582600Y-122895366D01*
X165372270Y-122580585D01*
X164886089Y-122255729D01*
X164312600Y-122141655D01*
X163739111Y-122255729D01*
X163252930Y-122580585D01*
X163042600Y-122895366D01*
X162832270Y-122580585D01*
X162346089Y-122255729D01*
X161772600Y-122141655D01*
X161199111Y-122255729D01*
X160712930Y-122580585D01*
X160388074Y-123066766D01*
X160274000Y-123640255D01*
X158165800Y-123640255D01*
X158051726Y-123066766D01*
X157726870Y-122580585D01*
X157240689Y-122255729D01*
X156667200Y-122141655D01*
X156093711Y-122255729D01*
X155607530Y-122580585D01*
X155400739Y-122890069D01*
X155029236Y-122474268D01*
X154501991Y-122220291D01*
X154486226Y-122217642D01*
X154254200Y-122338783D01*
X154000200Y-122338783D01*
X153768174Y-122217642D01*
X153752409Y-122220291D01*
X153225164Y-122474268D01*
X152857200Y-122886108D01*
X152489236Y-122474268D01*
X151961991Y-122220291D01*
X151946226Y-122217642D01*
X151714200Y-122338783D01*
X151460200Y-122338783D01*
X151228174Y-122217642D01*
X151212409Y-122220291D01*
X150685164Y-122474268D01*
X150313661Y-122890069D01*
X150106870Y-122580585D01*
X149620689Y-122255729D01*
X149047200Y-122141655D01*
X148473711Y-122255729D01*
X147987530Y-122580585D01*
X147777200Y-122895366D01*
X147566870Y-122580585D01*
X147080689Y-122255729D01*
X146507200Y-122141655D01*
X145933711Y-122255729D01*
X145447530Y-122580585D01*
X145237200Y-122895366D01*
X145026870Y-122580585D01*
X144540689Y-122255729D01*
X143967200Y-122141655D01*
X143393711Y-122255729D01*
X142907530Y-122580585D01*
X142697200Y-122895366D01*
X142486870Y-122580585D01*
X142000689Y-122255729D01*
X141427200Y-122141655D01*
X140853711Y-122255729D01*
X140367530Y-122580585D01*
X140157200Y-122895366D01*
X139946870Y-122580585D01*
X139460689Y-122255729D01*
X138887200Y-122141655D01*
X138313711Y-122255729D01*
X137827530Y-122580585D01*
X137502674Y-123066766D01*
X137388600Y-123640255D01*
X127635162Y-123640255D01*
X127635462Y-123296828D01*
X127230291Y-122316239D01*
X126480707Y-121565345D01*
X125500827Y-121158464D01*
X124439828Y-121157538D01*
X123459239Y-121562709D01*
X122708345Y-122312293D01*
X122301464Y-123292173D01*
X122300538Y-124353172D01*
X122705709Y-125333761D01*
X122974479Y-125603000D01*
X111760000Y-125603000D01*
X111760000Y-115493800D01*
X119093655Y-115493800D01*
X119207729Y-116067289D01*
X119532585Y-116553470D01*
X119546913Y-116563043D01*
X119525683Y-116567038D01*
X119309559Y-116706110D01*
X119164569Y-116918310D01*
X119113560Y-117170200D01*
X119113560Y-118897400D01*
X119157838Y-119132717D01*
X119296910Y-119348841D01*
X119509110Y-119493831D01*
X119761000Y-119544840D01*
X121793000Y-119544840D01*
X122028317Y-119500562D01*
X122244441Y-119361490D01*
X122389431Y-119149290D01*
X122440440Y-118897400D01*
X122440440Y-117170200D01*
X122396162Y-116934883D01*
X122257090Y-116718759D01*
X122044890Y-116573769D01*
X122003561Y-116565400D01*
X122021415Y-116553470D01*
X122346271Y-116067289D01*
X122460345Y-115493800D01*
X122346271Y-114920311D01*
X122021415Y-114434130D01*
X121711931Y-114227339D01*
X122127732Y-113855836D01*
X122381709Y-113328591D01*
X122384358Y-113312826D01*
X122263217Y-113080800D01*
X120904000Y-113080800D01*
X120904000Y-113100800D01*
X120650000Y-113100800D01*
X120650000Y-113080800D01*
X119290783Y-113080800D01*
X119169642Y-113312826D01*
X119172291Y-113328591D01*
X119426268Y-113855836D01*
X119842069Y-114227339D01*
X119532585Y-114434130D01*
X119207729Y-114920311D01*
X119093655Y-115493800D01*
X111760000Y-115493800D01*
X111760000Y-97053400D01*
X111829255Y-97053400D01*
X111943329Y-97626889D01*
X112268185Y-98113070D01*
X112582966Y-98323400D01*
X112268185Y-98533730D01*
X111943329Y-99019911D01*
X111829255Y-99593400D01*
X111943329Y-100166889D01*
X112268185Y-100653070D01*
X112582966Y-100863400D01*
X112268185Y-101073730D01*
X111943329Y-101559911D01*
X111829255Y-102133400D01*
X111943329Y-102706889D01*
X112268185Y-103193070D01*
X112582966Y-103403400D01*
X112268185Y-103613730D01*
X111943329Y-104099911D01*
X111829255Y-104673400D01*
X111943329Y-105246889D01*
X112268185Y-105733070D01*
X112282513Y-105742643D01*
X112261283Y-105746638D01*
X112045159Y-105885710D01*
X111900169Y-106097910D01*
X111849160Y-106349800D01*
X111849160Y-108077000D01*
X111893438Y-108312317D01*
X112032510Y-108528441D01*
X112244710Y-108673431D01*
X112496600Y-108724440D01*
X114528600Y-108724440D01*
X114763917Y-108680162D01*
X114980041Y-108541090D01*
X115125031Y-108328890D01*
X115176040Y-108077000D01*
X115176040Y-106349800D01*
X115131762Y-106114483D01*
X114992690Y-105898359D01*
X114780490Y-105753369D01*
X114739161Y-105745000D01*
X114757015Y-105733070D01*
X115081871Y-105246889D01*
X115195945Y-104673400D01*
X115081871Y-104099911D01*
X114757015Y-103613730D01*
X114442234Y-103403400D01*
X114757015Y-103193070D01*
X115081871Y-102706889D01*
X115195945Y-102133400D01*
X115081871Y-101559911D01*
X114757015Y-101073730D01*
X114442234Y-100863400D01*
X114757015Y-100653070D01*
X115081871Y-100166889D01*
X115195945Y-99593400D01*
X115081871Y-99019911D01*
X114757015Y-98533730D01*
X114442234Y-98323400D01*
X114757015Y-98113070D01*
X115081871Y-97626889D01*
X115195945Y-97053400D01*
X115081871Y-96479911D01*
X114757015Y-95993730D01*
X114447531Y-95786939D01*
X114863332Y-95415436D01*
X115117309Y-94888191D01*
X115119958Y-94872426D01*
X114998817Y-94640400D01*
X113639600Y-94640400D01*
X113639600Y-94660400D01*
X113385600Y-94660400D01*
X113385600Y-94640400D01*
X112026383Y-94640400D01*
X111905242Y-94872426D01*
X111907891Y-94888191D01*
X112161868Y-95415436D01*
X112577669Y-95786939D01*
X112268185Y-95993730D01*
X111943329Y-96479911D01*
X111829255Y-97053400D01*
X111760000Y-97053400D01*
X111760000Y-94154374D01*
X111905242Y-94154374D01*
X112026383Y-94386400D01*
X113385600Y-94386400D01*
X113385600Y-93172476D01*
X113639600Y-93172476D01*
X113639600Y-94386400D01*
X114998817Y-94386400D01*
X115119958Y-94154374D01*
X115117309Y-94138609D01*
X114863332Y-93611364D01*
X114426920Y-93221446D01*
X113874513Y-93028216D01*
X113639600Y-93172476D01*
X113385600Y-93172476D01*
X113150687Y-93028216D01*
X112598280Y-93221446D01*
X112161868Y-93611364D01*
X111907891Y-94138609D01*
X111905242Y-94154374D01*
X111760000Y-94154374D01*
X111760000Y-79933800D01*
X119093655Y-79933800D01*
X119207729Y-80507289D01*
X119532585Y-80993470D01*
X119847366Y-81203800D01*
X119532585Y-81414130D01*
X119207729Y-81900311D01*
X119093655Y-82473800D01*
X119207729Y-83047289D01*
X119532585Y-83533470D01*
X119847366Y-83743800D01*
X119532585Y-83954130D01*
X119207729Y-84440311D01*
X119093655Y-85013800D01*
X119207729Y-85587289D01*
X119532585Y-86073470D01*
X119847366Y-86283800D01*
X119532585Y-86494130D01*
X119207729Y-86980311D01*
X119093655Y-87553800D01*
X119207729Y-88127289D01*
X119532585Y-88613470D01*
X119847366Y-88823800D01*
X119532585Y-89034130D01*
X119207729Y-89520311D01*
X119093655Y-90093800D01*
X119207729Y-90667289D01*
X119532585Y-91153470D01*
X119847366Y-91363800D01*
X119532585Y-91574130D01*
X119207729Y-92060311D01*
X119093655Y-92633800D01*
X119207729Y-93207289D01*
X119532585Y-93693470D01*
X119847366Y-93903800D01*
X119532585Y-94114130D01*
X119207729Y-94600311D01*
X119093655Y-95173800D01*
X119207729Y-95747289D01*
X119532585Y-96233470D01*
X119847366Y-96443800D01*
X119532585Y-96654130D01*
X119207729Y-97140311D01*
X119093655Y-97713800D01*
X119207729Y-98287289D01*
X119532585Y-98773470D01*
X119847366Y-98983800D01*
X119532585Y-99194130D01*
X119207729Y-99680311D01*
X119093655Y-100253800D01*
X119207729Y-100827289D01*
X119532585Y-101313470D01*
X119847366Y-101523800D01*
X119532585Y-101734130D01*
X119207729Y-102220311D01*
X119093655Y-102793800D01*
X119207729Y-103367289D01*
X119532585Y-103853470D01*
X119847366Y-104063800D01*
X119532585Y-104274130D01*
X119207729Y-104760311D01*
X119093655Y-105333800D01*
X119207729Y-105907289D01*
X119532585Y-106393470D01*
X119847366Y-106603800D01*
X119532585Y-106814130D01*
X119207729Y-107300311D01*
X119093655Y-107873800D01*
X119207729Y-108447289D01*
X119532585Y-108933470D01*
X119847366Y-109143800D01*
X119532585Y-109354130D01*
X119207729Y-109840311D01*
X119093655Y-110413800D01*
X119207729Y-110987289D01*
X119532585Y-111473470D01*
X119842069Y-111680261D01*
X119426268Y-112051764D01*
X119172291Y-112579009D01*
X119169642Y-112594774D01*
X119290783Y-112826800D01*
X120650000Y-112826800D01*
X120650000Y-112806800D01*
X120904000Y-112806800D01*
X120904000Y-112826800D01*
X122263217Y-112826800D01*
X122384358Y-112594774D01*
X122381709Y-112579009D01*
X122127732Y-112051764D01*
X121711931Y-111680261D01*
X122021415Y-111473470D01*
X122346271Y-110987289D01*
X122460345Y-110413800D01*
X122346271Y-109840311D01*
X122021415Y-109354130D01*
X121706634Y-109143800D01*
X122021415Y-108933470D01*
X122346271Y-108447289D01*
X122460345Y-107873800D01*
X122346271Y-107300311D01*
X122021415Y-106814130D01*
X121706634Y-106603800D01*
X122021415Y-106393470D01*
X122346271Y-105907289D01*
X122460345Y-105333800D01*
X122346271Y-104760311D01*
X122021415Y-104274130D01*
X121706634Y-104063800D01*
X122021415Y-103853470D01*
X122346271Y-103367289D01*
X122460345Y-102793800D01*
X122346271Y-102220311D01*
X122021415Y-101734130D01*
X121706634Y-101523800D01*
X122021415Y-101313470D01*
X122346271Y-100827289D01*
X122448968Y-100310998D01*
X123698000Y-101560031D01*
X123698000Y-115202917D01*
X123631460Y-115269341D01*
X123482270Y-115628630D01*
X123481931Y-116017663D01*
X123630493Y-116377212D01*
X123905341Y-116652540D01*
X124264630Y-116801730D01*
X124653663Y-116802069D01*
X125013212Y-116653507D01*
X125288540Y-116378659D01*
X125437730Y-116019370D01*
X125438069Y-115630337D01*
X125289507Y-115270788D01*
X125222000Y-115203163D01*
X125222000Y-108067463D01*
X129755731Y-108067463D01*
X129904293Y-108427012D01*
X130179141Y-108702340D01*
X130538430Y-108851530D01*
X130927463Y-108851869D01*
X131287012Y-108703307D01*
X131562340Y-108428459D01*
X131711530Y-108069170D01*
X131711869Y-107680137D01*
X131563307Y-107320588D01*
X131495800Y-107252963D01*
X131495800Y-83449830D01*
X131925643Y-83019987D01*
X132019663Y-83020069D01*
X132379212Y-82871507D01*
X132654540Y-82596659D01*
X132803730Y-82237370D01*
X132804069Y-81848337D01*
X132655507Y-81488788D01*
X132380659Y-81213460D01*
X132021370Y-81064270D01*
X131632337Y-81063931D01*
X131272788Y-81212493D01*
X130997460Y-81487341D01*
X130848270Y-81846630D01*
X130848187Y-81942183D01*
X130194985Y-82595385D01*
X130029804Y-82842595D01*
X129971800Y-83134200D01*
X129971800Y-107252717D01*
X129905260Y-107319141D01*
X129756070Y-107678430D01*
X129755731Y-108067463D01*
X125222000Y-108067463D01*
X125222000Y-101244400D01*
X125163996Y-100952795D01*
X125087292Y-100838000D01*
X124998815Y-100705584D01*
X122385135Y-98091905D01*
X122460345Y-97713800D01*
X122346271Y-97140311D01*
X122021415Y-96654130D01*
X121706634Y-96443800D01*
X122021415Y-96233470D01*
X122346271Y-95747289D01*
X122460345Y-95173800D01*
X122346271Y-94600311D01*
X122021415Y-94114130D01*
X121706634Y-93903800D01*
X122021415Y-93693470D01*
X122346271Y-93207289D01*
X122460345Y-92633800D01*
X122346271Y-92060311D01*
X122021415Y-91574130D01*
X121706634Y-91363800D01*
X122021415Y-91153470D01*
X122346271Y-90667289D01*
X122460345Y-90093800D01*
X122346271Y-89520311D01*
X122021415Y-89034130D01*
X121706634Y-88823800D01*
X122021415Y-88613470D01*
X122346271Y-88127289D01*
X122460345Y-87553800D01*
X122346271Y-86980311D01*
X122021415Y-86494130D01*
X121706634Y-86283800D01*
X122021415Y-86073470D01*
X122346271Y-85587289D01*
X122460345Y-85013800D01*
X122346271Y-84440311D01*
X122021415Y-83954130D01*
X121706634Y-83743800D01*
X122021415Y-83533470D01*
X122346271Y-83047289D01*
X122460345Y-82473800D01*
X122346271Y-81900311D01*
X122021415Y-81414130D01*
X121706634Y-81203800D01*
X122021415Y-80993470D01*
X122346271Y-80507289D01*
X122460345Y-79933800D01*
X122346271Y-79360311D01*
X122021415Y-78874130D01*
X121535234Y-78549274D01*
X120961745Y-78435200D01*
X120592255Y-78435200D01*
X120018766Y-78549274D01*
X119532585Y-78874130D01*
X119207729Y-79360311D01*
X119093655Y-79933800D01*
X111760000Y-79933800D01*
X111760000Y-73787000D01*
X124244102Y-73787000D01*
X123978345Y-74052293D01*
M02*
