G04 #@! TF.FileFunction,Soldermask,Bot*
%FSLAX46Y46*%
G04 Gerber Fmt 4.6, Leading zero omitted, Abs format (unit mm)*
G04 Created by KiCad (PCBNEW 4.0.1-3.201512221402+6198~38~ubuntu14.04.1-stable) date Tue 03 May 2016 12:22:43 PM PDT*
%MOMM*%
G01*
G04 APERTURE LIST*
%ADD10C,0.100000*%
%ADD11O,2.127200X2.432000*%
%ADD12C,2.127200*%
%ADD13C,4.464000*%
%ADD14C,1.900000*%
%ADD15R,2.432000X2.127200*%
%ADD16O,2.432000X2.127200*%
%ADD17C,2.635200*%
G04 APERTURE END LIST*
D10*
D11*
X138887200Y-123825000D03*
X141427200Y-123825000D03*
X143967200Y-123825000D03*
X146507200Y-123825000D03*
X149047200Y-123825000D03*
X151587200Y-123825000D03*
X154127200Y-123825000D03*
X156667200Y-123825000D03*
X161772600Y-123825000D03*
X164312600Y-123825000D03*
X166852600Y-123825000D03*
X174472600Y-123825000D03*
X171932600Y-123825000D03*
X169392600Y-123825000D03*
X171932600Y-75565000D03*
X174472600Y-75565000D03*
X161772600Y-75565000D03*
X164312600Y-75565000D03*
X159232600Y-75565000D03*
X156692600Y-75565000D03*
X166852600Y-75565000D03*
X169392600Y-75565000D03*
X139928600Y-75565000D03*
X142468600Y-75565000D03*
X145008600Y-75565000D03*
X152628600Y-75565000D03*
X150088600Y-75565000D03*
X147548600Y-75565000D03*
X134848600Y-75565000D03*
X137388600Y-75565000D03*
X129768600Y-75565000D03*
X132308600Y-75565000D03*
D12*
X126187200Y-75615800D03*
D13*
X124968000Y-123825000D03*
X177038000Y-118745000D03*
X126238000Y-75565000D03*
X177038000Y-90805000D03*
D14*
X174718800Y-85714600D03*
X174718800Y-109914600D03*
D15*
X120777000Y-118033800D03*
D16*
X120777000Y-115493800D03*
X120777000Y-112953800D03*
X120777000Y-110413800D03*
X120777000Y-107873800D03*
X120777000Y-105333800D03*
X120777000Y-102793800D03*
X120777000Y-100253800D03*
X120777000Y-97713800D03*
X120777000Y-95173800D03*
X120777000Y-92633800D03*
X120777000Y-90093800D03*
X120777000Y-87553800D03*
X120777000Y-85013800D03*
X120777000Y-82473800D03*
X120777000Y-79933800D03*
D15*
X113512600Y-107213400D03*
D16*
X113512600Y-104673400D03*
X113512600Y-102133400D03*
X113512600Y-99593400D03*
X113512600Y-97053400D03*
X113512600Y-94513400D03*
D17*
X174498000Y-78867000D03*
X161798000Y-118745000D03*
X171958000Y-78867000D03*
X132334000Y-78867000D03*
X164338000Y-78867000D03*
X129794000Y-78867000D03*
M02*
