G04 #@! TF.FileFunction,Legend,Bot*
%FSLAX46Y46*%
G04 Gerber Fmt 4.6, Leading zero omitted, Abs format (unit mm)*
G04 Created by KiCad (PCBNEW 4.0.1-3.201512221402+6198~38~ubuntu14.04.1-stable) date Tue 03 May 2016 12:22:43 PM PDT*
%MOMM*%
G01*
G04 APERTURE LIST*
%ADD10C,0.100000*%
%ADD11C,0.300000*%
G04 APERTURE END LIST*
D10*
D11*
X172385429Y-103301857D02*
X170885429Y-102944714D01*
X171956857Y-102659000D01*
X170885429Y-102373286D01*
X172385429Y-102016143D01*
X170885429Y-101444714D02*
X171885429Y-101444714D01*
X172385429Y-101444714D02*
X172314000Y-101516143D01*
X172242571Y-101444714D01*
X172314000Y-101373286D01*
X172385429Y-101444714D01*
X172242571Y-101444714D01*
X170956857Y-100087571D02*
X170885429Y-100230428D01*
X170885429Y-100516142D01*
X170956857Y-100659000D01*
X171028286Y-100730428D01*
X171171143Y-100801857D01*
X171599714Y-100801857D01*
X171742571Y-100730428D01*
X171814000Y-100659000D01*
X171885429Y-100516142D01*
X171885429Y-100230428D01*
X171814000Y-100087571D01*
X170885429Y-99444714D02*
X172385429Y-99444714D01*
X171456857Y-99301857D02*
X170885429Y-98873286D01*
X171885429Y-98873286D02*
X171314000Y-99444714D01*
X170956857Y-97659000D02*
X170885429Y-97801857D01*
X170885429Y-98087571D01*
X170956857Y-98230428D01*
X171099714Y-98301857D01*
X171671143Y-98301857D01*
X171814000Y-98230428D01*
X171885429Y-98087571D01*
X171885429Y-97801857D01*
X171814000Y-97659000D01*
X171671143Y-97587571D01*
X171528286Y-97587571D01*
X171385429Y-98301857D01*
X170885429Y-96944714D02*
X171885429Y-96944714D01*
X171599714Y-96944714D02*
X171742571Y-96873286D01*
X171814000Y-96801857D01*
X171885429Y-96659000D01*
X171885429Y-96516143D01*
X170885429Y-96016143D02*
X172385429Y-96016143D01*
X171814000Y-96016143D02*
X171885429Y-95873286D01*
X171885429Y-95587572D01*
X171814000Y-95444715D01*
X171742571Y-95373286D01*
X171599714Y-95301857D01*
X171171143Y-95301857D01*
X171028286Y-95373286D01*
X170956857Y-95444715D01*
X170885429Y-95587572D01*
X170885429Y-95873286D01*
X170956857Y-96016143D01*
X170885429Y-94444714D02*
X170956857Y-94587572D01*
X171028286Y-94659000D01*
X171171143Y-94730429D01*
X171599714Y-94730429D01*
X171742571Y-94659000D01*
X171814000Y-94587572D01*
X171885429Y-94444714D01*
X171885429Y-94230429D01*
X171814000Y-94087572D01*
X171742571Y-94016143D01*
X171599714Y-93944714D01*
X171171143Y-93944714D01*
X171028286Y-94016143D01*
X170956857Y-94087572D01*
X170885429Y-94230429D01*
X170885429Y-94444714D01*
X170885429Y-93444714D02*
X171885429Y-92659000D01*
X171885429Y-93444714D02*
X170885429Y-92659000D01*
X169271143Y-104408999D02*
X169271143Y-103908999D01*
X168485429Y-103694713D02*
X168485429Y-104408999D01*
X169985429Y-104408999D01*
X169985429Y-103694713D01*
X168485429Y-102837570D02*
X168556857Y-102980428D01*
X168699714Y-103051856D01*
X169985429Y-103051856D01*
X168556857Y-101694714D02*
X168485429Y-101837571D01*
X168485429Y-102123285D01*
X168556857Y-102266142D01*
X168699714Y-102337571D01*
X169271143Y-102337571D01*
X169414000Y-102266142D01*
X169485429Y-102123285D01*
X169485429Y-101837571D01*
X169414000Y-101694714D01*
X169271143Y-101623285D01*
X169128286Y-101623285D01*
X168985429Y-102337571D01*
X168556857Y-100337571D02*
X168485429Y-100480428D01*
X168485429Y-100766142D01*
X168556857Y-100909000D01*
X168628286Y-100980428D01*
X168771143Y-101051857D01*
X169199714Y-101051857D01*
X169342571Y-100980428D01*
X169414000Y-100909000D01*
X169485429Y-100766142D01*
X169485429Y-100480428D01*
X169414000Y-100337571D01*
X169485429Y-99909000D02*
X169485429Y-99337571D01*
X169985429Y-99694714D02*
X168699714Y-99694714D01*
X168556857Y-99623286D01*
X168485429Y-99480428D01*
X168485429Y-99337571D01*
X168485429Y-98837571D02*
X169485429Y-98837571D01*
X169199714Y-98837571D02*
X169342571Y-98766143D01*
X169414000Y-98694714D01*
X169485429Y-98551857D01*
X169485429Y-98409000D01*
X168485429Y-97694714D02*
X168556857Y-97837572D01*
X168628286Y-97909000D01*
X168771143Y-97980429D01*
X169199714Y-97980429D01*
X169342571Y-97909000D01*
X169414000Y-97837572D01*
X169485429Y-97694714D01*
X169485429Y-97480429D01*
X169414000Y-97337572D01*
X169342571Y-97266143D01*
X169199714Y-97194714D01*
X168771143Y-97194714D01*
X168628286Y-97266143D01*
X168556857Y-97337572D01*
X168485429Y-97480429D01*
X168485429Y-97694714D01*
X169485429Y-96551857D02*
X168485429Y-96551857D01*
X169342571Y-96551857D02*
X169414000Y-96480429D01*
X169485429Y-96337571D01*
X169485429Y-96123286D01*
X169414000Y-95980429D01*
X169271143Y-95909000D01*
X168485429Y-95909000D01*
X168485429Y-95194714D02*
X169485429Y-95194714D01*
X169985429Y-95194714D02*
X169914000Y-95266143D01*
X169842571Y-95194714D01*
X169914000Y-95123286D01*
X169985429Y-95194714D01*
X169842571Y-95194714D01*
X168556857Y-93837571D02*
X168485429Y-93980428D01*
X168485429Y-94266142D01*
X168556857Y-94409000D01*
X168628286Y-94480428D01*
X168771143Y-94551857D01*
X169199714Y-94551857D01*
X169342571Y-94480428D01*
X169414000Y-94409000D01*
X169485429Y-94266142D01*
X169485429Y-93980428D01*
X169414000Y-93837571D01*
X168556857Y-93266143D02*
X168485429Y-93123286D01*
X168485429Y-92837571D01*
X168556857Y-92694714D01*
X168699714Y-92623286D01*
X168771143Y-92623286D01*
X168914000Y-92694714D01*
X168985429Y-92837571D01*
X168985429Y-93051857D01*
X169056857Y-93194714D01*
X169199714Y-93266143D01*
X169271143Y-93266143D01*
X169414000Y-93194714D01*
X169485429Y-93051857D01*
X169485429Y-92837571D01*
X169414000Y-92694714D01*
X167442571Y-99980428D02*
X167514000Y-99908999D01*
X167585429Y-99766142D01*
X167585429Y-99408999D01*
X167514000Y-99266142D01*
X167442571Y-99194713D01*
X167299714Y-99123285D01*
X167156857Y-99123285D01*
X166942571Y-99194713D01*
X166085429Y-100051856D01*
X166085429Y-99123285D01*
X167585429Y-98194714D02*
X167585429Y-98051857D01*
X167514000Y-97909000D01*
X167442571Y-97837571D01*
X167299714Y-97766142D01*
X167014000Y-97694714D01*
X166656857Y-97694714D01*
X166371143Y-97766142D01*
X166228286Y-97837571D01*
X166156857Y-97909000D01*
X166085429Y-98051857D01*
X166085429Y-98194714D01*
X166156857Y-98337571D01*
X166228286Y-98409000D01*
X166371143Y-98480428D01*
X166656857Y-98551857D01*
X167014000Y-98551857D01*
X167299714Y-98480428D01*
X167442571Y-98409000D01*
X167514000Y-98337571D01*
X167585429Y-98194714D01*
X166085429Y-96266143D02*
X166085429Y-97123286D01*
X166085429Y-96694714D02*
X167585429Y-96694714D01*
X167371143Y-96837571D01*
X167228286Y-96980429D01*
X167156857Y-97123286D01*
X167585429Y-94980429D02*
X167585429Y-95266143D01*
X167514000Y-95409000D01*
X167442571Y-95480429D01*
X167228286Y-95623286D01*
X166942571Y-95694715D01*
X166371143Y-95694715D01*
X166228286Y-95623286D01*
X166156857Y-95551858D01*
X166085429Y-95409000D01*
X166085429Y-95123286D01*
X166156857Y-94980429D01*
X166228286Y-94909000D01*
X166371143Y-94837572D01*
X166728286Y-94837572D01*
X166871143Y-94909000D01*
X166942571Y-94980429D01*
X167014000Y-95123286D01*
X167014000Y-95409000D01*
X166942571Y-95551858D01*
X166871143Y-95623286D01*
X166728286Y-95694715D01*
X137830000Y-108207142D02*
X137830000Y-107492856D01*
X137401429Y-108349999D02*
X138901429Y-107849999D01*
X137401429Y-107349999D01*
X137401429Y-106849999D02*
X138401429Y-106849999D01*
X138115714Y-106849999D02*
X138258571Y-106778571D01*
X138330000Y-106707142D01*
X138401429Y-106564285D01*
X138401429Y-106421428D01*
X137401429Y-105278571D02*
X138901429Y-105278571D01*
X137472857Y-105278571D02*
X137401429Y-105421428D01*
X137401429Y-105707142D01*
X137472857Y-105850000D01*
X137544286Y-105921428D01*
X137687143Y-105992857D01*
X138115714Y-105992857D01*
X138258571Y-105921428D01*
X138330000Y-105850000D01*
X138401429Y-105707142D01*
X138401429Y-105421428D01*
X138330000Y-105278571D01*
X138401429Y-103921428D02*
X137401429Y-103921428D01*
X138401429Y-104564285D02*
X137615714Y-104564285D01*
X137472857Y-104492857D01*
X137401429Y-104349999D01*
X137401429Y-104135714D01*
X137472857Y-103992857D01*
X137544286Y-103921428D01*
X137401429Y-103207142D02*
X138401429Y-103207142D01*
X138901429Y-103207142D02*
X138830000Y-103278571D01*
X138758571Y-103207142D01*
X138830000Y-103135714D01*
X138901429Y-103207142D01*
X138758571Y-103207142D01*
X138401429Y-102492856D02*
X137401429Y-102492856D01*
X138258571Y-102492856D02*
X138330000Y-102421428D01*
X138401429Y-102278570D01*
X138401429Y-102064285D01*
X138330000Y-101921428D01*
X138187143Y-101849999D01*
X137401429Y-101849999D01*
X137401429Y-100921427D02*
X137472857Y-101064285D01*
X137544286Y-101135713D01*
X137687143Y-101207142D01*
X138115714Y-101207142D01*
X138258571Y-101135713D01*
X138330000Y-101064285D01*
X138401429Y-100921427D01*
X138401429Y-100707142D01*
X138330000Y-100564285D01*
X138258571Y-100492856D01*
X138115714Y-100421427D01*
X137687143Y-100421427D01*
X137544286Y-100492856D01*
X137472857Y-100564285D01*
X137401429Y-100707142D01*
X137401429Y-100921427D01*
X137401429Y-97849999D02*
X137401429Y-98707142D01*
X137401429Y-98278570D02*
X138901429Y-98278570D01*
X138687143Y-98421427D01*
X138544286Y-98564285D01*
X138472857Y-98707142D01*
X138901429Y-96921428D02*
X138901429Y-96778571D01*
X138830000Y-96635714D01*
X138758571Y-96564285D01*
X138615714Y-96492856D01*
X138330000Y-96421428D01*
X137972857Y-96421428D01*
X137687143Y-96492856D01*
X137544286Y-96564285D01*
X137472857Y-96635714D01*
X137401429Y-96778571D01*
X137401429Y-96921428D01*
X137472857Y-97064285D01*
X137544286Y-97135714D01*
X137687143Y-97207142D01*
X137972857Y-97278571D01*
X138330000Y-97278571D01*
X138615714Y-97207142D01*
X138758571Y-97135714D01*
X138830000Y-97064285D01*
X138901429Y-96921428D01*
X137401429Y-94992857D02*
X137401429Y-95850000D01*
X137401429Y-95421428D02*
X138901429Y-95421428D01*
X138687143Y-95564285D01*
X138544286Y-95707143D01*
X138472857Y-95850000D01*
X136501429Y-116742856D02*
X135001429Y-116242856D01*
X136501429Y-115742856D01*
X135072857Y-114671428D02*
X135001429Y-114814285D01*
X135001429Y-115099999D01*
X135072857Y-115242856D01*
X135215714Y-115314285D01*
X135787143Y-115314285D01*
X135930000Y-115242856D01*
X136001429Y-115099999D01*
X136001429Y-114814285D01*
X135930000Y-114671428D01*
X135787143Y-114599999D01*
X135644286Y-114599999D01*
X135501429Y-115314285D01*
X135001429Y-113957142D02*
X136501429Y-113957142D01*
X135001429Y-113314285D02*
X135787143Y-113314285D01*
X135930000Y-113385714D01*
X136001429Y-113528571D01*
X136001429Y-113742856D01*
X135930000Y-113885714D01*
X135858571Y-113957142D01*
X135001429Y-112599999D02*
X136001429Y-112599999D01*
X136501429Y-112599999D02*
X136430000Y-112671428D01*
X136358571Y-112599999D01*
X136430000Y-112528571D01*
X136501429Y-112599999D01*
X136358571Y-112599999D01*
X135072857Y-111242856D02*
X135001429Y-111385713D01*
X135001429Y-111671427D01*
X135072857Y-111814285D01*
X135144286Y-111885713D01*
X135287143Y-111957142D01*
X135715714Y-111957142D01*
X135858571Y-111885713D01*
X135930000Y-111814285D01*
X136001429Y-111671427D01*
X136001429Y-111385713D01*
X135930000Y-111242856D01*
X135001429Y-110385713D02*
X135072857Y-110528571D01*
X135215714Y-110599999D01*
X136501429Y-110599999D01*
X135072857Y-109242857D02*
X135001429Y-109385714D01*
X135001429Y-109671428D01*
X135072857Y-109814285D01*
X135215714Y-109885714D01*
X135787143Y-109885714D01*
X135930000Y-109814285D01*
X136001429Y-109671428D01*
X136001429Y-109385714D01*
X135930000Y-109242857D01*
X135787143Y-109171428D01*
X135644286Y-109171428D01*
X135501429Y-109885714D01*
X135001429Y-106671428D02*
X135001429Y-107385714D01*
X136501429Y-107385714D01*
X135001429Y-105957142D02*
X135072857Y-106100000D01*
X135144286Y-106171428D01*
X135287143Y-106242857D01*
X135715714Y-106242857D01*
X135858571Y-106171428D01*
X135930000Y-106100000D01*
X136001429Y-105957142D01*
X136001429Y-105742857D01*
X135930000Y-105600000D01*
X135858571Y-105528571D01*
X135715714Y-105457142D01*
X135287143Y-105457142D01*
X135144286Y-105528571D01*
X135072857Y-105600000D01*
X135001429Y-105742857D01*
X135001429Y-105957142D01*
X136001429Y-104171428D02*
X134787143Y-104171428D01*
X134644286Y-104242857D01*
X134572857Y-104314285D01*
X134501429Y-104457142D01*
X134501429Y-104671428D01*
X134572857Y-104814285D01*
X135072857Y-104171428D02*
X135001429Y-104314285D01*
X135001429Y-104599999D01*
X135072857Y-104742857D01*
X135144286Y-104814285D01*
X135287143Y-104885714D01*
X135715714Y-104885714D01*
X135858571Y-104814285D01*
X135930000Y-104742857D01*
X136001429Y-104599999D01*
X136001429Y-104314285D01*
X135930000Y-104171428D01*
X136001429Y-102814285D02*
X134787143Y-102814285D01*
X134644286Y-102885714D01*
X134572857Y-102957142D01*
X134501429Y-103099999D01*
X134501429Y-103314285D01*
X134572857Y-103457142D01*
X135072857Y-102814285D02*
X135001429Y-102957142D01*
X135001429Y-103242856D01*
X135072857Y-103385714D01*
X135144286Y-103457142D01*
X135287143Y-103528571D01*
X135715714Y-103528571D01*
X135858571Y-103457142D01*
X135930000Y-103385714D01*
X136001429Y-103242856D01*
X136001429Y-102957142D01*
X135930000Y-102814285D01*
X135072857Y-101528571D02*
X135001429Y-101671428D01*
X135001429Y-101957142D01*
X135072857Y-102099999D01*
X135215714Y-102171428D01*
X135787143Y-102171428D01*
X135930000Y-102099999D01*
X136001429Y-101957142D01*
X136001429Y-101671428D01*
X135930000Y-101528571D01*
X135787143Y-101457142D01*
X135644286Y-101457142D01*
X135501429Y-102171428D01*
X135001429Y-100814285D02*
X136001429Y-100814285D01*
X135715714Y-100814285D02*
X135858571Y-100742857D01*
X135930000Y-100671428D01*
X136001429Y-100528571D01*
X136001429Y-100385714D01*
X135072857Y-98814286D02*
X135001429Y-98600000D01*
X135001429Y-98242857D01*
X135072857Y-98100000D01*
X135144286Y-98028571D01*
X135287143Y-97957143D01*
X135430000Y-97957143D01*
X135572857Y-98028571D01*
X135644286Y-98100000D01*
X135715714Y-98242857D01*
X135787143Y-98528571D01*
X135858571Y-98671429D01*
X135930000Y-98742857D01*
X136072857Y-98814286D01*
X136215714Y-98814286D01*
X136358571Y-98742857D01*
X136430000Y-98671429D01*
X136501429Y-98528571D01*
X136501429Y-98171429D01*
X136430000Y-97957143D01*
X135001429Y-97314286D02*
X136501429Y-97314286D01*
X135001429Y-96671429D02*
X135787143Y-96671429D01*
X135930000Y-96742858D01*
X136001429Y-96885715D01*
X136001429Y-97100000D01*
X135930000Y-97242858D01*
X135858571Y-97314286D01*
X135001429Y-95957143D02*
X136001429Y-95957143D01*
X136501429Y-95957143D02*
X136430000Y-96028572D01*
X136358571Y-95957143D01*
X136430000Y-95885715D01*
X136501429Y-95957143D01*
X136358571Y-95957143D01*
X135072857Y-94671429D02*
X135001429Y-94814286D01*
X135001429Y-95100000D01*
X135072857Y-95242857D01*
X135215714Y-95314286D01*
X135787143Y-95314286D01*
X135930000Y-95242857D01*
X136001429Y-95100000D01*
X136001429Y-94814286D01*
X135930000Y-94671429D01*
X135787143Y-94600000D01*
X135644286Y-94600000D01*
X135501429Y-95314286D01*
X135001429Y-93742857D02*
X135072857Y-93885715D01*
X135215714Y-93957143D01*
X136501429Y-93957143D01*
X135001429Y-92528572D02*
X136501429Y-92528572D01*
X135072857Y-92528572D02*
X135001429Y-92671429D01*
X135001429Y-92957143D01*
X135072857Y-93100001D01*
X135144286Y-93171429D01*
X135287143Y-93242858D01*
X135715714Y-93242858D01*
X135858571Y-93171429D01*
X135930000Y-93100001D01*
X136001429Y-92957143D01*
X136001429Y-92671429D01*
X135930000Y-92528572D01*
X136001429Y-90814286D02*
X135001429Y-90457143D01*
X136001429Y-90100001D01*
X135001429Y-88742858D02*
X135001429Y-89600001D01*
X135001429Y-89171429D02*
X136501429Y-89171429D01*
X136287143Y-89314286D01*
X136144286Y-89457144D01*
X136072857Y-89600001D01*
X135144286Y-88100001D02*
X135072857Y-88028573D01*
X135001429Y-88100001D01*
X135072857Y-88171430D01*
X135144286Y-88100001D01*
X135001429Y-88100001D01*
X136501429Y-87100001D02*
X136501429Y-86957144D01*
X136430000Y-86814287D01*
X136358571Y-86742858D01*
X136215714Y-86671429D01*
X135930000Y-86600001D01*
X135572857Y-86600001D01*
X135287143Y-86671429D01*
X135144286Y-86742858D01*
X135072857Y-86814287D01*
X135001429Y-86957144D01*
X135001429Y-87100001D01*
X135072857Y-87242858D01*
X135144286Y-87314287D01*
X135287143Y-87385715D01*
X135572857Y-87457144D01*
X135930000Y-87457144D01*
X136215714Y-87385715D01*
X136358571Y-87314287D01*
X136430000Y-87242858D01*
X136501429Y-87100001D01*
X131701429Y-114849998D02*
X130630000Y-114849998D01*
X130415714Y-114921426D01*
X130272857Y-115064283D01*
X130201429Y-115278569D01*
X130201429Y-115421426D01*
X130201429Y-113349998D02*
X130201429Y-114207141D01*
X130201429Y-113778569D02*
X131701429Y-113778569D01*
X131487143Y-113921426D01*
X131344286Y-114064284D01*
X131272857Y-114207141D01*
X130344286Y-112707141D02*
X130272857Y-112635713D01*
X130201429Y-112707141D01*
X130272857Y-112778570D01*
X130344286Y-112707141D01*
X130201429Y-112707141D01*
X131130000Y-112707141D02*
X131058571Y-112635713D01*
X130987143Y-112707141D01*
X131058571Y-112778570D01*
X131130000Y-112707141D01*
X130987143Y-112707141D01*
X130272857Y-110921427D02*
X130201429Y-110707141D01*
X130201429Y-110349998D01*
X130272857Y-110207141D01*
X130344286Y-110135712D01*
X130487143Y-110064284D01*
X130630000Y-110064284D01*
X130772857Y-110135712D01*
X130844286Y-110207141D01*
X130915714Y-110349998D01*
X130987143Y-110635712D01*
X131058571Y-110778570D01*
X131130000Y-110849998D01*
X131272857Y-110921427D01*
X131415714Y-110921427D01*
X131558571Y-110849998D01*
X131630000Y-110778570D01*
X131701429Y-110635712D01*
X131701429Y-110278570D01*
X131630000Y-110064284D01*
X130201429Y-109421427D02*
X131701429Y-109421427D01*
X131701429Y-109064284D01*
X131630000Y-108849999D01*
X131487143Y-108707141D01*
X131344286Y-108635713D01*
X131058571Y-108564284D01*
X130844286Y-108564284D01*
X130558571Y-108635713D01*
X130415714Y-108707141D01*
X130272857Y-108849999D01*
X130201429Y-109064284D01*
X130201429Y-109421427D01*
X130344286Y-105921427D02*
X130272857Y-105992856D01*
X130201429Y-106207142D01*
X130201429Y-106349999D01*
X130272857Y-106564284D01*
X130415714Y-106707142D01*
X130558571Y-106778570D01*
X130844286Y-106849999D01*
X131058571Y-106849999D01*
X131344286Y-106778570D01*
X131487143Y-106707142D01*
X131630000Y-106564284D01*
X131701429Y-106349999D01*
X131701429Y-106207142D01*
X131630000Y-105992856D01*
X131558571Y-105921427D01*
X130201429Y-104635713D02*
X130987143Y-104635713D01*
X131130000Y-104707142D01*
X131201429Y-104849999D01*
X131201429Y-105135713D01*
X131130000Y-105278570D01*
X130272857Y-104635713D02*
X130201429Y-104778570D01*
X130201429Y-105135713D01*
X130272857Y-105278570D01*
X130415714Y-105349999D01*
X130558571Y-105349999D01*
X130701429Y-105278570D01*
X130772857Y-105135713D01*
X130772857Y-104778570D01*
X130844286Y-104635713D01*
X130201429Y-103921427D02*
X131201429Y-103921427D01*
X130915714Y-103921427D02*
X131058571Y-103849999D01*
X131130000Y-103778570D01*
X131201429Y-103635713D01*
X131201429Y-103492856D01*
X130201429Y-102349999D02*
X131701429Y-102349999D01*
X130272857Y-102349999D02*
X130201429Y-102492856D01*
X130201429Y-102778570D01*
X130272857Y-102921428D01*
X130344286Y-102992856D01*
X130487143Y-103064285D01*
X130915714Y-103064285D01*
X131058571Y-102992856D01*
X131130000Y-102921428D01*
X131201429Y-102778570D01*
X131201429Y-102492856D01*
X131130000Y-102349999D01*
X131558571Y-100564285D02*
X131630000Y-100492856D01*
X131701429Y-100349999D01*
X131701429Y-99992856D01*
X131630000Y-99849999D01*
X131558571Y-99778570D01*
X131415714Y-99707142D01*
X131272857Y-99707142D01*
X131058571Y-99778570D01*
X130201429Y-100635713D01*
X130201429Y-99707142D01*
X131701429Y-98778571D02*
X131701429Y-98635714D01*
X131630000Y-98492857D01*
X131558571Y-98421428D01*
X131415714Y-98349999D01*
X131130000Y-98278571D01*
X130772857Y-98278571D01*
X130487143Y-98349999D01*
X130344286Y-98421428D01*
X130272857Y-98492857D01*
X130201429Y-98635714D01*
X130201429Y-98778571D01*
X130272857Y-98921428D01*
X130344286Y-98992857D01*
X130487143Y-99064285D01*
X130772857Y-99135714D01*
X131130000Y-99135714D01*
X131415714Y-99064285D01*
X131558571Y-98992857D01*
X131630000Y-98921428D01*
X131701429Y-98778571D01*
X131201429Y-96992857D02*
X130201429Y-96992857D01*
X131772857Y-97350000D02*
X130701429Y-97707143D01*
X130701429Y-96778571D01*
X130201429Y-95421429D02*
X130201429Y-96278572D01*
X130201429Y-95850000D02*
X131701429Y-95850000D01*
X131487143Y-95992857D01*
X131344286Y-96135715D01*
X131272857Y-96278572D01*
X131701429Y-94492858D02*
X131701429Y-94350001D01*
X131630000Y-94207144D01*
X131558571Y-94135715D01*
X131415714Y-94064286D01*
X131130000Y-93992858D01*
X130772857Y-93992858D01*
X130487143Y-94064286D01*
X130344286Y-94135715D01*
X130272857Y-94207144D01*
X130201429Y-94350001D01*
X130201429Y-94492858D01*
X130272857Y-94635715D01*
X130344286Y-94707144D01*
X130487143Y-94778572D01*
X130772857Y-94850001D01*
X131130000Y-94850001D01*
X131415714Y-94778572D01*
X131558571Y-94707144D01*
X131630000Y-94635715D01*
X131701429Y-94492858D01*
X131558571Y-93421430D02*
X131630000Y-93350001D01*
X131701429Y-93207144D01*
X131701429Y-92850001D01*
X131630000Y-92707144D01*
X131558571Y-92635715D01*
X131415714Y-92564287D01*
X131272857Y-92564287D01*
X131058571Y-92635715D01*
X130201429Y-93492858D01*
X130201429Y-92564287D01*
X130201429Y-91135716D02*
X130201429Y-91992859D01*
X130201429Y-91564287D02*
X131701429Y-91564287D01*
X131487143Y-91707144D01*
X131344286Y-91850002D01*
X131272857Y-91992859D01*
X130772857Y-90492859D02*
X130772857Y-89350002D01*
X131201429Y-87992859D02*
X130201429Y-87992859D01*
X131772857Y-88350002D02*
X130701429Y-88707145D01*
X130701429Y-87778573D01*
X129301429Y-120492856D02*
X128230000Y-120492856D01*
X128015714Y-120564284D01*
X127872857Y-120707141D01*
X127801429Y-120921427D01*
X127801429Y-121064284D01*
X129158571Y-119849999D02*
X129230000Y-119778570D01*
X129301429Y-119635713D01*
X129301429Y-119278570D01*
X129230000Y-119135713D01*
X129158571Y-119064284D01*
X129015714Y-118992856D01*
X128872857Y-118992856D01*
X128658571Y-119064284D01*
X127801429Y-119921427D01*
X127801429Y-118992856D01*
X127944286Y-118349999D02*
X127872857Y-118278571D01*
X127801429Y-118349999D01*
X127872857Y-118421428D01*
X127944286Y-118349999D01*
X127801429Y-118349999D01*
X128730000Y-118349999D02*
X128658571Y-118278571D01*
X128587143Y-118349999D01*
X128658571Y-118421428D01*
X128730000Y-118349999D01*
X128587143Y-118349999D01*
X128587143Y-115992856D02*
X128587143Y-116492856D01*
X127801429Y-116492856D02*
X129301429Y-116492856D01*
X129301429Y-115778570D01*
X129301429Y-114921428D02*
X129301429Y-114635714D01*
X129230000Y-114492856D01*
X129087143Y-114349999D01*
X128801429Y-114278571D01*
X128301429Y-114278571D01*
X128015714Y-114349999D01*
X127872857Y-114492856D01*
X127801429Y-114635714D01*
X127801429Y-114921428D01*
X127872857Y-115064285D01*
X128015714Y-115207142D01*
X128301429Y-115278571D01*
X128801429Y-115278571D01*
X129087143Y-115207142D01*
X129230000Y-115064285D01*
X129301429Y-114921428D01*
X127801429Y-113635713D02*
X129301429Y-113635713D01*
X127801429Y-112778570D01*
X129301429Y-112778570D01*
X128230000Y-112135713D02*
X128230000Y-111421427D01*
X127801429Y-112278570D02*
X129301429Y-111778570D01*
X127801429Y-111278570D01*
X128658571Y-110564284D02*
X128730000Y-110707142D01*
X128801429Y-110778570D01*
X128944286Y-110849999D01*
X129015714Y-110849999D01*
X129158571Y-110778570D01*
X129230000Y-110707142D01*
X129301429Y-110564284D01*
X129301429Y-110278570D01*
X129230000Y-110135713D01*
X129158571Y-110064284D01*
X129015714Y-109992856D01*
X128944286Y-109992856D01*
X128801429Y-110064284D01*
X128730000Y-110135713D01*
X128658571Y-110278570D01*
X128658571Y-110564284D01*
X128587143Y-110707142D01*
X128515714Y-110778570D01*
X128372857Y-110849999D01*
X128087143Y-110849999D01*
X127944286Y-110778570D01*
X127872857Y-110707142D01*
X127801429Y-110564284D01*
X127801429Y-110278570D01*
X127872857Y-110135713D01*
X127944286Y-110064284D01*
X128087143Y-109992856D01*
X128372857Y-109992856D01*
X128515714Y-110064284D01*
X128587143Y-110135713D01*
X128658571Y-110278570D01*
X129301429Y-109064285D02*
X129301429Y-108921428D01*
X129230000Y-108778571D01*
X129158571Y-108707142D01*
X129015714Y-108635713D01*
X128730000Y-108564285D01*
X128372857Y-108564285D01*
X128087143Y-108635713D01*
X127944286Y-108707142D01*
X127872857Y-108778571D01*
X127801429Y-108921428D01*
X127801429Y-109064285D01*
X127872857Y-109207142D01*
X127944286Y-109278571D01*
X128087143Y-109349999D01*
X128372857Y-109421428D01*
X128730000Y-109421428D01*
X129015714Y-109349999D01*
X129158571Y-109278571D01*
X129230000Y-109207142D01*
X129301429Y-109064285D01*
X128658571Y-107707142D02*
X128730000Y-107850000D01*
X128801429Y-107921428D01*
X128944286Y-107992857D01*
X129015714Y-107992857D01*
X129158571Y-107921428D01*
X129230000Y-107850000D01*
X129301429Y-107707142D01*
X129301429Y-107421428D01*
X129230000Y-107278571D01*
X129158571Y-107207142D01*
X129015714Y-107135714D01*
X128944286Y-107135714D01*
X128801429Y-107207142D01*
X128730000Y-107278571D01*
X128658571Y-107421428D01*
X128658571Y-107707142D01*
X128587143Y-107850000D01*
X128515714Y-107921428D01*
X128372857Y-107992857D01*
X128087143Y-107992857D01*
X127944286Y-107921428D01*
X127872857Y-107850000D01*
X127801429Y-107707142D01*
X127801429Y-107421428D01*
X127872857Y-107278571D01*
X127944286Y-107207142D01*
X128087143Y-107135714D01*
X128372857Y-107135714D01*
X128515714Y-107207142D01*
X128587143Y-107278571D01*
X128658571Y-107421428D01*
X128372857Y-106492857D02*
X128372857Y-105350000D01*
X127801429Y-105921429D02*
X128944286Y-105921429D01*
X129230000Y-103850000D02*
X129301429Y-103992857D01*
X129301429Y-104207143D01*
X129230000Y-104421428D01*
X129087143Y-104564286D01*
X128944286Y-104635714D01*
X128658571Y-104707143D01*
X128444286Y-104707143D01*
X128158571Y-104635714D01*
X128015714Y-104564286D01*
X127872857Y-104421428D01*
X127801429Y-104207143D01*
X127801429Y-104064286D01*
X127872857Y-103850000D01*
X127944286Y-103778571D01*
X128444286Y-103778571D01*
X128444286Y-104064286D01*
X127801429Y-103135714D02*
X129301429Y-103135714D01*
X129301429Y-102564286D01*
X129230000Y-102421428D01*
X129158571Y-102350000D01*
X129015714Y-102278571D01*
X128801429Y-102278571D01*
X128658571Y-102350000D01*
X128587143Y-102421428D01*
X128515714Y-102564286D01*
X128515714Y-103135714D01*
X127872857Y-101707143D02*
X127801429Y-101492857D01*
X127801429Y-101135714D01*
X127872857Y-100992857D01*
X127944286Y-100921428D01*
X128087143Y-100850000D01*
X128230000Y-100850000D01*
X128372857Y-100921428D01*
X128444286Y-100992857D01*
X128515714Y-101135714D01*
X128587143Y-101421428D01*
X128658571Y-101564286D01*
X128730000Y-101635714D01*
X128872857Y-101707143D01*
X129015714Y-101707143D01*
X129158571Y-101635714D01*
X129230000Y-101564286D01*
X129301429Y-101421428D01*
X129301429Y-101064286D01*
X129230000Y-100850000D01*
X128587143Y-98564286D02*
X128515714Y-98350000D01*
X128444286Y-98278572D01*
X128301429Y-98207143D01*
X128087143Y-98207143D01*
X127944286Y-98278572D01*
X127872857Y-98350000D01*
X127801429Y-98492858D01*
X127801429Y-99064286D01*
X129301429Y-99064286D01*
X129301429Y-98564286D01*
X129230000Y-98421429D01*
X129158571Y-98350000D01*
X129015714Y-98278572D01*
X128872857Y-98278572D01*
X128730000Y-98350000D01*
X128658571Y-98421429D01*
X128587143Y-98564286D01*
X128587143Y-99064286D01*
X127801429Y-97564286D02*
X128801429Y-97564286D01*
X128515714Y-97564286D02*
X128658571Y-97492858D01*
X128730000Y-97421429D01*
X128801429Y-97278572D01*
X128801429Y-97135715D01*
X127872857Y-96064287D02*
X127801429Y-96207144D01*
X127801429Y-96492858D01*
X127872857Y-96635715D01*
X128015714Y-96707144D01*
X128587143Y-96707144D01*
X128730000Y-96635715D01*
X128801429Y-96492858D01*
X128801429Y-96207144D01*
X128730000Y-96064287D01*
X128587143Y-95992858D01*
X128444286Y-95992858D01*
X128301429Y-96707144D01*
X127801429Y-94707144D02*
X128587143Y-94707144D01*
X128730000Y-94778573D01*
X128801429Y-94921430D01*
X128801429Y-95207144D01*
X128730000Y-95350001D01*
X127872857Y-94707144D02*
X127801429Y-94850001D01*
X127801429Y-95207144D01*
X127872857Y-95350001D01*
X128015714Y-95421430D01*
X128158571Y-95421430D01*
X128301429Y-95350001D01*
X128372857Y-95207144D01*
X128372857Y-94850001D01*
X128444286Y-94707144D01*
X127801429Y-93992858D02*
X129301429Y-93992858D01*
X128372857Y-93850001D02*
X127801429Y-93421430D01*
X128801429Y-93421430D02*
X128230000Y-93992858D01*
X127801429Y-92564286D02*
X127872857Y-92707144D01*
X127944286Y-92778572D01*
X128087143Y-92850001D01*
X128515714Y-92850001D01*
X128658571Y-92778572D01*
X128730000Y-92707144D01*
X128801429Y-92564286D01*
X128801429Y-92350001D01*
X128730000Y-92207144D01*
X128658571Y-92135715D01*
X128515714Y-92064286D01*
X128087143Y-92064286D01*
X127944286Y-92135715D01*
X127872857Y-92207144D01*
X127801429Y-92350001D01*
X127801429Y-92564286D01*
X128801429Y-90778572D02*
X127801429Y-90778572D01*
X128801429Y-91421429D02*
X128015714Y-91421429D01*
X127872857Y-91350001D01*
X127801429Y-91207143D01*
X127801429Y-90992858D01*
X127872857Y-90850001D01*
X127944286Y-90778572D01*
X128801429Y-90278572D02*
X128801429Y-89707143D01*
X129301429Y-90064286D02*
X128015714Y-90064286D01*
X127872857Y-89992858D01*
X127801429Y-89850000D01*
X127801429Y-89707143D01*
X128587143Y-87564286D02*
X128515714Y-87350000D01*
X128444286Y-87278572D01*
X128301429Y-87207143D01*
X128087143Y-87207143D01*
X127944286Y-87278572D01*
X127872857Y-87350000D01*
X127801429Y-87492858D01*
X127801429Y-88064286D01*
X129301429Y-88064286D01*
X129301429Y-87564286D01*
X129230000Y-87421429D01*
X129158571Y-87350000D01*
X129015714Y-87278572D01*
X128872857Y-87278572D01*
X128730000Y-87350000D01*
X128658571Y-87421429D01*
X128587143Y-87564286D01*
X128587143Y-88064286D01*
X127801429Y-86350000D02*
X127872857Y-86492858D01*
X127944286Y-86564286D01*
X128087143Y-86635715D01*
X128515714Y-86635715D01*
X128658571Y-86564286D01*
X128730000Y-86492858D01*
X128801429Y-86350000D01*
X128801429Y-86135715D01*
X128730000Y-85992858D01*
X128658571Y-85921429D01*
X128515714Y-85850000D01*
X128087143Y-85850000D01*
X127944286Y-85921429D01*
X127872857Y-85992858D01*
X127801429Y-86135715D01*
X127801429Y-86350000D01*
X127801429Y-84564286D02*
X128587143Y-84564286D01*
X128730000Y-84635715D01*
X128801429Y-84778572D01*
X128801429Y-85064286D01*
X128730000Y-85207143D01*
X127872857Y-84564286D02*
X127801429Y-84707143D01*
X127801429Y-85064286D01*
X127872857Y-85207143D01*
X128015714Y-85278572D01*
X128158571Y-85278572D01*
X128301429Y-85207143D01*
X128372857Y-85064286D01*
X128372857Y-84707143D01*
X128444286Y-84564286D01*
X127801429Y-83850000D02*
X128801429Y-83850000D01*
X128515714Y-83850000D02*
X128658571Y-83778572D01*
X128730000Y-83707143D01*
X128801429Y-83564286D01*
X128801429Y-83421429D01*
X127801429Y-82278572D02*
X129301429Y-82278572D01*
X127872857Y-82278572D02*
X127801429Y-82421429D01*
X127801429Y-82707143D01*
X127872857Y-82850001D01*
X127944286Y-82921429D01*
X128087143Y-82992858D01*
X128515714Y-82992858D01*
X128658571Y-82921429D01*
X128730000Y-82850001D01*
X128801429Y-82707143D01*
X128801429Y-82421429D01*
X128730000Y-82278572D01*
X126901429Y-118314286D02*
X125830000Y-118314286D01*
X125615714Y-118385714D01*
X125472857Y-118528571D01*
X125401429Y-118742857D01*
X125401429Y-118885714D01*
X126901429Y-117742857D02*
X126901429Y-116814286D01*
X126330000Y-117314286D01*
X126330000Y-117100000D01*
X126258571Y-116957143D01*
X126187143Y-116885714D01*
X126044286Y-116814286D01*
X125687143Y-116814286D01*
X125544286Y-116885714D01*
X125472857Y-116957143D01*
X125401429Y-117100000D01*
X125401429Y-117528572D01*
X125472857Y-117671429D01*
X125544286Y-117742857D01*
X125544286Y-116171429D02*
X125472857Y-116100001D01*
X125401429Y-116171429D01*
X125472857Y-116242858D01*
X125544286Y-116171429D01*
X125401429Y-116171429D01*
X126330000Y-116171429D02*
X126258571Y-116100001D01*
X126187143Y-116171429D01*
X126258571Y-116242858D01*
X126330000Y-116171429D01*
X126187143Y-116171429D01*
X126901429Y-114028572D02*
X126901429Y-113742858D01*
X126830000Y-113600000D01*
X126687143Y-113457143D01*
X126401429Y-113385715D01*
X125901429Y-113385715D01*
X125615714Y-113457143D01*
X125472857Y-113600000D01*
X125401429Y-113742858D01*
X125401429Y-114028572D01*
X125472857Y-114171429D01*
X125615714Y-114314286D01*
X125901429Y-114385715D01*
X126401429Y-114385715D01*
X126687143Y-114314286D01*
X126830000Y-114171429D01*
X126901429Y-114028572D01*
X126187143Y-112242857D02*
X126115714Y-112028571D01*
X126044286Y-111957143D01*
X125901429Y-111885714D01*
X125687143Y-111885714D01*
X125544286Y-111957143D01*
X125472857Y-112028571D01*
X125401429Y-112171429D01*
X125401429Y-112742857D01*
X126901429Y-112742857D01*
X126901429Y-112242857D01*
X126830000Y-112100000D01*
X126758571Y-112028571D01*
X126615714Y-111957143D01*
X126472857Y-111957143D01*
X126330000Y-112028571D01*
X126258571Y-112100000D01*
X126187143Y-112242857D01*
X126187143Y-112742857D01*
X125401429Y-111242857D02*
X126901429Y-111242857D01*
X126901429Y-110885714D01*
X126830000Y-110671429D01*
X126687143Y-110528571D01*
X126544286Y-110457143D01*
X126258571Y-110385714D01*
X126044286Y-110385714D01*
X125758571Y-110457143D01*
X125615714Y-110528571D01*
X125472857Y-110671429D01*
X125401429Y-110885714D01*
X125401429Y-111242857D01*
X125401429Y-109742857D02*
X126901429Y-109742857D01*
X125401429Y-109028571D02*
X126901429Y-109028571D01*
X125972857Y-108314285D02*
X125972857Y-107171428D01*
X126901429Y-106457142D02*
X125687143Y-106457142D01*
X125544286Y-106385714D01*
X125472857Y-106314285D01*
X125401429Y-106171428D01*
X125401429Y-105885714D01*
X125472857Y-105742856D01*
X125544286Y-105671428D01*
X125687143Y-105599999D01*
X126901429Y-105599999D01*
X125830000Y-104957142D02*
X125830000Y-104242856D01*
X125401429Y-105099999D02*
X126901429Y-104599999D01*
X125401429Y-104099999D01*
X125401429Y-102742856D02*
X126115714Y-103242856D01*
X125401429Y-103599999D02*
X126901429Y-103599999D01*
X126901429Y-103028571D01*
X126830000Y-102885713D01*
X126758571Y-102814285D01*
X126615714Y-102742856D01*
X126401429Y-102742856D01*
X126258571Y-102814285D01*
X126187143Y-102885713D01*
X126115714Y-103028571D01*
X126115714Y-103599999D01*
X126901429Y-102314285D02*
X126901429Y-101457142D01*
X125401429Y-101885713D02*
X126901429Y-101885713D01*
X125830000Y-99885714D02*
X125830000Y-99171428D01*
X125401429Y-100028571D02*
X126901429Y-99528571D01*
X125401429Y-99028571D01*
X125401429Y-97885714D02*
X126901429Y-97885714D01*
X125472857Y-97885714D02*
X125401429Y-98028571D01*
X125401429Y-98314285D01*
X125472857Y-98457143D01*
X125544286Y-98528571D01*
X125687143Y-98600000D01*
X126115714Y-98600000D01*
X126258571Y-98528571D01*
X126330000Y-98457143D01*
X126401429Y-98314285D01*
X126401429Y-98028571D01*
X126330000Y-97885714D01*
X125401429Y-96528571D02*
X126187143Y-96528571D01*
X126330000Y-96600000D01*
X126401429Y-96742857D01*
X126401429Y-97028571D01*
X126330000Y-97171428D01*
X125472857Y-96528571D02*
X125401429Y-96671428D01*
X125401429Y-97028571D01*
X125472857Y-97171428D01*
X125615714Y-97242857D01*
X125758571Y-97242857D01*
X125901429Y-97171428D01*
X125972857Y-97028571D01*
X125972857Y-96671428D01*
X126044286Y-96528571D01*
X126401429Y-95814285D02*
X124901429Y-95814285D01*
X126330000Y-95814285D02*
X126401429Y-95671428D01*
X126401429Y-95385714D01*
X126330000Y-95242857D01*
X126258571Y-95171428D01*
X126115714Y-95099999D01*
X125687143Y-95099999D01*
X125544286Y-95171428D01*
X125472857Y-95242857D01*
X125401429Y-95385714D01*
X125401429Y-95671428D01*
X125472857Y-95814285D01*
X126401429Y-94671428D02*
X126401429Y-94099999D01*
X126901429Y-94457142D02*
X125615714Y-94457142D01*
X125472857Y-94385714D01*
X125401429Y-94242856D01*
X125401429Y-94099999D01*
X125472857Y-93028571D02*
X125401429Y-93171428D01*
X125401429Y-93457142D01*
X125472857Y-93599999D01*
X125615714Y-93671428D01*
X126187143Y-93671428D01*
X126330000Y-93599999D01*
X126401429Y-93457142D01*
X126401429Y-93171428D01*
X126330000Y-93028571D01*
X126187143Y-92957142D01*
X126044286Y-92957142D01*
X125901429Y-93671428D01*
X125401429Y-92314285D02*
X126401429Y-92314285D01*
X126115714Y-92314285D02*
X126258571Y-92242857D01*
X126330000Y-92171428D01*
X126401429Y-92028571D01*
X126401429Y-91885714D01*
X126187143Y-89742857D02*
X126115714Y-89528571D01*
X126044286Y-89457143D01*
X125901429Y-89385714D01*
X125687143Y-89385714D01*
X125544286Y-89457143D01*
X125472857Y-89528571D01*
X125401429Y-89671429D01*
X125401429Y-90242857D01*
X126901429Y-90242857D01*
X126901429Y-89742857D01*
X126830000Y-89600000D01*
X126758571Y-89528571D01*
X126615714Y-89457143D01*
X126472857Y-89457143D01*
X126330000Y-89528571D01*
X126258571Y-89600000D01*
X126187143Y-89742857D01*
X126187143Y-90242857D01*
X125401429Y-88528571D02*
X125472857Y-88671429D01*
X125544286Y-88742857D01*
X125687143Y-88814286D01*
X126115714Y-88814286D01*
X126258571Y-88742857D01*
X126330000Y-88671429D01*
X126401429Y-88528571D01*
X126401429Y-88314286D01*
X126330000Y-88171429D01*
X126258571Y-88100000D01*
X126115714Y-88028571D01*
X125687143Y-88028571D01*
X125544286Y-88100000D01*
X125472857Y-88171429D01*
X125401429Y-88314286D01*
X125401429Y-88528571D01*
X125401429Y-86742857D02*
X126187143Y-86742857D01*
X126330000Y-86814286D01*
X126401429Y-86957143D01*
X126401429Y-87242857D01*
X126330000Y-87385714D01*
X125472857Y-86742857D02*
X125401429Y-86885714D01*
X125401429Y-87242857D01*
X125472857Y-87385714D01*
X125615714Y-87457143D01*
X125758571Y-87457143D01*
X125901429Y-87385714D01*
X125972857Y-87242857D01*
X125972857Y-86885714D01*
X126044286Y-86742857D01*
X125401429Y-86028571D02*
X126401429Y-86028571D01*
X126115714Y-86028571D02*
X126258571Y-85957143D01*
X126330000Y-85885714D01*
X126401429Y-85742857D01*
X126401429Y-85600000D01*
X125401429Y-84457143D02*
X126901429Y-84457143D01*
X125472857Y-84457143D02*
X125401429Y-84600000D01*
X125401429Y-84885714D01*
X125472857Y-85028572D01*
X125544286Y-85100000D01*
X125687143Y-85171429D01*
X126115714Y-85171429D01*
X126258571Y-85100000D01*
X126330000Y-85028572D01*
X126401429Y-84885714D01*
X126401429Y-84600000D01*
X126330000Y-84457143D01*
M02*
