M48
;DRILL file {KiCad 4.0.1-3.201512221402+6198~38~ubuntu14.04.1-stable} date Tue 03 May 2016 12:22:45 PM PDT
;FORMAT={-:-/ absolute / inch / decimal}
FMAT,2
INCH,TZ
T1C0.013
T2C0.040
T3C0.120
T4C0.059
%
G90
G05
M72
T1
X4.9Y-4.56
X5.147Y-4.247
X5.19Y-3.23
X5.31Y-4.35
X5.31Y-4.7
X5.32Y-3.88
X5.55Y-3.97
X5.61Y-4.14
X5.71Y-3.66
X5.83Y-3.58
X5.92Y-3.37
X6.01Y-3.42
X6.17Y-3.31
X6.27Y-3.26
X6.38Y-3.23
X6.56Y-4.6
T2
X4.469Y-3.721
X4.469Y-3.821
X4.469Y-3.921
X4.469Y-4.021
X4.469Y-4.121
X4.469Y-4.221
X4.755Y-3.147
X4.755Y-3.247
X4.755Y-3.347
X4.755Y-3.447
X4.755Y-3.547
X4.755Y-3.647
X4.755Y-3.747
X4.755Y-3.847
X4.755Y-3.947
X4.755Y-4.047
X4.755Y-4.147
X4.755Y-4.247
X4.755Y-4.347
X4.755Y-4.447
X4.755Y-4.547
X4.755Y-4.647
X4.968Y-2.977
X5.109Y-2.975
X5.11Y-3.105
X5.209Y-2.975
X5.21Y-3.105
X5.309Y-2.975
X5.409Y-2.975
X5.468Y-4.875
X5.509Y-2.975
X5.568Y-4.875
X5.609Y-2.975
X5.668Y-4.875
X5.709Y-2.975
X5.768Y-4.875
X5.809Y-2.975
X5.868Y-4.875
X5.909Y-2.975
X5.968Y-4.875
X6.009Y-2.975
X6.068Y-4.875
X6.168Y-4.875
X6.169Y-2.975
X6.269Y-2.975
X6.369Y-2.975
X6.369Y-4.875
X6.37Y-4.675
X6.469Y-2.975
X6.469Y-4.875
X6.47Y-3.105
X6.569Y-2.975
X6.569Y-4.875
X6.669Y-2.975
X6.669Y-4.875
X6.769Y-2.975
X6.769Y-4.875
X6.77Y-3.105
X6.869Y-2.975
X6.869Y-4.875
X6.87Y-3.105
T3
X4.92Y-4.875
X4.97Y-2.975
X6.97Y-3.575
X6.97Y-4.675
T4
X6.8787Y-3.3746
X6.8787Y-4.3273
T0
M30
